<svg version="1.1" id="layer" xmlns="http://www.w3.org/2000/svg" x="0" y="0" viewBox="0 0 652 652" style="enable-background:new 0 0 652 652" xml:space="preserve"><path d="M21.7 412.6h13.1c3.2 0 5.5.8 7 2.3 1 1 1.6 2.4 1.6 4.1v.1c0 3-1.7 4.7-3.9 5.7 3.1 1 5.1 2.8 5.1 6.3v.1c0 4.4-3.6 7.1-9.7 7.1H21.7v-25.7zm11.4 10.2c2.2 0 3.4-.7 3.4-2.2v-.1c0-1.4-1.1-2.2-3.2-2.2h-4.6v4.5h4.4zm1 9.7c2.2 0 3.4-.8 3.4-2.3v-.2c0-1.4-1.1-2.3-3.5-2.3h-5.4v4.7h5.5zM46.9 425.4c0-7.4 5.9-13.4 13.8-13.4s13.7 5.9 13.7 13.2v.1c0 7.3-5.9 13.3-13.8 13.3-7.8.1-13.7-5.8-13.7-13.2m20.4 0c0-3.8-2.7-7-6.6-7-3.9 0-6.5 3.1-6.5 6.8v.1c0 3.7 2.7 6.9 6.5 6.9 4 .1 6.6-3.1 6.6-6.8M77.3 425.4c0-7.4 5.9-13.4 13.8-13.4s13.7 5.9 13.7 13.2v.1c0 7.3-5.9 13.3-13.8 13.3-7.8.1-13.7-5.8-13.7-13.2m20.3 0c0-3.8-2.7-7-6.6-7-3.9 0-6.5 3.1-6.5 6.8v.1c0 3.7 2.7 6.9 6.5 6.9 4 .1 6.6-3.1 6.6-6.8M108.5 412.6h7.1v10.3l8.8-10.3h8.5l-9.7 11 10 14.6h-8.5l-6.5-9.5-2.6 2.8v6.7h-7.1z"/><path d="m132.9 434.4 3.9-4.7c2.5 2 5.3 3.1 8.3 3.1 1.9 0 2.9-.6 2.9-1.7v-.1c0-1.1-.8-1.6-4.3-2.4-5.4-1.2-9.6-2.8-9.6-8v-.1c0-4.8 3.8-8.2 9.9-8.2 4.3 0 7.7 1.2 10.5 3.4l-3.5 5c-2.3-1.6-4.9-2.5-7.2-2.5-1.7 0-2.6.7-2.6 1.6v.1c0 1.2.9 1.7 4.4 2.5 5.9 1.3 9.5 3.2 9.5 8v.1c0 5.2-4.1 8.3-10.3 8.3-4.4-.2-8.7-1.6-11.9-4.4M169.5 425.3c0-3.5 2.8-6.2 6.2-6.2 3.4 0 6.2 2.7 6.2 6.1v.1c0 3.4-2.8 6.1-6.2 6.1-3.4.1-6.2-2.7-6.2-6.1M203.4 418.8h-7.6v-6.2h22.4v6.2h-7.7v19.4h-7.1zM219.3 425.4c0-7.4 5.9-13.4 13.8-13.4s13.7 5.9 13.7 13.2v.1c0 7.3-5.9 13.3-13.8 13.3-7.8.1-13.7-5.8-13.7-13.2m20.3 0c0-3.8-2.7-7-6.6-7-3.9 0-6.5 3.1-6.5 6.8v.1c0 3.7 2.7 6.9 6.5 6.9 4 .1 6.6-3.1 6.6-6.8M255.6 428.6l-9.8-16h8.1l5.3 9.3 5.3-9.3h7.9l-9.7 15.9v9.7h-7.1zM271.4 434.4l3.9-4.7c2.5 2 5.3 3.1 8.3 3.1 1.9 0 2.9-.6 2.9-1.7v-.1c0-1.1-.8-1.6-4.3-2.4-5.4-1.2-9.6-2.8-9.6-8v-.1c0-4.8 3.8-8.2 9.9-8.2 4.3 0 7.7 1.2 10.5 3.4l-3.5 5c-2.3-1.6-4.9-2.5-7.2-2.5-1.7 0-2.6.7-2.6 1.6v.1c0 1.2.9 1.7 4.4 2.5 5.9 1.3 9.5 3.2 9.5 8v.1c0 5.2-4.1 8.3-10.3 8.3-4.5-.2-8.8-1.6-11.9-4.4M308 425.3c0-3.5 2.8-6.2 6.2-6.2s6.2 2.7 6.2 6.1v.1c0 3.4-2.8 6.1-6.2 6.1s-6.2-2.7-6.2-6.1M341.9 418.8h-7.7v-6.2h22.5v6.2H349v19.4h-7.1zM359.8 412.6h20.5v6h-13.5v3.9h12.3v5.6h-12.3v4h13.7v6.1h-20.7zM383.1 425.4c0-7.5 5.7-13.4 13.5-13.4 5.2 0 8.6 2.2 10.8 5.3l-5.3 4.1c-1.5-1.8-3.1-3-5.6-3-3.6 0-6.1 3-6.1 6.8v.1c0 3.8 2.5 6.8 6.1 6.8 2.7 0 4.2-1.2 5.8-3.1l5.3 3.8c-2.4 3.3-5.7 5.8-11.3 5.8-7.3.1-13.2-5.5-13.2-13.2M410.6 412.6h7.1v9.5h9.1v-9.5h7.1v25.6h-7.1v-9.8h-9.1v9.8h-7.1zM449.2 425.3c0-3.5 2.8-6.2 6.2-6.2 3.4 0 6.2 2.7 6.2 6.1v.1c0 3.4-2.8 6.1-6.2 6.1-3.4.1-6.2-2.7-6.2-6.1M476.9 412.6h7.5l6.1 9.9 6.1-9.9h7.5v25.6h-7v-14.7l-6.6 10h-.1l-6.5-10v14.7h-7zM507.8 425.4c0-7.4 5.9-13.4 13.8-13.4s13.7 5.9 13.7 13.2v.1c0 7.3-5.9 13.3-13.8 13.3-7.9.1-13.7-5.8-13.7-13.2m20.3 0c0-3.8-2.7-7-6.6-7-3.9 0-6.5 3.1-6.5 6.8v.1c0 3.7 2.7 6.9 6.5 6.9 4 .1 6.6-3.1 6.6-6.8M539 412.6h12.1c3.9 0 6.6 1 8.3 2.8 1.5 1.5 2.3 3.4 2.3 6v.1c0 3.9-2.1 6.5-5.3 7.9l6.1 8.9h-8.2l-5.2-7.7H546v7.7h-7v-25.7zm11.8 12.3c2.4 0 3.8-1.2 3.8-3v-.1c0-2-1.5-3-3.8-3h-4.7v6.1h4.7zM565.3 412.6h20.5v6h-13.5v3.9h12.3v5.6h-12.3v4H586v6.1h-20.7zM21 376.9h565V394H21z"/><path d="M576.9 345.1c0 8.6-7 15.6-15.6 15.6s-15.6-7-15.6-15.6 7-15.6 15.6-15.6 15.6 7 15.6 15.6M155.6 223c-12.1-17.2-35.6-18.3-49.2-18.3h-82v153.2h84.9c9.9 0 41.1 0 52.2-20.2 5.7-9.9 5.7-26.3-.2-36.8-7.4-13-15.6-16.3-26.3-20 13.2-4.5 20.8-9.3 25.5-23.6 2.8-9.2 2.3-24.2-4.9-34.3m-78.9 40.1v-24.9h15c9.7 0 15.7 3.3 15.7 12.5 0 10.1-6 12.4-15.7 12.4h-15zm0 61.7v-24.9h17.1c9.7 0 15.8 3.3 15.8 12.4 0 10.1-6 12.5-15.8 12.5H76.7zm142 33.1 8.5-18.5h55.2l8.5 18.5h56.5l-90.2-153.1h-4.8l-90.2 153.1h56.5zm35.9-79.3 13.3 28.8h-26.3l13-28.8zM572 319.3l17.5-114.4-56.5-.1 17.2 114.5H572zm37.1-114.4c-6.6 0-11.9 5.2-11.9 11.6 0 6.6 5.3 11.7 11.9 11.7 6.7 0 11.9-5.1 11.9-11.7 0-6.5-5.2-11.6-11.9-11.6zm0 2.3c5.2 0 8.9 4.2 8.9 9.3 0 5.2-3.8 9.3-8.8 9.3-5.2 0-9.1-4.1-9.1-9.3 0-5.1 3.8-9.3 9-9.3zm-1.8 10.7h1.3c1.5 0 2.2.6 2.4 1.8.3 1.3.6 2.3.9 2.8h2.9c-.3-.3-.5-1.1-.8-2.8-.4-1.6-1-2.5-2.1-2.8v-.1c1.4-.4 2.4-1.4 2.4-2.8 0-1.1-.5-2-1.1-2.5-.8-.6-1.8-.9-4-.9-1.9 0-3.4.2-4.4.4v11.5h2.7v-4.6zm0-5.2c.3-.1.8-.1 1.5-.1 1.7 0 2.5.7 2.5 1.7 0 1.2-1.2 1.7-2.7 1.7h-1.3v-3.3zm-136.8 89.8 2.9 55.4h49.8l-4.6-153h-3.8l-75.3 59.4-75-59.4h-3.8l-4.6 153h49.8l2.9-55.4 30.7 24.9 31-24.9z" style="fill:#231f20"/></svg>