<svg width="118" height="48" fill="none" xmlns="http://www.w3.org/2000/svg"><path d="M.75 18C.75 8.473 8.473.75 18 .75h82c9.527 0 17.25 7.723 17.25 17.25v12c0 9.527-7.723 17.25-17.25 17.25H18C8.473 47.25.75 39.527.75 30V18Z" fill="#fff" stroke="#111" stroke-width="1.5"/><path d="M24.994 29v-9.8h1.484v8.624h4.452V29h-5.936Zm9.864.168c-.662 0-1.26-.15-1.792-.448a3.403 3.403 0 0 1-1.246-1.274c-.308-.55-.462-1.19-.462-1.918s.154-1.363.462-1.904c.318-.55.742-.975 1.274-1.274a3.484 3.484 0 0 1 1.778-.462c.663 0 1.256.154 1.778.462.532.299.952.723 1.26 1.274.318.541.476 1.176.476 1.904s-.158 1.367-.476 1.918a3.37 3.37 0 0 1-1.26 1.274 3.596 3.596 0 0 1-1.792.448Zm0-1.274a1.944 1.944 0 0 0 1.722-1.05c.187-.355.28-.793.28-1.316s-.093-.957-.28-1.302a1.839 1.839 0 0 0-.728-.798 1.885 1.885 0 0 0-.98-.266 1.96 1.96 0 0 0-.994.266 1.958 1.958 0 0 0-.728.798c-.186.345-.28.78-.28 1.302 0 .523.094.961.28 1.316.187.345.43.607.728.784.3.177.626.266.98.266Zm7.046-1.022c-.364 0-.7-.042-1.008-.126l-.602.588c.103.065.229.121.378.168.15.047.36.089.63.126.27.037.64.075 1.106.112.924.084 1.591.308 2.002.672.41.355.616.83.616 1.428 0 .41-.112.798-.336 1.162-.215.373-.555.672-1.022.896-.457.233-1.045.35-1.764.35-.97 0-1.76-.187-2.366-.56-.597-.364-.896-.92-.896-1.666 0-.29.075-.579.224-.868.159-.28.406-.546.742-.798a3.82 3.82 0 0 1-.518-.266 4.479 4.479 0 0 1-.378-.308v-.336l1.204-1.232c-.541-.467-.812-1.078-.812-1.834 0-.457.108-.873.322-1.246.224-.383.546-.686.966-.91.42-.224.924-.336 1.512-.336.392 0 .756.056 1.092.168h2.59v.98l-1.232.07c.224.383.336.807.336 1.274 0 .467-.112.887-.336 1.26a2.329 2.329 0 0 1-.952.896c-.41.224-.91.336-1.498.336Zm0-1.162c.43 0 .775-.112 1.036-.336.27-.233.406-.56.406-.98 0-.43-.135-.756-.406-.98-.261-.224-.606-.336-1.036-.336-.439 0-.793.112-1.064.336-.261.224-.392.55-.392.98 0 .42.13.747.392.98.27.224.625.336 1.064.336Zm-1.862 4.172c0 .401.177.7.532.896.355.205.798.308 1.33.308.513 0 .929-.112 1.246-.336.318-.215.476-.504.476-.868a.917.917 0 0 0-.322-.7c-.215-.187-.62-.303-1.218-.35a12.31 12.31 0 0 1-1.19-.126c-.327.177-.55.369-.672.574a1.18 1.18 0 0 0-.182.602Zm12.523-.714c-.662 0-1.26-.15-1.792-.448a3.403 3.403 0 0 1-1.246-1.274c-.308-.55-.462-1.19-.462-1.918s.154-1.363.462-1.904c.317-.55.742-.975 1.274-1.274a3.484 3.484 0 0 1 1.778-.462c.663 0 1.255.154 1.778.462.532.299.952.723 1.26 1.274.318.541.476 1.176.476 1.904s-.159 1.367-.476 1.918a3.37 3.37 0 0 1-1.26 1.274 3.596 3.596 0 0 1-1.792.448Zm0-1.274a1.944 1.944 0 0 0 1.722-1.05c.187-.355.28-.793.28-1.316s-.093-.957-.28-1.302a1.839 1.839 0 0 0-.728-.798 1.885 1.885 0 0 0-.98-.266 1.96 1.96 0 0 0-.994.266 1.958 1.958 0 0 0-.728.798c-.187.345-.28.78-.28 1.302 0 .523.093.961.28 1.316.187.345.43.607.728.784.299.177.626.266.98.266Zm7.135 1.274c-.84 0-1.503-.261-1.988-.784-.476-.523-.714-1.302-.714-2.338v-3.99h1.484v3.836c0 1.344.55 2.016 1.652 2.016.55 0 1.003-.196 1.358-.588.355-.392.532-.952.532-1.68v-3.584h1.484V29h-1.316l-.112-1.218a2.45 2.45 0 0 1-.952 1.022c-.41.243-.887.364-1.428.364ZM67.748 29c-.681 0-1.223-.163-1.624-.49-.401-.336-.602-.929-.602-1.778v-3.43h-1.19v-1.246h1.19l.182-1.764h1.302v1.764h1.96v1.246h-1.96v3.43c0 .383.08.649.238.798.168.14.453.21.854.21h.798V29h-1.148Z" fill="#111"/><path d="M77.333 24h13.334m0 0-5-5m5 5-5 5" stroke="#EAC645" stroke-width="2" stroke-linecap="round" stroke-linejoin="round"/></svg>