<svg width="184" height="48" fill="none" xmlns="http://www.w3.org/2000/svg"><path d="M.75 18C.75 8.473 8.473.75 18 .75h148c9.527 0 17.25 7.723 17.25 17.25v12c0 9.527-7.723 17.25-17.25 17.25H18C8.473 47.25.75 39.527.75 30V18Z" fill="#4F2EE8" stroke="#111" stroke-width="1.5"/><path d="M18.228 29.168c-.719 0-1.349-.126-1.89-.378a3.01 3.01 0 0 1-1.274-1.078c-.299-.467-.453-1.022-.462-1.666h1.568c.01.523.191.966.546 1.33.355.364.854.546 1.498.546.57 0 1.013-.135 1.33-.406.327-.28.49-.635.49-1.064 0-.345-.08-.625-.238-.84a1.697 1.697 0 0 0-.63-.532 5.57 5.57 0 0 0-.91-.378c-.345-.112-.71-.233-1.092-.364-.756-.252-1.325-.579-1.708-.98-.373-.401-.56-.929-.56-1.582-.01-.55.117-1.031.378-1.442.27-.41.644-.728 1.12-.952.485-.233 1.05-.35 1.694-.35.635 0 1.19.117 1.666.35.485.233.863.56 1.134.98.27.41.41.891.42 1.442H19.74c0-.252-.065-.49-.196-.714a1.54 1.54 0 0 0-.574-.574c-.252-.15-.56-.224-.924-.224-.467-.01-.854.107-1.162.35-.299.243-.448.579-.448 1.008 0 .383.112.677.336.882.224.205.532.378.924.518.392.13.84.285 1.344.462.485.159.92.35 1.302.574.383.224.686.518.91.882.233.364.35.826.35 1.386 0 .495-.126.957-.378 1.386-.252.42-.63.765-1.134 1.036-.504.261-1.125.392-1.862.392Zm5.22-8.428c-.28 0-.513-.084-.7-.252a.894.894 0 0 1-.265-.658c0-.261.088-.476.265-.644a.976.976 0 0 1 .7-.266c.28 0 .51.089.686.266.187.168.28.383.28.644s-.093.48-.28.658c-.177.168-.405.252-.686.252ZM22.706 29v-6.944h1.485V29h-1.485Zm5.726-2.128c-.364 0-.7-.042-1.008-.126l-.602.588c.102.065.228.121.378.168.149.047.359.089.63.126.27.037.639.075 1.106.112.924.084 1.59.308 2.002.672.41.355.616.83.616 1.428 0 .41-.112.798-.336 1.162-.215.373-.556.672-1.023.896-.457.233-1.045.35-1.764.35-.97 0-1.759-.187-2.366-.56-.597-.364-.896-.92-.896-1.666 0-.29.075-.579.224-.868.16-.28.406-.546.742-.798a3.814 3.814 0 0 1-.518-.266 4.479 4.479 0 0 1-.378-.308v-.336l1.204-1.232c-.54-.467-.812-1.078-.812-1.834 0-.457.108-.873.322-1.246.224-.383.547-.686.966-.91.42-.224.924-.336 1.512-.336.392 0 .756.056 1.092.168h2.59v.98l-1.232.07c.224.383.337.807.337 1.274 0 .467-.113.887-.337 1.26a2.33 2.33 0 0 1-.951.896c-.411.224-.91.336-1.498.336Zm0-1.162c.429 0 .774-.112 1.036-.336.27-.233.405-.56.405-.98 0-.43-.135-.756-.405-.98-.262-.224-.607-.336-1.037-.336-.438 0-.793.112-1.064.336-.26.224-.392.55-.392.98 0 .42.131.747.392.98.271.224.626.336 1.064.336Zm-1.862 4.172c0 .401.177.7.532.896.354.205.797.308 1.33.308.513 0 .928-.112 1.245-.336.318-.215.477-.504.477-.868a.917.917 0 0 0-.323-.7c-.214-.187-.62-.303-1.218-.35-.447-.028-.844-.07-1.19-.126-.326.177-.55.369-.671.574a1.18 1.18 0 0 0-.182.602ZM32.877 29v-6.944h1.316l.112 1.218c.215-.43.528-.765.938-1.008.42-.252.9-.378 1.442-.378.84 0 1.498.261 1.974.784.486.523.728 1.302.728 2.338V29h-1.47v-3.836c0-1.344-.55-2.016-1.652-2.016-.55 0-1.008.196-1.372.588-.355.392-.532.952-.532 1.68V29h-1.484Zm13.227.168c-.84 0-1.502-.261-1.988-.784-.476-.523-.714-1.302-.714-2.338v-3.99h1.484v3.836c0 1.344.551 2.016 1.652 2.016.551 0 1.004-.196 1.358-.588.355-.392.532-.952.532-1.68v-3.584h1.484V29h-1.316l-.112-1.218a2.45 2.45 0 0 1-.952 1.022c-.41.243-.886.364-1.428.364Zm5.136 2.912V22.056h1.33l.154 1.078c.224-.327.532-.616.924-.868s.896-.378 1.512-.378c.672 0 1.265.159 1.778.476.513.317.915.751 1.204 1.302.299.55.448 1.176.448 1.876s-.15 1.325-.448 1.876c-.29.541-.69.97-1.204 1.288-.513.308-1.11.462-1.792.462-.541 0-1.022-.107-1.442-.322a2.487 2.487 0 0 1-.98-.91v4.144H51.24Zm3.654-4.2c.635 0 1.157-.215 1.568-.644.41-.439.616-1.008.616-1.708 0-.457-.093-.863-.28-1.218a2.057 2.057 0 0 0-.77-.826 2.086 2.086 0 0 0-1.134-.308c-.635 0-1.157.22-1.568.658-.401.439-.602 1.003-.602 1.694 0 .7.2 1.27.602 1.708.41.43.933.644 1.568.644Z" fill="#fff"/><path d="M153.333 24h13.334m0 0-5-5m5 5-5 5" stroke="#EAC645" stroke-width="2" stroke-linecap="round" stroke-linejoin="round"/></svg>