<svg version="1.1" id="layer" xmlns="http://www.w3.org/2000/svg" x="0" y="0" viewBox="0 0 652 652" style="enable-background:new 0 0 652 652" xml:space="preserve"><style>.st0{fill:#991b1e}</style><path class="st0" d="M472.5 369.7c1.2 4-4.7 4.3-1.8 8.6 3.9-.5 2-5.4 5.1-6.4-.6-2.5 1.3-3.2 1.1-5.4-1.8.8-3 2.1-4.4 3.2M489.5 348.1c-2.1-.2-2.4 2.2-1.4 3.2 1.5-.3 1.9-1.4 1.4-3.2M468.5 389.2c.1.5-.1.8-.2 1.2.8.7 1.6-.2 1.7-1-.5-.1-.8-.5-1.5-.2M476.7 362.3c-.7 1.1-.5 2.5.5 3.3 2.4-.2 3.3-1.5 3.3-3.5-.9-.9-1.8.2-3.8.2M509.2 249.7c4.7-.2-.6-4.2 0 0M481 360.2c1.9 0 2.8-.8 2.3-2.6-1.6-.5-3.1.5-2.3 2.6"/><path class="st0" d="M542.5 306.5c-3.2 4.5-4.4 10.6-7.7 15.1-3.1 13.2-10.7 23-15 35.4-.6.4-1.3.8-2.1 1.1-2.7 6.8-7.5 12-9.8 19.1-8.3 11.3-13.4 24.4-20.9 36.2-1.7 2.7-3.8 4.8-5.4 7.6-4.9 8.6-10.3 18.1-16.3 26.5-7.2 10.1-11.1 16.4-19.3 24.8-2.2 2.3-4.5 4.9-7.3 7.1-.1-2.5 2.4-3 3.1-5-.4-4.7 5-6.5 3.3-11.1 3.1-3.6.1-4.5 3.1-8.1.8-.9 1.6-4.2 2.2-4.8 3.7-2.2 5.8-3.2 4.3-8.2 3.3-.6 2.5-5.3 3.2-6.9 2.3-2.4 3-5.9 6.5-7.4.2-1.7-.9-1.8-1.2-2.9 3.3-4 6.6-8.1 7.9-13.6 5.9-3 5.2-10.9 10-14.6.3-7.4 7.3-9.7 7-17.6 1-.6 2-1.1 3.2-1.6.4-.5.1-1.7 0-2.6 2.8-1.6 2.5-5.4 5.5-6.8 3.9-11 12.1-18.7 15.4-30.1 1.1-.5 1.6-1.5 2.8-1.9.2-1.1.1-2.3.3-3.4 3.3-3.8 6.2-7.9 7.2-13.5 6.2-5.5 7.9-14.3 14.2-19.8 0-1.2.9-1.8.7-3.1 4.6-4.2 6.8-10.1 9.5-15.7.9-1.1 2.3-1.8 3-3.1.4-.1.7 0 .8.3-1.4 10.6-7.4 17.6-8.2 28.6m-92.9 128.1c-.4-5.2 3.8-9.7 4.3-15.3.7-1.5 2.1-2.4 2.4-4.1 1.7 6.7-5 12.9-6.7 19.4m10.8-27.6c-.4 2.8-1.5 5-3.2 6.9-.8-2.1 1.1-5.2 2-7.1.6-.2.7.2 1.2.2m1.1-5.5c.8.6.5 3.2-1.1 3.2-1.2-1.5 0-2.5 1.1-3.2m-24 35.5c-2.6-1.5-.3-5.5 1.7-6.7.7-4.8 4-7.8 4.6-12.7 4.1-2.4 3.1-8.7 7.1-11.2.7-4.3 4.2-6.6 4-11.5 3.4-2.3 2.5-7.9 6.2-9.9-1.3-3.8 2.5-3.9 2.4-6.8 1.3.1 0 3 2 3.1-3.1 1.6-3 5.5-5.8 7.2.3 5.2-1.5 8.8-5.3 10.9.1 2.4-.9 4-2.3 5.2.1 1.5 1.1 1.7 1.2 3.2-3.7 2.5-7.2 6.9-5.8 12.2-3.1 2.1-5.8 4.5-5.1 9.4-3.2 1.4-3.8 4.8-4.9 7.6m-2-16.3c-1.4-2.8-.3-4.9 1-6.6.2-1.5-1.3-1-1.1-2.5 2.6-3.5 6.6-6.1 7.9-10.6l2.2-.3c-3.9 6.3-5.7 14-10 20m25.5-57.3c.4-.7.6-1.6 1.6-1.7.3 1.1-.7 1.4-1.6 1.7m-28.8 15.4c2-12.8 10.6-20.7 13.1-33.2 4.5-4.5 5.2-11.7 9-16.8.1-1.5-.1-1.3-.4-3 7.9-10.9 12.1-24.7 20.7-35.1l1.1-.2c.7 3.4-2.7 3.7-1.2 7.7-4.1 5.1-6.6 11.3-8.4 18.2-6.8 8.6-8 21.6-14.6 30.4-.2 6.8-6.1 11-5.9 17.1-3.1 3.5-5.8 7.3-9.5 10.4-.3 2.1 0 4.7-2.7 4.9-.2-.2-.5-.5-1.2-.4m-4.5-26.9c-1.5-2.8 3.6-4.8.4-8 3-6.6 5.9-13.2 7.2-21 4.5-7.4 9-14.9 14.3-21.7 1.6 1.6-2.1 4.5-2.9 6.4.7 2.6-.6 3.7-.7 5.8-3.2 1.1-2.2 5.4-5.1 6.8-.2 7-5.5 10.2-5.5 17.4-3.2 4.2-3.6 10.6-7.7 14.3m.6 84.5c-1.6-1.5-2.2-4.3-2-6.1l1.5-.2c.7 1.5.6 4.5.5 6.3m-4.9 35.1c-1-1.9-2.2-3.6-2.4-6.5 1.5-1.4 4.3-4 6.5-2.1-1.8 2.6-1.9 6.4-4.1 8.6m-4.2-124.1c.7-2.1 2.7-4.4 2.1-6.3 2.6-2.4 1.1-5.7 2.4-9.4.5-1.3 2.5-2.7 3.2-4.2 1.2-2.8 2-5.1 1.4-8.3 4.5-8.1 1.6-8.6 6.7-16.3l.3 1.9c.5-1.6 2.7-2 2-4.4-.5-1-1.2.4-1.8.3.1-1.6.5-2.9 1.3-4 .8-.2.4 1.3.6 1.8 1.6.1 1.1-1.4 2.9-1.2.2 2.3-1.8 3.1-1.1 5.8 3.8-.5 2.8-4.5 5.2-6 .2-1.4-1.1-.9-1.1-2.1 1.8 0 2.2-3.7.5-4.2 1.2-1.2 2.7-2.7 1.2-5.1.4.2.9.3 1.5.2-1.3-2.4-.2-2.1-.3-4.9-3.4 1.7-4 5.4-5.6 8.4.2 1.2 1.4 1.1 2.7.7-.1 1.6-1.4 2.2-1.7 3.6-2-1.8-3 1-4.7 1.4-1.7-2.5 2.1-2.8.4-5.3 1.2 0 1.7-.5 2.5-.7.8-5.1 3.4-8.9 5.7-12.9 1.1-.4.9.9 2 .5 1.2-.5 1.6-3 .5-4.2-1.4.3-1.2 1.8-1.9 2.5-1.3 0-1-2.2-2.2-2.3-4 2.8-5.7 7.4-6.5 12.6-1.5.3-1.7 1.6-2.7 2.3-5.2 16.6-7.6 22.7-12.7 39.4-1 .2-.8 1.4-1.6 1.7-.2 4.4-4.7 11.4-5.4 15.4-3.7-1 .5-13.2-3.3-14.9-3.1-10 3.7-11.4 4.3-20.7 3.6-5.4 4.8-5.8 6.3-12.7 6.2-10 9.8-21.9 16.3-31.8-.2-1.7.6-2.6.1-4.5 1.4-1.2 2.4-2.6 3.6-3.9-.6-2 1.1-2.3 1-3.9 4.7-5.3 8.1-11.5 9.8-19.1 3-3 5.2-8.9 7.9-13.6 1.4-2.4 3.8-3.1 3.2-6.9 1.1-.1 1.3-1 2.1-1.4 2.8-7.3 6.5-13.9 11.2-19.7 0-4.2 4.8-4.8 3.9-9.6 3.2-4.6 6.3-9.4 9.3-14.2-.3-1.3.1-2.1.3-3.1 3.8-2.1 5.2-6 6.5-10 12.6-2 8.2 10.2 8.2 18.1-1.1-.2-.9.7-1.8.6.9 5.5-4.5 8-2.7 13.2-1.9 1.7-4.6 4.1-2.7 7.6-1.5 1-2.3 2.5-3.7 3.5l.4 2.6c-4.2 5.8-6.4 13-9.7 19.5.1.6 0 1.4.6 1.4-1.1 1.9-2.8 3.4-4.2 5.1-.3 6.2-5 9.1-6.3 14.5.1 2.8-.2 5.1-.9 7.3-2.3.3-5-1.7-6.7.6.5 1.2 1.9 1.1 2.9 1.5-1.8 10.6-7.2 18.4-11.3 27.3-2.6-2.3.3-7.3-3.3-9.7-2.9 1-4.8 2.8-5.7 5.3.3 1.4 1.9.7 1.1 2.5 1.1-.2 2.2.4 3.5 1 1.3 3.9-2 5.6.2 9.1-2.4 4.1-3.2 9.5-7.7 12.1-2.2 4.7-5.7 8.5-8 13.2-1.1.4-1.4-.2-2.3-.1.4 5-8 5.9-4.5 11.2-6.5 12.6-7.5 14.8-11.2 29.5-1.3-.4-1.5-2.5-2.5-3.6m-8.5 29.8c-4.1 4.1-9.2 6.2-15.1 6.2-5.8 0-10.8-2.1-15-6.3-4.2-4.2-6.3-9.2-6.3-15 0-5.9 2.1-11 6.2-15.1s9.2-6.2 15.1-6.2 11 2.1 15.1 6.2 6.2 9.2 6.2 15.1c0 6-2 11-6.2 15.1M383.4 309c1 1.9-.6 4-1.1 5.8-.6-1-1.5-1.6-2.2-2.3.1-1.8.8-4.6 3.3-3.5m11.7 7.5-.2-1.5c1.3-.5 1.6 1.5.2 1.5m43.2-68.1c-.1.7-2.5 1.9-2.3-.1.9-.2 1.8-.3 2.3.1m-41.1 54.1c.4-7.6 7.5-11.4 5.9-19.4 5.8-5.9 6.1-16 12-21.7 2.9-6.3 6.8-11.9 8.6-19 5-4 5.4-11.4 10.3-15.4 7.3-14.5 17.7-26.6 26.5-40 1.3-.1 1.2-1.3 2.4-1.5 4.8-8.4 12.2-14.9 18.8-21.9 1.3.2.3.7.6 1.8-6.2 3-5.9 10.8-10.8 14.8l.4 2.6c-3.2 2.6-6.5 6.8-6 11.1-1.9 0-2.4 1-3.5 1.6-.7 6.9-7.6 9.1-7.5 16.6-3.4 1.7-5.7 4.1-4.8 9-2.7 1.7-2.3 5.8-5.8 6.9-.3 1.2.1 1.3.4 2.6-5.4 6.3-9.1 13.9-13.3 21.1.9 3.7 2.2 8.1.5 11.3-1.4.1-1.2-1.9-3.2-1.1-.5.2-.5.7-1 .9 5.2 7.5-7.6 8.7-6.8 16.1-.4.8-1.7.9-2.4 1.5.1.9.8 1 .7 2.2-3.9 1.6-3.9 5.8-3.1 10.3-2.7 1.8-5.7 3.2-5 7.5-1.1.4-.9-.9-2-.5-1 2.3 1 3.8 1.8 5-1.5.4-1.8 2-3.6 1.3-.2 1.6.3 2.9.4 5.2-1.3 1.4-4 1.6-4.4 3.6.2 1.1 1.1 1.1 1.4 2.1-1.5 1.5-1.4 4.3-4.7 4.4.8-5.5-2.5-9.6-4.6-13.7.7-1.9.1-4.5 1.8-5.3m62.4-5c.1 1.6-1.2 3.3-2.2 3-.1-1.6 1.2-3.4 2.2-3m-.1-1.1c.1-3.6.7-6.8 3.8-8.1 1.7-6.1 5.9-10.4 9.6-15 .6-.2.7.2.9.6-1.9 5.7-7.2 8.7-8.1 15.1-2.7 2.1-3.4 5.5-6.2 7.4m50.9-160.6-.3-2.2c1.9-.2 1.8-1.8 2.6-2.6-.1-1.2-1.2-1.1-1.1-2.5 1.4-.3 2.3 1.2 3.4-.1 1.3-.9.6-1.5.3-3.1 4-1.2 3.5-5.8 7.3-7.1-.4-1.1.5-1.4 0-2.6 2.6-1.8 4.8-3.9 5-7.5 2.5-.9 3.9-2.6 5-4.5-.2-1.6-1.3-2.3-.9-3.7.6-1 1.9.4 2.5-.7.7-.6.6-1.8.7-2.8 2.1-1 3.6-2.4 3.9-4.7 3.8-1.7 6-4.5 8-7.6 3.7-.1 4.2-3.4 7.7-1.8-.9 2.7-2.6 6.3-1.3 9.6-3.2 2.3-5.2 7-4 11.5-4.5 5.4-5.7 13.4-9.3 19.5-.1 1.2.8 1 .7 2.2-3.1 2.2-2.6 7.1-3.4 11.1-4 2.4-4.7 7.3-5.5 12.1-1.7.7-.9 2.2-1.7 3.6-.4.6-1.7.9-2 1.8-.8 2.1-.5 5-1.3 7-.5 1.3-2.1 2.1-2.5 3.4-.8 2.3-.7 3.9-1.8 6.3-2.2 5-4.6 10.7-5.2 17-1.4.5-2.1 1.5-2.6 2.6-.7 11.9-9.7 17.6-9.7 30.1-5.6 5.6-4.9 16-11.8 20.6-.2 1.8 1.2 1.3 1.2 2.9-1 .5-1-.4-1.9-.1-3.5 5.7-9.1 9.7-11.7 16-1.5.6-2.5 1.7-4.2 2.1-.3 4.5-3.2 7.1-6.6 9.3-.1-1.9 1.4-2.7 2.5-3.8-.8-5.2 4-6.2 2.9-11.7 1.8-.9 2.3-2.7 4.4-3.3.1-4.5 2.7-7.3 1.3-11.9l1.9-.3c2.1-3.6 5.2-6.5 5.6-11.4.9-.1 1.1-.7 1.8-1-1.4-6.2 6.1-10.1 4.9-16.2 6.4-2.9 1.4-13 8.8-15.6-1.4-7.2 3.7-9.6 3.4-16 1.1-1.9 3.4-4.6 3.8-8.1.3-3-.8-6.5-.6-9.4.1-1.5 1.7-3.7 1.5-5.1-.3-3.9-4.7-3.6-4.8-7.3-1-1.3-2.5-2-4.4-2 2.2-4.1 3.4-9.2 7.5-12m-17 154.6c1.4-.4 2.2 0 3.1.3-.8 3.1-3.9 4.6-5.4 7.2.3.5.7.9 1 1.4-2.4 4.7-5.6 8.8-7.9 13.6-1 .4-.9-.6-1.6-.5 1.4-2.3 1.6-6.5.4-8 1.2.4 1.9-.2 2.9-.8 1.6-5 5.8-8.1 7.5-13.2m-22.1 51.9c.1-1.1.1-2.1 1.6-2.1l.2 1.5c-.4.4-1 .6-1.8.6m32-40.8c6.4-3.8 10.6-9.2 14.9-14.6 8.1-5.3 13.6-12.5 25-15.3 0 .5.1 1.1.5 1.1-1.8 4.9-6.6 7.6-7.2 13.5-4.8 6.9-10.4 13.1-13.6 21.2-.7.4-1.6.8-2.1 1.4-.1 1.6.3 1.5.1 3-6.6 4.6-7.5 13.6-12.4 19.5-1.3.3-1.5-.9-2.7-.7-1.6.6-1 2.8-3.5 2-3 4.6-7.8 7.8-11.6 11.8.1 1.1.6 1.8 1.4 2.1 3-1.4 4.5-3.9 8-4.9-5.9 15.2-15.3 27.8-21.9 42.4-1.3 1.2-2.1 2.8-2.8 4.5-.9.5-1.2 1.5-2.4 1.8-.2 3.5-1.5 6.2-4.2 7.8-.1-.7-1.1-.3-1-1.4.4-1.7 3.3-1.5 3.3-3.5-.3-1.1-.9-1.7-1.8-2-3.1 2.9-4 7.3-7.3 10.1-.2-2.3 2.5-3.6.6-6.1 3.2-2 4-5.8 5.5-9.1 1.6-.5 1 1.9 2.5 1.5.7-1.5 2.4-2.2 3.3-3.5 0-1.2-.7-1.5-1.4-1.7-2-.1-1.3 1.9-2.7 2.3-1.7-1.9 1.3-2.6.4-5-1.2-1-1.8 1.3-3.7.9.3-2.7 1.7-4.5 1.6-7.4 0-1.4-1.8-.5-2.4-1.2-.2-2 1.2-.7 2.2-.7 1.5-1.8 2.5-4.1 2-7.5 2.8-2.7 2.9-7.3 3.7-11.5 4.8-6.5 6.4-15.5 10-23 1.7-1.4 2.5-3.4 2.5-6 4-8.5 13.4-13.1 17.2-21.8m-136.5 77.3c-2.5-3.7-5.7-6.5-7.6-11-4.4-3.1-2.5-5.8-7.2-8.5-4.8-11.8-14.5-17.1-18.6-29.9-.4-.8-1.3-1-2.1-1.2-.8-9.5-4-16.1-9.4-21.3 3.5-5.6-5.4-7.7-3.3-12.8-1.9-1.6-3.2-3.4-2.4-6.4-.5-1.5-1.6-2.2-3-2.6.1-4.7-3.2-7.8-3.8-11.2 5.7 2.9 9.2 8.6 14.5 11.9l.3 1.9c12 9.8 19.5 25.7 28.9 39 .9 4.3 3 6.8 5.4 9.1l.4 2.6c4 3.5 1.7 6.6 4.9 11.1.2 7.2 6.7 17.7 3.1 24.5.9 1.6.5 3.3-.1 4.8m-17-8c-3-3.9-6.2-8.2-9.5-13.4-1-1.5-.9-3-.7-5.2 6.6 6 10.4 15.8 16.7 22.2.1 1.2.9 1.5.8 2.9 1.9 2.1 4 4 4.5 8-4.8-3.2-7.7-9.1-11.8-14.5m10.2 82.5c-2.3-.3-3.6-1.9-4.4-4.3 2.7-.2 3.9 1.6 4.4 4.3m4 12.9c.5 2.6 1 2.6.7 5.1-4.9-1.1-7.6-5.1-10.9-8.2 3.9-2.1 6 3.6 10.2 3.1m-31.2-99.9c9.9 6.8 14.7 20.3 19.5 33.9-7.3-10.2-13.8-21.6-19.5-33.9m-4.4 39.7c3.6-.4 4.5-2.8 5.7-5-1.3-1.8-2.4 1.2-3.8.2-.3-1.3 1.6-1 1.2-2.4-2-2.2-4-5.7-7.5-4.6 1-4.2-2.9-10-6.3-12.3-.4-1.4.8-1.6.3-3.1-.6-1.2-3-.1-4.2-.5-1-1.3.6-4-2-3.5.3-2.7-1.1-5.8-3.5-6.3-5.6-13.2-12.6-24.6-17.9-38.3 4.5 1.8 6.1 7.4 10.1 9.9 3.6 9.9 10.3 15.7 15.7 23.1 1.4 5.6 4.4 9.2 7.8 12.1 3.4 9.3 10.3 14 12.6 24.7 1.4 1.9 3 4.9 1.4 7.4 3.1 2.3 6.1 7 6.9 11.1-.9 1-1.6-.9-2.7-.7-.7.9-1 2.3-.3 3.4 1.6.7 2.2-.6 3.2-1.2 1.3 3.8 4.2 7.4 5.5 12.4-9-6.7-17.2-14.4-22.2-26.4m-1.2-3.2c-1.8-.1-2.7-1.4-2.8-3.8 1.6-.4 2.1.8 3.5.6.3 1.5-.5 2.1-.7 3.2m-19.7-2.9c1.2-.2 2.5-.4 2.4 1.2-1.2.1-2.4.3-2.4-1.2m-8.3-10.9c-2.1 0 .3-3.3-1.3-4 .9-1.2 2.8 3 1.3 4m-5.1-6.1c.1-.6.4-1 .5-1.6 1.3 0 1.1 1.8-.5 1.6m17.6-36.1c-1.2-.1-2-.6-2.2-2 1.2.1 2 .6 2.2 2m9 13.1c-2.3-3.7-5.4-6.3-7.2-10.7 3.8 1.4 6.5 6.6 7.2 10.7m-36.4-49.3c-.5-4.1-3.4-4.9-5.2-7.2.6-1.7-1.2-3.5.1-4.9-2.1-1.7-4-5.6-1.9-8-2.3-4.6-4.4-11.3-3.5-16.5-2-5.7-3.7-10.9-4.6-16.7-.6-3.5-4.2-6.9-1.9-10.7 0-2.2-1.1-3-1.4-4.7 1.4-2.5-.6-5.6-.7-7.8 1.9-6.7 10-4.5 15.4-3.3.4 1.2 1.4 1.6 2.2 2.3-.7 4.8 2.6 8.1 1.4 12.6-2.2 1.2-4.4 3.5-6.4 5.8 4.4 15.9 10.9 29.1 16.6 42.2 1.2 1.7 3.5 1.8 5.3 2.7-.3 1.2-.5 2.5-1.4 3.2 4.6 7.2 8 15.4 10.3 22.3-1.1 3.9 1.1 8.8 3.4 10.9.4 5.3 3.6 6.7 3.9 11.2-1.9-1-3.9-2.1-3.4-5.2-.9-2.5-4.4-1.5-6.1-2.9-.9-1.8-.5-5.2-3-4.9.2-.8 1-1.3.8-2.4-.8-1.1-2.7-.8-3.6-1.8 1-3.8-3.1-3.1-4.8-4.6-.5-1.2.3-1.5 0-2.6-.8-1.2-2.3-1.4-4-1.3-1.4-4.2-5.1-5-7.5-7.7m-1.3 33.8c-.2-.3-.5-.5-.5-1.1.3-.3.8-.5 1.4-.6.3 1 .1 1.7-.9 1.7m-3.8-10.8c-.8-.2-1.7-.9-1-1.7.8.2 1.5 1.1 1 1.7m-3.6-7c-.8-1.1-1.5-2.2-3-2.2-1.1-5.6-5.7-6.5-6.3-12.7-4.7-1.8-4.6-10.1-8.6-12.8l-2.6.4c.2-3-.8-7.2-3.4-7.8.6-3.2-1.9-5.5-4.6-5.8-.7-1.2 1.4-2 0-2.6.8-1.3 2 .6 3.1.3 1.1 3.8 3.5 5.9 7 6.6 4.1 6.8 9.6 11.9 14.9 17.2-.2 8 6 16.6 6.1 24.4-.6-.5-1.1-1.2-2.1-1.2l-.5-3.8zm19.4-63.2c2.8 1.2 3 6 4.3 9.2-1.3-3-5.1-6.3-4.3-9.2m4.5 10.3c.6.5 1 1.3 1.1 2.5-.9-.2-1.8-1.6-1.1-2.5m6.4-15.7c-1.4-1.5-3.8-1.7-5-3.4.9-3.2-1.2-4.8-3.4-5.2.1-1.4 1.8-3.3.5-4.6 1.3-.8 3.5.9 5.1 1.2.8 3.7 4.6 4.9 6.7 7.4 2.7 3.1 3.8 8.1 8.5 9 3.5 4.7 6.9 9.6 11 13.6.4.5 1 .7 2 .5.3 1.3.3 2.4.1 3.4-5.3-.6-5.9-7.3-11-8.3-1.5-4.5-5.2-6-8.7-7.8-1.2-2.5-3.3-3.8-6.2-4 .4-.5-.2-1.6.4-1.8m-42-29.9c-.6-3.5.8-9.4-1.6-11.1 1.5-1.8.2-3.6.2-6.4-.1-1.6-2.2-.6-2.2-2.3 1.8-.2 2.4-4.6-.2-4.1 1.6-1.9 2.3-5.8.3-8.4-.4-1.4 1-1.5 1.2-2.4-3-5.8 2-9.7-.8-16.1 1.3-1.1 1.8-2.9 2.4-4.5-.1-1.1-.2-2-1.4-1.7 2.8-6.6 9.1-.7 14.3-.5 1.4 3.9 4.8 5 6.2 8.9 6.9 4.4 9.2 15 16.3 19.2.1 1 0 1.8-.4 2.3 2.2 1.8 5.8 4.9 4.6 8.4 7.2 5.3 7.8 16.2 14.7 21.3-.2.9-.9 1.6-1.2 2.4.4 1.3 1.5 1.8 2.3 2.7 4 10.6 11.1 20.7 15.2 32.6-4.2 0-2.9-7.3-8.4-5.6.1-4.4-2.4-7.6-6.7-7.4-1.2-1.5.3-1.9-.2-3.8-1.9-3.1-4.5-5.2-8-6-1-3-2.8-4.8-6.3-4.4-1.1-.8.3-1.2.1-2.3-1.7-1.5-3.1-3.5-5.8-3.7-.8-3.2-3.6-3.7-6.3-4.4-1.7-3.6-5.1-4.9-8.8-5.9-1.4 0-1.6 1-2 1.8-4.8-2.6-12.3-1.7-17.5 1.4m72.9 58.8c-1.2-.5-3-.2-3-2.2 1.7-.1 3 .2 3 2.2m1.9 2.8c.5 1.6-1.8 1.6-1.5-.2.7-.1.9.4 1.5.2m-94 85.5c-.3-1.1.1-1.7 1.3-1.7l.2 1.5-1.5.2zm20.5-7.5c-.4-.6-1.2-.8-1.1-2.1l3-.4c.5 1.7-.5 2.3-1.9 2.5M558.1 83.3c-1.7-.1-2.8-.9-3.1-3 1.5.3 3.3 1.9 3.1 3M555 234.9c-1.3-.4-2.9-.5-4-1.3.8-.6 1.8-1.1 1.1-2.8-3.7-1.4-8.9-.7-12.1-2.8-3.6 2.4-9.2 1.6-13.7 2.3-.2 4.4-5.4 5-6.7 8.5-.3-.5-.9-.6-1.6-.5-.5.5.1 1.8-.9 2-1.4.2-1.3-1.4-3.1-.7-.8 2.5-3.5 3.5-3.6 6.6 3.6 1.2 5.4-4.2 9.9-4.4.5-.7.6-1.8 1.2-2.4 5.2-2.1 8.8-5.3 14.6-6.2 18-3 19.4 17.1 16.2 31.7-1.6-5.1-7.7-4.9-9.9-.5-1.3-.4-2.7-.6-4.2-.5-2.2 2.4-6.5 3.3-7.4 6.7-4.9 1.6-6.6 5.7-10.2 8.2-1.2.3-2.1.2-3 .1-2.4 4.8-7.1 7.9-10 12.4-.5-.4-1.4-.2-2.3-.1-.4 3.2-3.5 4.4-5.1 6.8-1-.4-2.3-.4-2.9-1.5 1.9-2.1 1.2-6.2 3-8.4.1-1.4-1-1.3-1.1-2.5 1.5-2.6 3.4-5.7 1.1-8.5-5 .1-4.1 4.6-7 6.3 0 2.2 2.3 1.3 2.4 3.4-1.6-.1-1.4-1.3-3.1-.3-.3 2.2-.3 4.6-3.1 5-.8 0-.9-.9-1.3-1.3.3-3.5 3.5-4.9 2-9.7 4.8-7 6.6-16.2 11.5-23.2 3.6-1 3.6-4.8 6.7-6.2-.1-1.8-1.5-1.8-1.6-3.5 2-6.2 6.5-10.5 7.3-17.7 1.1-.3 2-.7 2.9-1.2-.3-1.3-.7-1.3-.4-2.6 4.4-3.5 7.6-9.5 6.4-16-4.3-.2-5.2 2.7-9.1 2.4.1-1.3.8-2.1.2-3.8 1.9-2.1 3.1-4.7 3.4-8 4.7-10 7.6-21.5 13-30.9.3-6.4 2.8-11.1 5.7-15.5 0-4.4 2.9-6.7 4.2-10-.9-3.6.5-5.3 2.4-6.8.1-.9.3-1.8-.1-3 4.2-3.9 3.2-11.7 6.8-16.1-.2-5.2 2.7-8.1 4.8-11.6-.3-1.5.2-2.5.2-3.8 1.3-.7 2.1-1.8 3-2.7.4-8.3 5.4-13.1 4.8-22.2-.3 0-.5-.3-.5-.7-6.4-2.2-11.7-1.8-15.9 2.2-1.3 1.3-1.7 3.3-3.1 4.6-2.4 2.2-5.4 3.2-7.6 5.2-.1.7 0 1.6-.5 2-1.2.6-2.3 1.3-3.5 2-1 4.2-3.9 7-6.5 10 .2 6.2-5.8 7.8-9 11.5l.3 1.9c-5.6 5.7-11.3 13-15.8 19.2-1.7 2.4-2.5 4.4-3.1 7.2-3 1-3.1 5.1-4.3 6.7-2 2.6-7.6 4.1-9.2 7-3.3.5-5 2.2-7.5 3.3-.2 1.1-.6 2-.7 3.1-1.4.9-2.6 2-3.3 3.5-5.2 1.9-4.6 8-10.4 9.4-3.8 5.6-7.3 11.5-13.7 15.2.1 1.2-.6 1.8-.3 3.1-6.8 5.6-8.8 14.8-15.2 20.7-2 7.4-7.8 12-11.8 17.9-2 8.6-8.8 13.7-12.1 21.4l.4 2.6c-1.5 2.6-4.7 3.9-4.6 7.8-2.3 1.6-3.2 4.2-3.5 7.3-4.1 4.1-6.3 9.6-7.2 16.1-2.9 1.6-2.8 5.4-5 7.5-.1 1.4 1.4 2.1 0 2.6-3.8-1.1-4.1-6.9-9.2-6.2-1.2.3-1.1 1.6-2.4 1.8-1.1-.1-1.2-1.6-2.8-1.1-3.8 3.7-1.5 9.1-1 14.1.4 4.5-.4 9.9-.2 14.8.2 3.4 2 6.6.2 9.4-7.3-11.9-14.3-25.5-21.4-36.3-.4-7.6-7.1-14.2-8-21.9-.7-.9-3.2.6-3.4.1.3-1.2 2.1-1.3 1.9-2.9-1.8-.9-.9-2.6-1.5-5.1-2-1.5-3.2-4-4.6-6.1.1-.9 1.3-1 .8-2.4-2.7-2.4-2.5-6.9-6.4-8.2.3-4.2-1.1-9.5-4.9-10.6.2-1.1.8-2.1.2-3.8-.5-.7-1.5-.7-2.1-1.2-.5-1.2.3-1.5 0-2.6-5.5-6.7-7.9-17.3-14.2-22.9-.1-.9.5-1.2.1-2.3-3.5-3.4-4.4-7.6-6.7-12.3-1.6-.6-3-1.3-4.4-2-3.1-9.8-9.6-15.1-13.9-23.3-2.2.1-2.9-2-4.5-2.8-.8-.9-1.6 1-2.9.8-.5-1 .4-1 .1-1.9-1.8-.8-4-1.1-6.2-1.4-1.9 2-5 3.4-8.6 3.1-1.3 3-5.2 4-5.3 7.9.8 1.2 1.8-.4 2.7.4-.7 1.2-.4 3.3-1.3 4.3-.3-1.2-.8-2.2-2.2-2-1.6 1.3-.3 2.8.9 3.7-.9 2.1.5 5.9-2.5 6.4.8 3.1-2.4 4-1.1 8.5.5 1.1 2 .8 2.5 1.9-1.1.9-2.8 1.5-2.5 3.4 1 .5 1.5 1.5 1.9 2.8-.1 1-1.6 1-2 1.8-.6 4 1.4 9.4-.5 12.5 3.3 2.5 5 10.5 2.7 14 2.7 3-1.2 7.2 2.4 9.1-2.4 1.9-1.8 5.9-2.9 8.7 5.2 5.3 2.9 20.5 7.1 28.8-.9 2.9 1.5 7.3 1.5 10.4-2.6-1.3-4.3-3.7-6.1-5.9-1.4-.1-2.4 1.9-3.7.9.2-1.4 1.5-1.9 1.4-3.6-4.9-9-13.7-12.8-18.3-22.3-3.1-.8-4.4-3.8-5.5-7.2-1.9-.4-3.1-1.8-4.2-3.2-2.4.9-3 .4-4.9-.1-5.4 7.6 6.6 12.9 6.6 20.2.8.5 1.9.8 2.2 2 3.5 8 8.3 14.3 11.8 22.1.7.7 1.5 1.2 2.2 2 .6 5.1 4.6 5.7 5 11 4 2.9 4.9 9.9 9 12.7 1.5 6.2 5.7 8.9 7.1 15.2 3.2 1.8 4.4 6.1 6.6 9.3.4 6.6 6.4 8.2 6.5 13.8-2.1-1.5-4.5-2.5-5.7-5.2-5.1 1-6.3-3-9.7-4.3 0-7.3-9.2-4.5-14-2.6.6 2.3 2.2 3.2 4 4 1.3 0-.1-2 .8-2.4 2.4 1.3 4.9 2.1 7.6 3.1 5.9 2.1 11.7 8.5 16.7 10.9.7.4 1.7 0 2.3.4.3.2.4 1.5 1.1 2.1 2.3 2.1 5.3 1.6 4.1 5.1 2.6 3.8 6.6 8 7.5 12.6-6.2-.5-7.2-6.2-11.1-9-1.7.5.9 2.3-.7 2.7-.4-2.5-2.9-2.3-2.7-5.7-.6-.4-1.7-.1-2.7 0-.1-.7.9-.6.5-1.6-3.7-1-4.5-5.8-9.1-5.5-.1-1.9-1.5-2.1-2-3.5-2.1 1-4.2-.1-4.6 2.2-1.4-.2-1.6-2-2.3-3.1.6-.5 1.7-.7 1.2-2.1-2.6-.5-4.1-3.9-4.3-6.2-2.6 1.1-3.6 1.7-7 1.4-.7.9.9 1.9-.4 2.7-1.4-1.3-2-3.6-2.3-5.3-.4 0-1 .2-1.2-.2-2.1.9-1.7 2.9-2.9 3.8 1.8 3 6.1 2.7 7 6.9 3.4 1.3 6.2 3.4 8.8 5.9-.6 2.4 1.5 3.9 3 4.9-.1.8-.8 1.2-.4 2.3 1.4 1.1 2 3.2 2.3 5.7.9 1 1.9 1.9 2.7 3l.3 2.2c3.3 1.9 5.1 9.7 9.4 7.4-2-2.9-5.8-4.3-5.1-9.5-1.1-.6-2.7-.5-3.3-1.8.1-2.3 3.3-.1 3.4-2.4-2.7-.4-4.6-1.8-5.9-4.1 6.7-2 10.9 3.1 14.5 6.6 1.2 0 3.1-.9 3.4.3.3 1.5-.4 2.2.5 3.3 1.4.1 2.7.5 4.2.5 1.3 2 1.5 3.1 2 5.8.4 1 2 .6 2.5 1.5 1.3 4 4.7 5.2 7.5 7.3-.6.8.1.9.3 1.8 2.7 1.3 4.2 4.1 6.5 5.9 2.7 7.6 11.4 10.9 14.8 19.1 6.1 5.3 10 13.4 15.6 19.3.2 1.5 2.1 3.1 1.4 4.3-6.7-3-13.8-5.4-18.6-11-1.3-4.8-5.5-5.9-8.7-8.2-2.2-4.2-5.3-7-8.6-9.7-2.7-9.7-10.7-12.5-14.6-20.6-1.7-.6-3.3-1.2-4.2-2.8.3-.7 1.9-.5 1.2-2.1 0-1.1-2 .6-2-.5.7-2.4-1-5-4-4 .3 2-2.3 3-2.3 4.9 0 4.3 3.5 3.7 5.4 6 .7.9.6 2.2 1.2 3.2 2.9 4.5 8.3 7.4 8.8 11.2 1.4.4 3.4 2.2 2.5 4.2-8.6-4.6-14.1-13.3-22.6-18-5.7-6.5-11.2-13.3-18.4-17.8-2.8-7.5-10.2-8.8-13.2-15.9-.7-.5-1.8-.6-2.4-1.2-3.4-4.8-7.2-9.2-11.9-12.3-.5-2.9-1.8-4.7-4.1-5.1-1.2.8 0 3.3-1.3 4-2-1.8-.4-4-.1-6 2.5-.4 4.3.1 6.9.5 3.6 4.1 9.6 4 14.1 5.9 1.9-2.8-.5-5.9-1.6-8.5-3.3.5-4-2.3-5.8-3.7-4 .3-8.4-3.7-13.2-2.3-1.7-1.5-4.1-2.1-6.1-3.3-3.1 1.4-6.6 1.7-10 4.1-.6.9.1 2.7.2 4.1 2.7 1.1 3.9 4.1 7.4 4.2 1.9 1-.9 2.2.5 3.7.3 1.1 2 .2 2.4 1.2-.7 2.8 2.5 3.5 4.4 4.3.5 1.5-.3 2 .1 3.4 2.6.7 3.6 3.5 5.6 4.9 1.2.2.6-1.1 1.3-1.3.3-1.4-2.2-1.4-1.1-2.5 2.8 2 5.2 4.6 5.9 9.4 1.6.9 3.9 1 5.5 1.9-.3 1.2-1.5 1.8-1 3.5 2.8 1 3.9 5.4 8 3.4.5 2 1.4 3.4 2.5 4.6-.5 3.5 1.3 5.3 5.1 4.2 3.1 1.3 4.3 5.1 7.3 6.5l.3 2.2c1 .5 2.6.3 2.9 1.9-.1 1.5-1.7 2.4-.6 3.9 1.6.5 2.7-.8 4.2.2-1.2 3.8 3.6 5.7 5.8 3.7 2.4.5 3.2 3.2 2.3 5.7 1 2.5 4.4 1.7 4.9 5 3.4 1.3 7.5 1.8 8.5 6.4l3-.4c1 2 2.4 3.5 3.8 5.1 2.1.1 2-1.6 3.6-.9 1.3 1.5-1 3.2.7 4.8 1.8.2 1.4-1.4 3.2-1.2-1.8 4.3 3.1 6.8 6.4 5.5 6 7.9 14.3 12.7 21.6 18.9.5.4.6 1.2.7 2.2 9 8.4 20.1 14.1 29.9 21.5l.4 2.6c1.7 1.2 2.8 3.3 3.9 5.2h9.5c3.4 0 6.2-2.8 6.2-6.2v-49.7c0-3.4-2.8-6.2-6.2-6.2h-12c-3.4 0-6.2-2.8-6.2-6.2v-17.5c0-3.4 2.8-6.2 6.2-6.2h47c3.4 0 6.2 2.8 6.2 6.2v79.6c0 3.4 2.8 6.2 6.2 6.2h10.3c3.4 0 6.2 2.8 6.2 6.2v2.1c1.8-1.4 2.4-3.7 4.2-5.4.9-.1 1-.8 2.2-.7 7.6-8.4 13.7-18 21.2-26.4 1.7 0 2.1-1.1 3.2-1.6 1.1-3.6 3-6.6 4.2-10 7.1-1.3 5.3-9.3 10.4-12 1.2-5.8 5-9.7 8.2-14-.1-3.6 2.7-7.3 6.3-9.2-.6-4.4 5.3-6 4-11.9 2.2-1 2.8-3.2 5.1-4.1-.1-3.6 1.7-5.8 3.8-7.7-1.5-3.2 1.1-4.2 3-5.7.5-4.2 3.6-6.3 3.4-11.1 8.3-2.8 6-12.3 12.8-16.2.8-5.7 3.4-10.1 5.9-14.4-.2-.9-.8-1.3-.7-2.5 2.3-3.6 4.4-7.3 6.4-11.1-.2-1.2-1.3-1.3-1.2-2.9 1.3-.5 1.7.4 3 0 .8-3 1.3-6.1 3.4-8-.1-1.8-2.6-.3-2.3-2.7 1.2-.3 1.7.4 3-.1.8-3.1 1.7-6 2.9-8.7-.2-1.3-1.3-1.5-1.5-2.8.5-1.3 1.4-2.3 3-2.7l-.4-3c3.7-6.1 5.2-13.7 6.8-21.4-1.5-2.2 1-3.9-.5-6 2.3-2.3 4.6-5.6 2-9.7 2.1-.9.5-4.5 1.4-6.2-1.3-7.2-4.5-12.3-5.9-19.2"/><path class="st0" d="M448.6 267.7c3.2-.7 4.8-7.2 1.1-8.1-1.8 2.3-.9 4.8-1.1 8.1M337.3 410.4c.9-4-4.6-.3 0 0M448.3 268.1c-.9.4-.5 1.8-.3 3.1 2 .2 2.1-3.2.3-3.1M462.7 252.5c-.5-.2-1.1-.3-1.9-.1l.3 1.9c1.4 0 1.3-1.1 1.6-1.8M449.2 277.4l-1.1.2c-.3.5-.3 1.1-.1 1.9 1.4.1 1.6-.8 1.2-2.1M337.5 411.9c-.6 1.7.2 4.9 2.2 4.6 1-1 1.3-2.6 1.3-4.3-.7-.7-2-.6-3.5-.3M439.2 307.9c1.3-.5.3-2.6-.7-2.5-.7.5-1.1 3 .7 2.5"/><path d="M86.5 430.1h10.9v68.4H86.5zM147 498.5l-19.6-32.7-7-12.5v45.2h-10.3v-68.4h8.4l19.1 33.2 6.7 12.6v-45.8h10.3v68.4zM200 451.3c0-7.2-3.5-11.5-11.2-11.5h-10.6v48.9h10.6c7.7 0 11.2-4.3 11.2-11.4v-26zm-10.3 47.2h-22.4v-68.4h22.4c14.6 0 21.2 9 21.2 20.1v28.1c-.1 11.1-6.6 20.2-21.2 20.2M222.5 430.1h10.9v68.4h-10.9zM246.2 498.5v-68.4h36.9v9.7h-26v18h18.7v9.2h-18.7v21.7h26v9.8z"/><path d="M253.5 545.1c0-5.9-2.9-8.8-8.5-8.8h-11.5v21.2h12.7c5.5 0 7.3-3.3 7.3-7.5v-4.9zm-.6-30.2c0-4.3-1.6-7.6-7.3-7.6h-12.1v20.5h10.9c5.6 0 8.5-3 8.5-8.7v-4.2zm-6.8 51.7h-23.6v-68.4h23c13.5 0 18.1 6.7 18.1 16.8v2.6c0 8.1-3.5 12.4-10.2 13.7 7.7 1.3 11.1 6.4 11.1 13.9v4.6c0 10.1-4.9 16.8-18.4 16.8M307.5 517.9c0-7-3.5-11.9-11.2-11.9-7.6 0-11.1 4.9-11.1 11.9v29c0 7 3.5 11.9 11.1 11.9 7.7 0 11.2-4.9 11.2-11.9v-29zm-11.1 50.4c-15.3 0-22.1-9.5-22.1-22.2v-27.5c0-12.5 6.8-22.1 22.1-22.1 15.4 0 22.1 9.5 22.1 22.1v27.5c-.1 12.7-6.7 22.2-22.1 22.2M352.1 568.3c-12.9 0-22.1-7.2-22.1-19.8v-50.3h11v50.1c0 7 3.5 10.8 11.1 10.8 7.7 0 11.2-3.8 11.2-10.8v-50.1h10.9v50.3c0 12.6-9 19.8-22.1 19.8M423.7 566.6l-19.6-32.7-7-12.5v45.2h-10.3v-68.4h8.5l19.1 33.3L421 544v-45.8h10.3v68.4zM476.7 519.5c0-7.2-3.5-11.5-11.2-11.5h-10.6v48.9h10.6c7.7 0 11.2-4.3 11.2-11.4v-26zm-10.3 47.1H444v-68.4h22.4c14.6 0 21.2 9 21.2 20.1v28.1c0 11.2-6.6 20.2-21.2 20.2M494.4 509.9v-9.1h-3.3v-1.6h8.5v1.6h-3.3v9.1h-1.9zm9-8.7zm8.1 8.7v-8.7h-.1l-3.4 8.7-6.6-10.7h2.9l3.1 7.9 3-7.9h2.9v10.7h-1.8zM497.9 559.8H492v7.3h5.9v-7.3zm25-1.4V550c0-5.7-3.7-9.2-9.1-9.2-5.5 0-9.2 3.5-9.2 9.2v8.3c0 5.7 3.7 9.1 9.2 9.1 5.4.1 9.1-3.3 9.1-9m-6.2 1.2c0 1.8-1.1 3.1-2.8 3.1-1.8 0-2.9-1.2-2.9-3.1v-10.7c0-1.8 1.1-3.1 2.9-3.1 1.7 0 2.8 1.2 2.8 3.1v10.7zm24.2-12.1v-6.4c-3.7-.9-6.4.7-7.6 5.3l-.4-5.1h-5.4V567h6.5v-16.1c0-2.4 1.8-4.2 6.9-3.4m23.4-6.8c0-.5 0-1.1-.2-2.3h-4.6c0 1.8-.5 3-3.1 3-.5 0-1.7-.5-3.7-.5-5.1 0-9 3.6-9 8.1v.2c0 3 1.4 5.8 3.9 6.8-2.5.3-4.3 2.4-4.3 4.3 0 1.7 1.1 3.3 3.5 4.1-2.6.8-3.9 2.6-3.9 4.5v.5c0 3.8 4.4 6.4 10.3 6.4 6.5 0 10.2-3.5 10.2-8v-.4c0-4.1-2.8-6.8-9.5-6.8-4.2 0-5.4-.6-5.4-1.7 0-.9.8-1.8 2.2-1.8.5.1 1.6.2 2.2.2 5.6 0 9.1-3.2 9.1-7.8v-.5c0-2-.9-3.8-2.5-5.1.8.4 1.4.5 2 .5 1.4-.3 2.8-1.5 2.8-3.7m-8.6 9.2c0 1.7-1.1 3.1-3 3.1s-3-1.4-3-3.1v-1.4c0-1.8 1.1-3.1 3-3.1s3 1.3 3 3.1v1.4zm1.8 18.2c0 1.7-1.3 2.9-4.4 2.9-3 0-4.5-1.2-4.5-2.8v-.5c0-1.7 1.4-2.7 4.5-2.7 3.3 0 4.4 1 4.4 2.6v.5z"/></svg>