<svg width="18" height="18" fill="none" xmlns="http://www.w3.org/2000/svg"><g id="mail-02"><path id="Icon" d="M16.125 13.5 11.143 9M6.857 9l-4.982 4.5M1.5 5.25l6.124 4.287c.496.347.744.52 1.013.587.238.06.488.06.726 0 .27-.067.517-.24 1.013-.587L16.5 5.25M5.1 15h7.8c1.26 0 1.89 0 2.371-.245.424-.216.768-.56.984-.984.245-.48.245-1.11.245-2.371V6.6c0-1.26 0-1.89-.245-2.371a2.25 2.25 0 0 0-.983-.984C14.79 3 14.16 3 12.9 3H5.1c-1.26 0-1.89 0-2.371.245a2.25 2.25 0 0 0-.984.984C1.5 4.709 1.5 5.339 1.5 6.6v4.8c0 1.26 0 1.89.245 2.371.216.424.56.768.984.984C3.209 15 3.839 15 5.1 15Z" stroke="#F6F6F6" stroke-width="1.5" stroke-linecap="round" stroke-linejoin="round"/></g></svg>