<?xml version="1.0" encoding="utf-8"?>
<!-- Generator: Adobe Illustrator 19.2.1, SVG Export Plug-In . SVG Version: 6.00 Build 0)  -->
<svg version="1.1" id="layer" xmlns="http://www.w3.org/2000/svg" xmlns:xlink="http://www.w3.org/1999/xlink" x="0px" y="0px"
	 viewBox="0 0 652 652" style="enable-background:new 0 0 652 652;" xml:space="preserve">
<style type="text/css">
	.st0{fill:#231F20;}
</style>
<g>
	<path d="M21.7,412.6h13.1c3.2,0,5.5,0.8,7,2.3c1,1,1.6,2.4,1.6,4.1v0.1c0,3-1.7,4.7-3.9,5.7c3.1,1,5.1,2.8,5.1,6.3v0.1
		c0,4.4-3.6,7.1-9.7,7.1H21.7V412.6z M33.1,422.8c2.2,0,3.4-0.7,3.4-2.2v-0.1c0-1.4-1.1-2.2-3.2-2.2h-4.6v4.5H33.1z M34.1,432.5
		c2.2,0,3.4-0.8,3.4-2.3V430c0-1.4-1.1-2.3-3.5-2.3h-5.4v4.7H34.1z"/>
	<path d="M46.9,425.4L46.9,425.4c0-7.4,5.9-13.4,13.8-13.4c7.9,0,13.7,5.9,13.7,13.2v0.1c0,7.3-5.9,13.3-13.8,13.3
		C52.8,438.7,46.9,432.8,46.9,425.4 M67.3,425.4L67.3,425.4c0-3.8-2.7-7-6.6-7c-3.9,0-6.5,3.1-6.5,6.8v0.1c0,3.7,2.7,6.9,6.5,6.9
		C64.7,432.3,67.3,429.1,67.3,425.4"/>
	<path d="M77.3,425.4L77.3,425.4c0-7.4,5.9-13.4,13.8-13.4c7.9,0,13.7,5.9,13.7,13.2v0.1c0,7.3-5.9,13.3-13.8,13.3
		C83.2,438.7,77.3,432.8,77.3,425.4 M97.6,425.4L97.6,425.4c0-3.8-2.7-7-6.6-7c-3.9,0-6.5,3.1-6.5,6.8v0.1c0,3.7,2.7,6.9,6.5,6.9
		C95,432.3,97.6,429.1,97.6,425.4"/>
	<polygon points="108.5,412.6 115.6,412.6 115.6,422.9 124.4,412.6 132.9,412.6 123.2,423.6 133.2,438.2 124.7,438.2 118.2,428.7 
		115.6,431.5 115.6,438.2 108.5,438.2 	"/>
	<path d="M132.9,434.4l3.9-4.7c2.5,2,5.3,3.1,8.3,3.1c1.9,0,2.9-0.6,2.9-1.7v-0.1c0-1.1-0.8-1.6-4.3-2.4c-5.4-1.2-9.6-2.8-9.6-8
		v-0.1c0-4.8,3.8-8.2,9.9-8.2c4.3,0,7.7,1.2,10.5,3.4l-3.5,5c-2.3-1.6-4.9-2.5-7.2-2.5c-1.7,0-2.6,0.7-2.6,1.6v0.1
		c0,1.2,0.9,1.7,4.4,2.5c5.9,1.3,9.5,3.2,9.5,8v0.1c0,5.2-4.1,8.3-10.3,8.3C140.4,438.6,136.1,437.2,132.9,434.4"/>
	<path d="M169.5,425.3L169.5,425.3c0-3.5,2.8-6.2,6.2-6.2c3.4,0,6.2,2.7,6.2,6.1v0.1c0,3.4-2.8,6.1-6.2,6.1
		C172.3,431.5,169.5,428.7,169.5,425.3"/>
	<polygon points="203.4,418.8 195.8,418.8 195.8,412.6 218.2,412.6 218.2,418.8 210.5,418.8 210.5,438.2 203.4,438.2 	"/>
	<path d="M219.3,425.4L219.3,425.4c0-7.4,5.9-13.4,13.8-13.4c7.9,0,13.7,5.9,13.7,13.2v0.1c0,7.3-5.9,13.3-13.8,13.3
		C225.2,438.7,219.3,432.8,219.3,425.4 M239.6,425.4L239.6,425.4c0-3.8-2.7-7-6.6-7c-3.9,0-6.5,3.1-6.5,6.8v0.1
		c0,3.7,2.7,6.9,6.5,6.9C237,432.3,239.6,429.1,239.6,425.4"/>
	<polygon points="255.6,428.6 245.8,412.6 253.9,412.6 259.2,421.9 264.5,412.6 272.4,412.6 262.7,428.5 262.7,438.2 255.6,438.2 	
		"/>
	<path d="M271.4,434.4l3.9-4.7c2.5,2,5.3,3.1,8.3,3.1c1.9,0,2.9-0.6,2.9-1.7v-0.1c0-1.1-0.8-1.6-4.3-2.4c-5.4-1.2-9.6-2.8-9.6-8
		v-0.1c0-4.8,3.8-8.2,9.9-8.2c4.3,0,7.7,1.2,10.5,3.4l-3.5,5c-2.3-1.6-4.9-2.5-7.2-2.5c-1.7,0-2.6,0.7-2.6,1.6v0.1
		c0,1.2,0.9,1.7,4.4,2.5c5.9,1.3,9.5,3.2,9.5,8v0.1c0,5.2-4.1,8.3-10.3,8.3C278.8,438.6,274.5,437.2,271.4,434.4"/>
	<path d="M308,425.3L308,425.3c0-3.5,2.8-6.2,6.2-6.2s6.2,2.7,6.2,6.1v0.1c0,3.4-2.8,6.1-6.2,6.1S308,428.7,308,425.3"/>
	<polygon points="341.9,418.8 334.2,418.8 334.2,412.6 356.7,412.6 356.7,418.8 349,418.8 349,438.2 341.9,438.2 	"/>
	<polygon points="359.8,412.6 380.3,412.6 380.3,418.6 366.8,418.6 366.8,422.5 379.1,422.5 379.1,428.1 366.8,428.1 366.8,432.1 
		380.5,432.1 380.5,438.2 359.8,438.2 	"/>
	<path d="M383.1,425.4L383.1,425.4c0-7.5,5.7-13.4,13.5-13.4c5.2,0,8.6,2.2,10.8,5.3l-5.3,4.1c-1.5-1.8-3.1-3-5.6-3
		c-3.6,0-6.1,3-6.1,6.8v0.1c0,3.8,2.5,6.8,6.1,6.8c2.7,0,4.2-1.2,5.8-3.1l5.3,3.8c-2.4,3.3-5.7,5.8-11.3,5.8
		C389,438.7,383.1,433.1,383.1,425.4"/>
	<polygon points="410.6,412.6 417.7,412.6 417.7,422.1 426.8,422.1 426.8,412.6 433.9,412.6 433.9,438.2 426.8,438.2 426.8,428.4 
		417.7,428.4 417.7,438.2 410.6,438.2 	"/>
	<path d="M449.2,425.3L449.2,425.3c0-3.5,2.8-6.2,6.2-6.2c3.4,0,6.2,2.7,6.2,6.1v0.1c0,3.4-2.8,6.1-6.2,6.1
		C452,431.5,449.2,428.7,449.2,425.3"/>
	<polygon points="476.9,412.6 484.4,412.6 490.5,422.5 496.6,412.6 504.1,412.6 504.1,438.2 497.1,438.2 497.1,423.5 490.5,433.5 
		490.4,433.5 483.9,423.5 483.9,438.2 476.9,438.2 	"/>
	<path d="M507.8,425.4L507.8,425.4c0-7.4,5.9-13.4,13.8-13.4c7.9,0,13.7,5.9,13.7,13.2v0.1c0,7.3-5.9,13.3-13.8,13.3
		C513.6,438.7,507.8,432.8,507.8,425.4 M528.1,425.4L528.1,425.4c0-3.8-2.7-7-6.6-7c-3.9,0-6.5,3.1-6.5,6.8v0.1
		c0,3.7,2.7,6.9,6.5,6.9C525.5,432.3,528.1,429.1,528.1,425.4"/>
	<path d="M539,412.6h12.1c3.9,0,6.6,1,8.3,2.8c1.5,1.5,2.3,3.4,2.3,6v0.1c0,3.9-2.1,6.5-5.3,7.9l6.1,8.9h-8.2l-5.2-7.7h-0.1h-3v7.7
		H539V412.6z M550.8,424.9c2.4,0,3.8-1.2,3.8-3v-0.1c0-2-1.5-3-3.8-3h-4.7v6.1H550.8z"/>
	<polygon points="565.3,412.6 585.8,412.6 585.8,418.6 572.3,418.6 572.3,422.5 584.6,422.5 584.6,428.1 572.3,428.1 572.3,432.1 
		586,432.1 586,438.2 565.3,438.2 	"/>
	<rect x="21" y="376.9" width="565" height="17.1"/>
	<path class="st0" d="M576.9,345.1c0,8.6-7,15.6-15.6,15.6c-8.6,0-15.6-7-15.6-15.6c0-8.6,7-15.6,15.6-15.6
		C569.9,329.5,576.9,336.5,576.9,345.1 M155.6,223c-12.1-17.2-35.6-18.3-49.2-18.3H24.4v153.2h84.9c9.9,0,41.1,0,52.2-20.2
		c5.7-9.9,5.7-26.3-0.2-36.8c-7.4-13-15.6-16.3-26.3-20c13.2-4.5,20.8-9.3,25.5-23.6C163.3,248.1,162.8,233.1,155.6,223 M76.7,263.1
		v-24.9h15c9.7,0,15.7,3.3,15.7,12.5c0,10.1-6,12.4-15.7,12.4H76.7z M76.7,324.8v-24.9h17.1c9.7,0,15.8,3.3,15.8,12.4
		c0,10.1-6,12.5-15.8,12.5H76.7z M218.7,357.9l8.5-18.5h55.2l8.5,18.5h56.5l-90.2-153.1h-4.8l-90.2,153.1H218.7z M254.6,278.6
		l13.3,28.8h-26.3L254.6,278.6z M572,319.3l17.5-114.4l-56.5-0.1l17.2,114.5H572z M609.1,204.9c-6.6,0-11.9,5.2-11.9,11.6
		c0,6.6,5.3,11.7,11.9,11.7c6.7,0,11.9-5.1,11.9-11.7C621,210,615.8,204.9,609.1,204.9L609.1,204.9z M609.1,207.2
		c5.2,0,8.9,4.2,8.9,9.3c0,5.2-3.8,9.3-8.8,9.3c-5.2,0-9.1-4.1-9.1-9.3C600.1,211.4,603.9,207.2,609.1,207.2L609.1,207.2z
		 M607.3,217.9h1.3c1.5,0,2.2,0.6,2.4,1.8c0.3,1.3,0.6,2.3,0.9,2.8h2.9c-0.3-0.3-0.5-1.1-0.8-2.8c-0.4-1.6-1-2.5-2.1-2.8v-0.1
		c1.4-0.4,2.4-1.4,2.4-2.8c0-1.1-0.5-2-1.1-2.5c-0.8-0.6-1.8-0.9-4-0.9c-1.9,0-3.4,0.2-4.4,0.4v11.5h2.7V217.9z M607.3,212.7
		c0.3-0.1,0.8-0.1,1.5-0.1c1.7,0,2.5,0.7,2.5,1.7c0,1.2-1.2,1.7-2.7,1.7h-1.3V212.7z M470.5,302.5l2.9,55.4h49.8l-4.6-153h-3.8
		l-75.3,59.4l-75-59.4h-3.8l-4.6,153h49.8l2.9-55.4l30.7,24.9L470.5,302.5z"/>
</g>
</svg>
