<svg width="535" height="100" viewBox="0 0 535 100" fill="none" xmlns="http://www.w3.org/2000/svg">
<g filter="url(#filter0_d_17_463)">
<rect x="18" y="14" width="499" height="64" rx="32" fill="#4F2EE8"/>
<path d="M167.914 52L172.522 39.4H175.114L179.722 52H177.274L176.266 49.084H171.352L170.326 52H167.914ZM171.982 47.284H175.636L173.8 42.046L171.982 47.284ZM181.165 52V39.4H185.467C186.943 39.4 188.155 39.664 189.103 40.192C190.063 40.708 190.771 41.44 191.227 42.388C191.695 43.324 191.929 44.428 191.929 45.7C191.929 46.972 191.695 48.082 191.227 49.03C190.771 49.966 190.063 50.698 189.103 51.226C188.155 51.742 186.943 52 185.467 52H181.165ZM183.469 50.02H185.359C186.415 50.02 187.249 49.852 187.861 49.516C188.473 49.168 188.911 48.676 189.175 48.04C189.439 47.392 189.571 46.612 189.571 45.7C189.571 44.8 189.439 44.026 189.175 43.378C188.911 42.73 188.473 42.232 187.861 41.884C187.249 41.536 186.415 41.362 185.359 41.362H183.469V50.02ZM193.782 52V39.4H198.084C199.56 39.4 200.772 39.664 201.72 40.192C202.68 40.708 203.388 41.44 203.844 42.388C204.312 43.324 204.546 44.428 204.546 45.7C204.546 46.972 204.312 48.082 203.844 49.03C203.388 49.966 202.68 50.698 201.72 51.226C200.772 51.742 199.56 52 198.084 52H193.782ZM196.086 50.02H197.976C199.032 50.02 199.866 49.852 200.478 49.516C201.09 49.168 201.528 48.676 201.792 48.04C202.056 47.392 202.188 46.612 202.188 45.7C202.188 44.8 202.056 44.026 201.792 43.378C201.528 42.73 201.09 42.232 200.478 41.884C199.866 41.536 199.032 41.362 197.976 41.362H196.086V50.02ZM213.442 52V41.254H209.77V39.4H219.436V41.254H215.746V52H213.442ZM226.41 52.216C225.15 52.216 224.046 51.94 223.098 51.388C222.162 50.836 221.424 50.074 220.884 49.102C220.356 48.118 220.092 46.984 220.092 45.7C220.092 44.416 220.356 43.288 220.884 42.316C221.424 41.332 222.162 40.564 223.098 40.012C224.046 39.46 225.15 39.184 226.41 39.184C227.658 39.184 228.756 39.46 229.704 40.012C230.652 40.564 231.39 41.332 231.918 42.316C232.446 43.288 232.71 44.416 232.71 45.7C232.71 46.984 232.446 48.118 231.918 49.102C231.39 50.074 230.652 50.836 229.704 51.388C228.756 51.94 227.658 52.216 226.41 52.216ZM226.41 50.146C227.61 50.146 228.564 49.75 229.272 48.958C229.992 48.166 230.352 47.08 230.352 45.7C230.352 44.32 229.992 43.234 229.272 42.442C228.564 41.65 227.61 41.254 226.41 41.254C225.21 41.254 224.25 41.65 223.53 42.442C222.81 43.234 222.45 44.32 222.45 45.7C222.45 47.08 222.81 48.166 223.53 48.958C224.25 49.75 225.21 50.146 226.41 50.146ZM242.975 52.216C242.051 52.216 241.235 52.06 240.527 51.748C239.819 51.424 239.261 50.968 238.853 50.38C238.445 49.78 238.235 49.054 238.223 48.202H240.653C240.677 48.79 240.887 49.288 241.283 49.696C241.691 50.092 242.249 50.29 242.957 50.29C243.569 50.29 244.055 50.146 244.415 49.858C244.775 49.558 244.955 49.162 244.955 48.67C244.955 48.154 244.793 47.752 244.469 47.464C244.157 47.176 243.737 46.942 243.209 46.762C242.681 46.582 242.117 46.39 241.517 46.186C240.545 45.85 239.801 45.418 239.285 44.89C238.781 44.362 238.529 43.66 238.529 42.784C238.517 42.04 238.691 41.404 239.051 40.876C239.423 40.336 239.927 39.922 240.563 39.634C241.199 39.334 241.931 39.184 242.759 39.184C243.599 39.184 244.337 39.334 244.973 39.634C245.621 39.934 246.125 40.354 246.485 40.894C246.857 41.434 247.055 42.076 247.079 42.82H244.613C244.601 42.376 244.427 41.986 244.091 41.65C243.767 41.302 243.311 41.128 242.723 41.128C242.219 41.116 241.793 41.242 241.445 41.506C241.109 41.758 240.941 42.13 240.941 42.622C240.941 43.042 241.073 43.378 241.337 43.63C241.601 43.87 241.961 44.074 242.417 44.242C242.873 44.41 243.395 44.59 243.983 44.782C244.607 44.998 245.177 45.25 245.693 45.538C246.209 45.826 246.623 46.21 246.935 46.69C247.247 47.158 247.403 47.764 247.403 48.508C247.403 49.168 247.235 49.78 246.899 50.344C246.563 50.908 246.065 51.364 245.405 51.712C244.745 52.048 243.935 52.216 242.975 52.216ZM249.233 52V39.4H251.537V44.638H257.189V39.4H259.493V52H257.189V46.51H251.537V52H249.233ZM267.666 52.216C266.406 52.216 265.302 51.94 264.354 51.388C263.418 50.836 262.68 50.074 262.14 49.102C261.612 48.118 261.348 46.984 261.348 45.7C261.348 44.416 261.612 43.288 262.14 42.316C262.68 41.332 263.418 40.564 264.354 40.012C265.302 39.46 266.406 39.184 267.666 39.184C268.914 39.184 270.012 39.46 270.96 40.012C271.908 40.564 272.646 41.332 273.174 42.316C273.702 43.288 273.966 44.416 273.966 45.7C273.966 46.984 273.702 48.118 273.174 49.102C272.646 50.074 271.908 50.836 270.96 51.388C270.012 51.94 268.914 52.216 267.666 52.216ZM267.666 50.146C268.866 50.146 269.82 49.75 270.528 48.958C271.248 48.166 271.608 47.08 271.608 45.7C271.608 44.32 271.248 43.234 270.528 42.442C269.82 41.65 268.866 41.254 267.666 41.254C266.466 41.254 265.506 41.65 264.786 42.442C264.066 43.234 263.706 44.32 263.706 45.7C263.706 47.08 264.066 48.166 264.786 48.958C265.506 49.75 266.466 50.146 267.666 50.146ZM275.82 52V39.4H280.482C281.49 39.4 282.324 39.568 282.984 39.904C283.644 40.24 284.136 40.702 284.46 41.29C284.784 41.878 284.946 42.538 284.946 43.27C284.946 43.966 284.79 44.608 284.478 45.196C284.166 45.772 283.68 46.24 283.02 46.6C282.36 46.948 281.514 47.122 280.482 47.122H278.124V52H275.82ZM278.124 45.25H280.338C281.142 45.25 281.718 45.076 282.066 44.728C282.426 44.368 282.606 43.882 282.606 43.27C282.606 42.646 282.426 42.16 282.066 41.812C281.718 41.452 281.142 41.272 280.338 41.272H278.124V45.25ZM286.574 52V39.4H291.236C292.244 39.4 293.078 39.568 293.738 39.904C294.398 40.24 294.89 40.702 295.214 41.29C295.538 41.878 295.7 42.538 295.7 43.27C295.7 43.966 295.544 44.608 295.232 45.196C294.92 45.772 294.434 46.24 293.774 46.6C293.114 46.948 292.268 47.122 291.236 47.122H288.878V52H286.574ZM288.878 45.25H291.092C291.896 45.25 292.472 45.076 292.82 44.728C293.18 44.368 293.36 43.882 293.36 43.27C293.36 42.646 293.18 42.16 292.82 41.812C292.472 41.452 291.896 41.272 291.092 41.272H288.878V45.25ZM297.328 52V39.4H299.632V52H297.328ZM301.894 52V39.4H304.198L310.12 48.274V39.4H312.424V52H310.12L304.198 43.144V52H301.894ZM320.194 52.216C319.006 52.216 317.968 51.946 317.08 51.406C316.192 50.866 315.502 50.116 315.01 49.156C314.518 48.184 314.272 47.056 314.272 45.772C314.272 44.476 314.524 43.336 315.028 42.352C315.544 41.356 316.27 40.582 317.206 40.03C318.154 39.466 319.276 39.184 320.572 39.184C322.048 39.184 323.272 39.538 324.244 40.246C325.216 40.954 325.846 41.932 326.134 43.18H323.56C323.368 42.592 323.02 42.136 322.516 41.812C322.012 41.476 321.364 41.308 320.572 41.308C319.312 41.308 318.34 41.71 317.656 42.514C316.972 43.306 316.63 44.398 316.63 45.79C316.63 47.182 316.966 48.262 317.638 49.03C318.322 49.786 319.246 50.164 320.41 50.164C321.55 50.164 322.408 49.858 322.984 49.246C323.572 48.622 323.926 47.806 324.046 46.798H320.86V45.07H326.368V52H324.244L324.064 50.344C323.656 50.944 323.146 51.406 322.534 51.73C321.922 52.054 321.142 52.216 320.194 52.216ZM332.537 52V39.4H334.841V50.2H340.421V52H332.537ZM342.271 52V39.4H344.575V52H342.271ZM351.14 52.216C350.216 52.216 349.4 52.06 348.692 51.748C347.984 51.424 347.426 50.968 347.018 50.38C346.61 49.78 346.4 49.054 346.388 48.202H348.818C348.842 48.79 349.052 49.288 349.448 49.696C349.856 50.092 350.414 50.29 351.122 50.29C351.734 50.29 352.22 50.146 352.58 49.858C352.94 49.558 353.12 49.162 353.12 48.67C353.12 48.154 352.958 47.752 352.634 47.464C352.322 47.176 351.902 46.942 351.374 46.762C350.846 46.582 350.282 46.39 349.682 46.186C348.71 45.85 347.966 45.418 347.45 44.89C346.946 44.362 346.694 43.66 346.694 42.784C346.682 42.04 346.856 41.404 347.216 40.876C347.588 40.336 348.092 39.922 348.728 39.634C349.364 39.334 350.096 39.184 350.924 39.184C351.764 39.184 352.502 39.334 353.138 39.634C353.786 39.934 354.29 40.354 354.65 40.894C355.022 41.434 355.22 42.076 355.244 42.82H352.778C352.766 42.376 352.592 41.986 352.256 41.65C351.932 41.302 351.476 41.128 350.888 41.128C350.384 41.116 349.958 41.242 349.61 41.506C349.274 41.758 349.106 42.13 349.106 42.622C349.106 43.042 349.238 43.378 349.502 43.63C349.766 43.87 350.126 44.074 350.582 44.242C351.038 44.41 351.56 44.59 352.148 44.782C352.772 44.998 353.342 45.25 353.858 45.538C354.374 45.826 354.788 46.21 355.1 46.69C355.412 47.158 355.568 47.764 355.568 48.508C355.568 49.168 355.4 49.78 355.064 50.344C354.728 50.908 354.23 51.364 353.57 51.712C352.91 52.048 352.1 52.216 351.14 52.216ZM360.174 52V41.254H356.502V39.4H366.168V41.254H362.478V52H360.174Z" fill="white"/>
</g>
<defs>
<filter id="filter0_d_17_463" x="0" y="0" width="535" height="100" filterUnits="userSpaceOnUse" color-interpolation-filters="sRGB">
<feFlood flood-opacity="0" result="BackgroundImageFix"/>
<feColorMatrix in="SourceAlpha" type="matrix" values="0 0 0 0 0 0 0 0 0 0 0 0 0 0 0 0 0 0 127 0" result="hardAlpha"/>
<feOffset dy="4"/>
<feGaussianBlur stdDeviation="9"/>
<feComposite in2="hardAlpha" operator="out"/>
<feColorMatrix type="matrix" values="0 0 0 0 0 0 0 0 0 0 0 0 0 0 0 0 0 0 0.15 0"/>
<feBlend mode="normal" in2="BackgroundImageFix" result="effect1_dropShadow_17_463"/>
<feBlend mode="normal" in="SourceGraphic" in2="effect1_dropShadow_17_463" result="shape"/>
</filter>
</defs>
</svg>
