<svg width="499" height="64" viewBox="0 0 499 64" fill="none" xmlns="http://www.w3.org/2000/svg">
<rect width="499" height="64" rx="32" fill="#4F2EE8"/>
<path d="M149.914 38L154.522 25.4H157.114L161.722 38H159.274L158.266 35.084H153.352L152.326 38H149.914ZM153.982 33.284H157.636L155.8 28.046L153.982 33.284ZM163.165 38V25.4H167.467C168.943 25.4 170.155 25.664 171.103 26.192C172.063 26.708 172.771 27.44 173.227 28.388C173.695 29.324 173.929 30.428 173.929 31.7C173.929 32.972 173.695 34.082 173.227 35.03C172.771 35.966 172.063 36.698 171.103 37.226C170.155 37.742 168.943 38 167.467 38H163.165ZM165.469 36.02H167.359C168.415 36.02 169.249 35.852 169.861 35.516C170.473 35.168 170.911 34.676 171.175 34.04C171.439 33.392 171.571 32.612 171.571 31.7C171.571 30.8 171.439 30.026 171.175 29.378C170.911 28.73 170.473 28.232 169.861 27.884C169.249 27.536 168.415 27.362 167.359 27.362H165.469V36.02ZM175.782 38V25.4H180.084C181.56 25.4 182.772 25.664 183.72 26.192C184.68 26.708 185.388 27.44 185.844 28.388C186.312 29.324 186.546 30.428 186.546 31.7C186.546 32.972 186.312 34.082 185.844 35.03C185.388 35.966 184.68 36.698 183.72 37.226C182.772 37.742 181.56 38 180.084 38H175.782ZM178.086 36.02H179.976C181.032 36.02 181.866 35.852 182.478 35.516C183.09 35.168 183.528 34.676 183.792 34.04C184.056 33.392 184.188 32.612 184.188 31.7C184.188 30.8 184.056 30.026 183.792 29.378C183.528 28.73 183.09 28.232 182.478 27.884C181.866 27.536 181.032 27.362 179.976 27.362H178.086V36.02ZM195.442 38V27.254H191.77V25.4H201.436V27.254H197.746V38H195.442ZM208.41 38.216C207.15 38.216 206.046 37.94 205.098 37.388C204.162 36.836 203.424 36.074 202.884 35.102C202.356 34.118 202.092 32.984 202.092 31.7C202.092 30.416 202.356 29.288 202.884 28.316C203.424 27.332 204.162 26.564 205.098 26.012C206.046 25.46 207.15 25.184 208.41 25.184C209.658 25.184 210.756 25.46 211.704 26.012C212.652 26.564 213.39 27.332 213.918 28.316C214.446 29.288 214.71 30.416 214.71 31.7C214.71 32.984 214.446 34.118 213.918 35.102C213.39 36.074 212.652 36.836 211.704 37.388C210.756 37.94 209.658 38.216 208.41 38.216ZM208.41 36.146C209.61 36.146 210.564 35.75 211.272 34.958C211.992 34.166 212.352 33.08 212.352 31.7C212.352 30.32 211.992 29.234 211.272 28.442C210.564 27.65 209.61 27.254 208.41 27.254C207.21 27.254 206.25 27.65 205.53 28.442C204.81 29.234 204.45 30.32 204.45 31.7C204.45 33.08 204.81 34.166 205.53 34.958C206.25 35.75 207.21 36.146 208.41 36.146ZM224.975 38.216C224.051 38.216 223.235 38.06 222.527 37.748C221.819 37.424 221.261 36.968 220.853 36.38C220.445 35.78 220.235 35.054 220.223 34.202H222.653C222.677 34.79 222.887 35.288 223.283 35.696C223.691 36.092 224.249 36.29 224.957 36.29C225.569 36.29 226.055 36.146 226.415 35.858C226.775 35.558 226.955 35.162 226.955 34.67C226.955 34.154 226.793 33.752 226.469 33.464C226.157 33.176 225.737 32.942 225.209 32.762C224.681 32.582 224.117 32.39 223.517 32.186C222.545 31.85 221.801 31.418 221.285 30.89C220.781 30.362 220.529 29.66 220.529 28.784C220.517 28.04 220.691 27.404 221.051 26.876C221.423 26.336 221.927 25.922 222.563 25.634C223.199 25.334 223.931 25.184 224.759 25.184C225.599 25.184 226.337 25.334 226.973 25.634C227.621 25.934 228.125 26.354 228.485 26.894C228.857 27.434 229.055 28.076 229.079 28.82H226.613C226.601 28.376 226.427 27.986 226.091 27.65C225.767 27.302 225.311 27.128 224.723 27.128C224.219 27.116 223.793 27.242 223.445 27.506C223.109 27.758 222.941 28.13 222.941 28.622C222.941 29.042 223.073 29.378 223.337 29.63C223.601 29.87 223.961 30.074 224.417 30.242C224.873 30.41 225.395 30.59 225.983 30.782C226.607 30.998 227.177 31.25 227.693 31.538C228.209 31.826 228.623 32.21 228.935 32.69C229.247 33.158 229.403 33.764 229.403 34.508C229.403 35.168 229.235 35.78 228.899 36.344C228.563 36.908 228.065 37.364 227.405 37.712C226.745 38.048 225.935 38.216 224.975 38.216ZM231.233 38V25.4H233.537V30.638H239.189V25.4H241.493V38H239.189V32.51H233.537V38H231.233ZM249.666 38.216C248.406 38.216 247.302 37.94 246.354 37.388C245.418 36.836 244.68 36.074 244.14 35.102C243.612 34.118 243.348 32.984 243.348 31.7C243.348 30.416 243.612 29.288 244.14 28.316C244.68 27.332 245.418 26.564 246.354 26.012C247.302 25.46 248.406 25.184 249.666 25.184C250.914 25.184 252.012 25.46 252.96 26.012C253.908 26.564 254.646 27.332 255.174 28.316C255.702 29.288 255.966 30.416 255.966 31.7C255.966 32.984 255.702 34.118 255.174 35.102C254.646 36.074 253.908 36.836 252.96 37.388C252.012 37.94 250.914 38.216 249.666 38.216ZM249.666 36.146C250.866 36.146 251.82 35.75 252.528 34.958C253.248 34.166 253.608 33.08 253.608 31.7C253.608 30.32 253.248 29.234 252.528 28.442C251.82 27.65 250.866 27.254 249.666 27.254C248.466 27.254 247.506 27.65 246.786 28.442C246.066 29.234 245.706 30.32 245.706 31.7C245.706 33.08 246.066 34.166 246.786 34.958C247.506 35.75 248.466 36.146 249.666 36.146ZM257.82 38V25.4H262.482C263.49 25.4 264.324 25.568 264.984 25.904C265.644 26.24 266.136 26.702 266.46 27.29C266.784 27.878 266.946 28.538 266.946 29.27C266.946 29.966 266.79 30.608 266.478 31.196C266.166 31.772 265.68 32.24 265.02 32.6C264.36 32.948 263.514 33.122 262.482 33.122H260.124V38H257.82ZM260.124 31.25H262.338C263.142 31.25 263.718 31.076 264.066 30.728C264.426 30.368 264.606 29.882 264.606 29.27C264.606 28.646 264.426 28.16 264.066 27.812C263.718 27.452 263.142 27.272 262.338 27.272H260.124V31.25ZM268.574 38V25.4H273.236C274.244 25.4 275.078 25.568 275.738 25.904C276.398 26.24 276.89 26.702 277.214 27.29C277.538 27.878 277.7 28.538 277.7 29.27C277.7 29.966 277.544 30.608 277.232 31.196C276.92 31.772 276.434 32.24 275.774 32.6C275.114 32.948 274.268 33.122 273.236 33.122H270.878V38H268.574ZM270.878 31.25H273.092C273.896 31.25 274.472 31.076 274.82 30.728C275.18 30.368 275.36 29.882 275.36 29.27C275.36 28.646 275.18 28.16 274.82 27.812C274.472 27.452 273.896 27.272 273.092 27.272H270.878V31.25ZM279.328 38V25.4H281.632V38H279.328ZM283.894 38V25.4H286.198L292.12 34.274V25.4H294.424V38H292.12L286.198 29.144V38H283.894ZM302.194 38.216C301.006 38.216 299.968 37.946 299.08 37.406C298.192 36.866 297.502 36.116 297.01 35.156C296.518 34.184 296.272 33.056 296.272 31.772C296.272 30.476 296.524 29.336 297.028 28.352C297.544 27.356 298.27 26.582 299.206 26.03C300.154 25.466 301.276 25.184 302.572 25.184C304.048 25.184 305.272 25.538 306.244 26.246C307.216 26.954 307.846 27.932 308.134 29.18H305.56C305.368 28.592 305.02 28.136 304.516 27.812C304.012 27.476 303.364 27.308 302.572 27.308C301.312 27.308 300.34 27.71 299.656 28.514C298.972 29.306 298.63 30.398 298.63 31.79C298.63 33.182 298.966 34.262 299.638 35.03C300.322 35.786 301.246 36.164 302.41 36.164C303.55 36.164 304.408 35.858 304.984 35.246C305.572 34.622 305.926 33.806 306.046 32.798H302.86V31.07H308.368V38H306.244L306.064 36.344C305.656 36.944 305.146 37.406 304.534 37.73C303.922 38.054 303.142 38.216 302.194 38.216ZM314.537 38V25.4H316.841V36.2H322.421V38H314.537ZM324.271 38V25.4H326.575V38H324.271ZM333.14 38.216C332.216 38.216 331.4 38.06 330.692 37.748C329.984 37.424 329.426 36.968 329.018 36.38C328.61 35.78 328.4 35.054 328.388 34.202H330.818C330.842 34.79 331.052 35.288 331.448 35.696C331.856 36.092 332.414 36.29 333.122 36.29C333.734 36.29 334.22 36.146 334.58 35.858C334.94 35.558 335.12 35.162 335.12 34.67C335.12 34.154 334.958 33.752 334.634 33.464C334.322 33.176 333.902 32.942 333.374 32.762C332.846 32.582 332.282 32.39 331.682 32.186C330.71 31.85 329.966 31.418 329.45 30.89C328.946 30.362 328.694 29.66 328.694 28.784C328.682 28.04 328.856 27.404 329.216 26.876C329.588 26.336 330.092 25.922 330.728 25.634C331.364 25.334 332.096 25.184 332.924 25.184C333.764 25.184 334.502 25.334 335.138 25.634C335.786 25.934 336.29 26.354 336.65 26.894C337.022 27.434 337.22 28.076 337.244 28.82H334.778C334.766 28.376 334.592 27.986 334.256 27.65C333.932 27.302 333.476 27.128 332.888 27.128C332.384 27.116 331.958 27.242 331.61 27.506C331.274 27.758 331.106 28.13 331.106 28.622C331.106 29.042 331.238 29.378 331.502 29.63C331.766 29.87 332.126 30.074 332.582 30.242C333.038 30.41 333.56 30.59 334.148 30.782C334.772 30.998 335.342 31.25 335.858 31.538C336.374 31.826 336.788 32.21 337.1 32.69C337.412 33.158 337.568 33.764 337.568 34.508C337.568 35.168 337.4 35.78 337.064 36.344C336.728 36.908 336.23 37.364 335.57 37.712C334.91 38.048 334.1 38.216 333.14 38.216ZM342.174 38V27.254H338.502V25.4H348.168V27.254H344.478V38H342.174Z" fill="white"/>
</svg>
