<svg width="20" height="20" viewBox="0 0 20 20" fill="none" xmlns="http://www.w3.org/2000/svg">
<g id="uil:cart">
<path id="Vector" d="M15.8335 5.83317H13.3335V4.99984C13.3335 4.11578 12.9823 3.26794 12.3572 2.64281C11.7321 2.01769 10.8842 1.6665 10.0002 1.6665C9.11611 1.6665 8.26826 2.01769 7.64314 2.64281C7.01802 3.26794 6.66683 4.11578 6.66683 4.99984V5.83317H4.16683C3.94582 5.83317 3.73385 5.92097 3.57757 6.07725C3.42129 6.23353 3.3335 6.44549 3.3335 6.6665V15.8332C3.3335 16.4962 3.59689 17.1321 4.06573 17.6009C4.53457 18.0698 5.17045 18.3332 5.8335 18.3332H14.1668C14.8299 18.3332 15.4658 18.0698 15.9346 17.6009C16.4034 17.1321 16.6668 16.4962 16.6668 15.8332V6.6665C16.6668 6.44549 16.579 6.23353 16.4227 6.07725C16.2665 5.92097 16.0545 5.83317 15.8335 5.83317ZM8.33349 4.99984C8.33349 4.55781 8.50909 4.13389 8.82165 3.82133C9.13421 3.50876 9.55813 3.33317 10.0002 3.33317C10.4422 3.33317 10.8661 3.50876 11.1787 3.82133C11.4912 4.13389 11.6668 4.55781 11.6668 4.99984V5.83317H8.33349V4.99984ZM15.0002 15.8332C15.0002 16.0542 14.9124 16.2661 14.7561 16.4224C14.5998 16.5787 14.3878 16.6665 14.1668 16.6665H5.8335C5.61248 16.6665 5.40052 16.5787 5.24424 16.4224C5.08796 16.2661 5.00016 16.0542 5.00016 15.8332V7.49984H6.66683V8.33317C6.66683 8.55418 6.75463 8.76614 6.91091 8.92242C7.06719 9.07871 7.27915 9.1665 7.50016 9.1665C7.72117 9.1665 7.93314 9.07871 8.08942 8.92242C8.2457 8.76614 8.33349 8.55418 8.33349 8.33317V7.49984H11.6668V8.33317C11.6668 8.55418 11.7546 8.76614 11.9109 8.92242C12.0672 9.07871 12.2791 9.1665 12.5002 9.1665C12.7212 9.1665 12.9331 9.07871 13.0894 8.92242C13.2457 8.76614 13.3335 8.55418 13.3335 8.33317V7.49984H15.0002V15.8332Z" fill="white"/>
</g>
</svg>
