<svg xmlns="http://www.w3.org/2000/svg" aria-hidden="true" style="position:absolute;width:0;height:0;overflow:hidden"><defs><symbol id="icon-open_book_small" viewBox="0 0 23 32"><path d="M1.552 0h19.394c.857 0 1.552.695 1.552 1.552v28.897c0 .857-.695 1.552-1.552 1.552H1.552A1.552 1.552 0 0 1 0 30.449V1.552C0 .695.695 0 1.552 0z"/><path d="M14.202 14.978a2.899 2.899 0 0 0-.415-.182v3.589a2.771 2.771 0 0 0-.987-.185c-.536 0-1.066.161-1.552.471v-3.61a2.982 2.982 0 0 0-1.552-.442 2.94 2.94 0 0 0-1.402.358.293.293 0 0 0-.149.263v3.604c0 .173.133.295.282.295.045 0 .09-.012.135-.036a2.346 2.346 0 0 1 1.134-.307c.584 0 1.123.245 1.552.597.429-.352.968-.597 1.552-.597.409 0 .793.119 1.134.31.045.024.09.036.135.036a.288.288 0 0 0 .282-.295V15.24a.294.294 0 0 0-.149-.263zm-3.518 3.407c-.322-.122-.652-.185-.987-.185s-.666.063-.987.185v-2.957a2.396 2.396 0 0 1 1.974.003v2.954zm2.539-4.809-1.41 1.492v2.835l1.41-1.343v-2.984z"/></symbol><symbol id="icon-open_book_middle" viewBox="0 0 23 32"><path d="M1 0h20.5a1 1 0 0 1 1 1v30a1 1 0 0 1-1 1H1a1 1 0 0 1-1-1V1a1 1 0 0 1 1-1z"/><path d="M13.867 14.955a2.481 2.481 0 0 0-.367-.156v3.085a2.52 2.52 0 0 0-.875-.159c-.475 0-.945.139-1.375.405v-3.103a2.671 2.671 0 0 0-2.617-.072.252.252 0 0 0-.133.226v3.098a.25.25 0 0 0 .37.223 2.128 2.128 0 0 1 1.005-.264c.518 0 .995.21 1.375.513.38-.303.857-.513 1.375-.513.363 0 .703.103 1.005.267.04.02.08.031.12.031.13 0 .25-.105.25-.254v-3.1a.25.25 0 0 0-.133-.226zm-3.117 2.928c-.285-.105-.578-.159-.875-.159s-.59.054-.875.159v-2.541a2.184 2.184 0 0 1 1.75.003v2.539zM13 13.75l-1.25 1.282v2.436L13 16.314V13.75z"/></symbol><symbol id="icon-open_book_large" viewBox="0 0 22 32"><path d="M.81 0h20.456a.81.81 0 0 1 .81.81v30.38a.81.81 0 0 1-.81.81H.81a.81.81 0 0 1-.81-.81V.81A.81.81 0 0 1 .81 0z"/><path d="M13.93 14.786a2.974 2.974 0 0 0-.406-.171v3.374a2.804 2.804 0 0 0-.967-.174 2.89 2.89 0 0 0-1.519.443v-3.393a2.984 2.984 0 0 0-2.892-.079.274.274 0 0 0-.146.247v3.388a.275.275 0 0 0 .409.244c.334-.177.71-.289 1.11-.289.572 0 1.099.23 1.519.561.42-.331.947-.561 1.519-.561.4 0 .776.112 1.11.292a.276.276 0 0 0 .409-.244v-3.39a.274.274 0 0 0-.146-.247zm-3.444 3.203c-.315-.115-.638-.174-.967-.174s-.652.059-.967.174V15.21a2.426 2.426 0 0 1 1.934.003v2.776zm2.485-4.521L11.59 14.87v2.664l1.381-1.262v-2.804z"/></symbol><symbol id="icon-open_book_extralarge" viewBox="0 0 22 32"><path d="M.528 0h21.047c.291 0 .528.236.528.528v30.944a.528.528 0 0 1-.528.528H.528A.528.528 0 0 1 0 31.472V.528C0 .237.236 0 .528 0z"/><path d="M13.782 14.798a2.724 2.724 0 0 0-.388-.165v3.256a2.657 2.657 0 0 0-.924-.168c-.501 0-.998.146-1.452.428v-3.275a2.825 2.825 0 0 0-2.764-.076.264.264 0 0 0-.14.238v3.27a.264.264 0 0 0 .391.236 2.242 2.242 0 0 1 1.061-.279c.546 0 1.05.222 1.452.541.401-.319.905-.541 1.452-.541.383 0 .742.108 1.061.282a.266.266 0 0 0 .391-.236v-3.273c0-.1-.053-.195-.14-.238zm-3.291 3.091c-.301-.111-.61-.168-.924-.168s-.623.057-.924.168v-2.682a2.304 2.304 0 0 1 1.848.003v2.68zm2.375-4.363-1.32 1.353v2.571l1.32-1.218v-2.707z"/></symbol><symbol id="icon-logo_light" viewBox="0 0 125 32"><path d="m0 2.286 14.008 13.861 13.42 13.567V2.285H-.001z"/><path d="m3.82 5.91 10.237 10.139 9.649 9.845H3.82V5.91z"/><path d="M23.771 25.959 13.534 15.82 3.885 5.975h19.886v19.984z"/><path d="m7.935 10.024 11.657 11.657H7.935V10.024z"/><path d="m7.935 10.024 11.657 11.657V10.024H7.935zM47.659 12.266c0-2.366-1.749-3.703-4.773-3.703h-6.315v14.709h6.665c3.045 0 4.999-1.461 4.999-4.299 0-2.201-1.317-3.333-2.859-3.6v-.041c1.214-.411 2.283-1.255 2.283-3.065zm-8.64 2.387v-4.011h3.929c1.461 0 2.263.72 2.263 2.016s-.658 1.995-2.407 1.995h-3.785zm0 1.83h4.299c1.543 0 2.469.843 2.469 2.345 0 1.378-.638 2.366-2.736 2.366h-4.032v-4.711zM54.516 23.581c-3.291 0-5.287-2.283-5.287-5.554s1.995-5.554 5.287-5.554c3.291 0 5.287 2.283 5.287 5.554s-1.995 5.554-5.287 5.554zm0-1.77c2.057 0 3.127-1.625 3.127-3.785 0-2.181-1.07-3.785-3.127-3.785s-3.127 1.605-3.127 3.785c0 2.16 1.07 3.785 3.127 3.785zM66.027 23.581c-3.291 0-5.287-2.283-5.287-5.554s1.995-5.554 5.287-5.554c3.291 0 5.287 2.283 5.287 5.554s-1.995 5.554-5.287 5.554zm0-1.77c2.057 0 3.127-1.625 3.127-3.785 0-2.181-1.07-3.785-3.127-3.785S62.9 15.846 62.9 18.026c0 2.16 1.07 3.785 3.127 3.785zM72.807 8.563v14.709h2.16v-3.806l1.461-1.378 3.312 5.184h2.592l-4.423-6.603L81.9 12.76h-2.654l-4.279 4.217V8.563h-2.16zM87.539 16.915c-1.522-.35-2.695-.432-2.695-1.502 0-.741.699-1.234 1.995-1.234 1.687 0 2.098.843 2.242 1.666h2.098c-.144-1.831-1.502-3.374-4.361-3.374-2.633 0-4.155 1.378-4.155 3.106 0 2.386 2.263 2.715 3.929 3.106 1.543.37 2.798.473 2.798 1.79 0 .658-.638 1.399-2.139 1.399-2.222 0-2.715-.967-2.818-2.098h-2.098c.103 2.222 1.563 3.806 4.958 3.806 2.551 0 4.279-1.255 4.279-3.271 0-2.51-2.098-2.942-4.032-3.394zM98.633 12.472c-1.769 0-2.859.823-3.415 1.646h-.041V8.564h-2.16v14.709h2.16v-6.398c0-1.563 1.131-2.571 2.715-2.571 1.502 0 2.098.905 2.098 2.325v6.645h2.181v-7.262c0-2.407-1.543-3.538-3.538-3.538zM108.796 21.811c-1.913 0-3.045-1.461-3.045-3.23h8.064c0-3.744-1.666-6.11-5.061-6.11-3.168 0-5.163 2.139-5.163 5.554 0 3.291 1.995 5.554 5.266 5.554 2.695 0 4.258-1.522 4.793-3.518h-2.16c-.185.638-.905 1.749-2.695 1.749zm-.042-7.632c1.749 0 2.901 1.173 2.901 2.798h-5.904c0-1.625 1.255-2.798 3.003-2.798zM115.337 8.563v14.709h2.181V8.563h-2.181zM124.573 10.333V8.564a7.6 7.6 0 0 0-1.44-.144c-1.728 0-2.674.782-2.674 3.003v1.337h-1.502v1.769h1.502v8.743h2.181v-8.743h1.934V12.76h-1.934v-1.152c0-1.193.535-1.337 1.934-1.275z"/></symbol><symbol id="icon-logo_dark" viewBox="0 0 125 32"><path d="m0 2.286 14.008 13.861 13.42 13.567V2.285H-.001z"/><path d="m3.82 5.91 10.237 10.139 9.649 9.845H3.82V5.91z"/><path d="M23.771 25.959 13.534 15.82 3.885 5.975h19.886v19.984z"/><path d="m7.935 10.024 11.657 11.657H7.935V10.024z"/><path d="m7.935 10.024 11.657 11.657V10.024H7.935zM47.659 12.266c0-2.366-1.749-3.703-4.773-3.703h-6.315v14.709h6.665c3.045 0 4.999-1.461 4.999-4.299 0-2.201-1.317-3.333-2.859-3.6v-.041c1.214-.411 2.283-1.255 2.283-3.065zm-8.64 2.387v-4.011h3.929c1.461 0 2.263.72 2.263 2.016s-.658 1.995-2.407 1.995h-3.785zm0 1.83h4.299c1.543 0 2.469.843 2.469 2.345 0 1.378-.638 2.366-2.736 2.366h-4.032v-4.711zM54.516 23.581c-3.291 0-5.287-2.283-5.287-5.554s1.995-5.554 5.287-5.554c3.291 0 5.287 2.283 5.287 5.554s-1.995 5.554-5.287 5.554zm0-1.77c2.057 0 3.127-1.625 3.127-3.785 0-2.181-1.07-3.785-3.127-3.785s-3.127 1.605-3.127 3.785c0 2.16 1.07 3.785 3.127 3.785zM66.027 23.581c-3.291 0-5.287-2.283-5.287-5.554s1.995-5.554 5.287-5.554c3.291 0 5.287 2.283 5.287 5.554s-1.995 5.554-5.287 5.554zm0-1.77c2.057 0 3.127-1.625 3.127-3.785 0-2.181-1.07-3.785-3.127-3.785S62.9 15.846 62.9 18.026c0 2.16 1.07 3.785 3.127 3.785zM72.807 8.563v14.709h2.16v-3.806l1.461-1.378 3.312 5.184h2.592l-4.423-6.603L81.9 12.76h-2.654l-4.279 4.217V8.563h-2.16zM87.539 16.915c-1.522-.35-2.695-.432-2.695-1.502 0-.741.699-1.234 1.995-1.234 1.687 0 2.098.843 2.242 1.666h2.098c-.144-1.831-1.502-3.374-4.361-3.374-2.633 0-4.155 1.378-4.155 3.106 0 2.386 2.263 2.715 3.929 3.106 1.543.37 2.798.473 2.798 1.79 0 .658-.638 1.399-2.139 1.399-2.222 0-2.715-.967-2.818-2.098h-2.098c.103 2.222 1.563 3.806 4.958 3.806 2.551 0 4.279-1.255 4.279-3.271 0-2.51-2.098-2.942-4.032-3.394zM98.633 12.472c-1.769 0-2.859.823-3.415 1.646h-.041V8.564h-2.16v14.709h2.16v-6.398c0-1.563 1.131-2.571 2.715-2.571 1.502 0 2.098.905 2.098 2.325v6.645h2.181v-7.262c0-2.407-1.543-3.538-3.538-3.538zM108.796 21.811c-1.913 0-3.045-1.461-3.045-3.23h8.064c0-3.744-1.666-6.11-5.061-6.11-3.168 0-5.163 2.139-5.163 5.554 0 3.291 1.995 5.554 5.266 5.554 2.695 0 4.258-1.522 4.793-3.518h-2.16c-.185.638-.905 1.749-2.695 1.749zm-.042-7.632c1.749 0 2.901 1.173 2.901 2.798h-5.904c0-1.625 1.255-2.798 3.003-2.798zM115.337 8.563v14.709h2.181V8.563h-2.181zM124.573 10.333V8.564a7.6 7.6 0 0 0-1.44-.144c-1.728 0-2.674.782-2.674 3.003v1.337h-1.502v1.769h1.502v8.743h2.181v-8.743h1.934V12.76h-1.934v-1.152c0-1.193.535-1.337 1.934-1.275z"/></symbol><symbol id="icon-icon_x-close" viewBox="0 0 32 32"><path stroke-linecap="round" stroke-linejoin="round" stroke-width="3.429" d="M24 8 8 24M8 8l16 16"/></symbol><symbol id="icon-icon_x-close_hover" viewBox="0 0 32 32"><path stroke-linecap="round" stroke-linejoin="round" stroke-width="3.429" d="M24 8 8 24M8 8l16 16"/></symbol><symbol id="icon-icon_user" viewBox="0 0 32 32"><path d="M32 16c0 8.837-7.163 16-16 16S0 24.837 0 16 7.163 0 16 0s16 7.163 16 16z"/><path d="M10.523 22.847a5.477 5.477 0 1 1 10.954 0H10.522zM16 16.685c-2.27 0-4.108-1.838-4.108-4.108S13.73 8.469 16 8.469c2.27 0 4.108 1.838 4.108 4.108S18.27 16.685 16 16.685z"/></symbol><symbol id="icon-icon_Switcher-3" viewBox="0 0 52 32"><path d="M0 14.222C0 7.676 5.306 2.37 11.852 2.37h23.704c6.546 0 11.852 5.306 11.852 11.852s-5.306 11.852-11.852 11.852H11.852C5.306 26.074 0 20.768 0 14.222z"/><path d="M35.556 24.889c5.891 0 10.667-4.776 10.667-10.667S41.447 3.555 35.556 3.555 24.889 8.331 24.889 14.222s4.776 10.667 10.667 10.667z"/></symbol><symbol id="icon-icon_Switcher-2" viewBox="0 0 50 32"><path d="M2.37 14.222C2.37 7.676 7.676 2.37 14.222 2.37h23.704c6.546 0 11.852 5.306 11.852 11.852s-5.306 11.852-11.852 11.852H14.222c-6.546 0-11.852-5.306-11.852-11.852z"/><path d="M14.222 24.889c5.891 0 10.667-4.776 10.667-10.667S20.113 3.555 14.222 3.555 3.555 8.331 3.555 14.222s4.776 10.667 10.667 10.667z"/></symbol><symbol id="icon-icon_mail-02" viewBox="0 0 32 32"><path stroke-linecap="round" stroke-linejoin="round" stroke-width="2.286" d="m28.666 24-8.857-8m-7.619 0-8.857 8M2.667 9.333l10.887 7.621c.882.617 1.322.926 1.802 1.045.423.106.866.106 1.29 0 .479-.12.92-.428 1.802-1.045l10.887-7.621M9.067 26.667h13.867c2.24 0 3.36 0 4.216-.436a3.996 3.996 0 0 0 1.748-1.748c.436-.856.436-1.976.436-4.216v-8.533c0-2.24 0-3.36-.436-4.216A3.991 3.991 0 0 0 27.15 5.77c-.856-.436-1.976-.436-4.216-.436H9.067c-2.24 0-3.36 0-4.216.436a3.991 3.991 0 0 0-1.748 1.748c-.436.856-.436 1.976-.436 4.216v8.533c0 2.24 0 3.36.436 4.216a3.996 3.996 0 0 0 1.748 1.748c.856.436 1.976.436 4.216.436z"/></symbol><symbol id="icon-icon_lock-02" viewBox="0 0 32 32"><path stroke-linecap="round" stroke-linejoin="round" stroke-width="2.286" d="M22.667 14.667v-4a6.667 6.667 0 0 0-13.334 0v4M10.4 28h11.2c2.24 0 3.36 0 4.216-.436a3.991 3.991 0 0 0 1.748-1.748C28 24.96 28 23.84 28 21.6v-.533c0-2.24 0-3.36-.436-4.216a3.991 3.991 0 0 0-1.748-1.748c-.856-.436-1.976-.436-4.216-.436H10.4c-2.24 0-3.36 0-4.216.436a3.996 3.996 0 0 0-1.748 1.748C4 17.707 4 18.827 4 21.067v.533c0 2.24 0 3.36.436 4.216a3.991 3.991 0 0 0 1.748 1.748C7.04 28 8.16 28 10.4 28z"/></symbol><symbol id="icon-icon_dump" viewBox="0 0 32 32"><path d="M32 16c0 8.837-7.163 16-16 16S0 24.837 0 16 7.163 0 16 0s16 7.163 16 16z"/><path stroke-linecap="round" stroke-linejoin="round" stroke-width="1.684" d="M13.684 9.053h4.632m-9.263 2.315h13.895m-1.544 0-.541 8.12c-.081 1.218-.122 1.827-.385 2.289a2.322 2.322 0 0 1-1.002.938c-.478.232-1.089.232-2.31.232h-2.33c-1.221 0-1.832 0-2.31-.232a2.31 2.31 0 0 1-1.002-.938c-.263-.462-.304-1.071-.385-2.289l-.541-8.12m3.858 3.474v3.86m3.088-3.86v3.86"/></symbol><symbol id="icon-icon_align-left" viewBox="0 0 32 32"><path stroke-linecap="round" stroke-linejoin="round" stroke-width="2.286" d="M22.667 13.333H4M28 8H4M28 18.667H4M22.667 24H4"/></symbol><symbol id="icon-icon_align-lef_hovert" viewBox="0 0 32 32"><path stroke-linecap="round" stroke-linejoin="round" stroke-width="2.286" d="M22.667 13.333H4M28 8H4M28 18.667H4M22.667 24H4"/></symbol><symbol id="icon-button_User" viewBox="0 0 131 32"><path d="M16 0h98.844c8.837 0 16 7.163 16 16s-7.163 16-16 16H16C7.163 32 0 24.837 0 16S7.163 0 16 0z"/><path d="M34.844 16c0 7.266-5.89 13.156-13.156 13.156S8.532 23.266 8.532 16c0-7.266 5.89-13.156 13.156-13.156S34.844 8.734 34.844 16zM46.047 21.521c-.803 0-1.512-.136-2.128-.407-.615-.282-1.1-.678-1.455-1.189-.355-.521-.537-1.152-.548-1.893h2.112c.021.511.203.944.548 1.299.355.344.84.516 1.455.516.532 0 .954-.125 1.267-.375.313-.261.469-.605.469-1.033 0-.448-.141-.798-.422-1.048-.271-.25-.636-.454-1.095-.61l-1.471-.501c-.845-.292-1.491-.668-1.94-1.126-.438-.459-.657-1.069-.657-1.83-.01-.647.141-1.199.454-1.658a3.115 3.115 0 0 1 1.314-1.079c.553-.261 1.189-.391 1.909-.391.73 0 1.372.13 1.924.391.563.261 1.001.626 1.314 1.095.323.469.495 1.027.516 1.674H47.47a1.453 1.453 0 0 0-.454-1.017c-.282-.302-.678-.454-1.189-.454-.438-.01-.808.099-1.111.329-.292.219-.438.542-.438.97 0 .365.115.657.344.876.229.209.542.386.939.532s.85.302 1.361.469c.542.188 1.038.407 1.486.657s.808.584 1.079 1.001c.271.407.407.933.407 1.58 0 .574-.146 1.106-.438 1.596s-.725.887-1.298 1.189c-.574.292-1.278.438-2.112.438zm8.694-.188c-.813 0-1.465-.198-1.956-.595s-.735-1.1-.735-2.112v-3.379h-1.33v-1.674h1.33l.235-2.081h1.768v2.081h2.096v1.674h-2.096v3.395c0 .375.078.636.235.782.167.136.448.203.845.203h.97v1.705h-1.361zm6.386.188c-.782 0-1.476-.167-2.081-.501s-1.079-.803-1.424-1.408-.516-1.304-.516-2.096c0-.803.167-1.518.501-2.143a3.7 3.7 0 0 1 1.408-1.455c.605-.355 1.314-.532 2.128-.532.761 0 1.434.167 2.018.501s1.038.793 1.361 1.377c.334.574.501 1.215.501 1.924 0 .115-.005.235-.016.36 0 .125-.005.256-.016.391h-5.898c.042.605.25 1.079.626 1.424.386.344.85.516 1.392.516.407 0 .746-.089 1.017-.266.282-.188.49-.428.626-.72h2.034c-.146.49-.391.939-.735 1.345a3.547 3.547 0 0 1-1.252.939c-.49.229-1.048.344-1.674.344zm.015-6.508c-.49 0-.923.141-1.298.422-.375.271-.615.688-.72 1.252h3.864c-.031-.511-.219-.918-.563-1.22s-.772-.454-1.283-.454zm5.252 9.762V13.574h1.783l.219 1.111c.25-.344.579-.647.986-.907.417-.261.954-.391 1.611-.391.73 0 1.382.177 1.956.532s1.028.84 1.361 1.455c.334.615.501 1.314.501 2.096s-.167 1.481-.501 2.096a3.835 3.835 0 0 1-1.361 1.439c-.574.344-1.225.516-1.956.516-.584 0-1.095-.11-1.533-.329s-.793-.527-1.064-.923v4.506h-2.002zm4.177-5.006c.636 0 1.163-.214 1.58-.641s.626-.98.626-1.658c0-.678-.208-1.236-.626-1.674s-.944-.657-1.58-.657c-.647 0-1.179.219-1.596.657-.407.428-.61.98-.61 1.658s.203 1.236.61 1.674c.417.428.949.641 1.596.641zm5.715 1.564V10.069h2.002v4.693a2.76 2.76 0 0 1 1.048-1.001c.449-.25.96-.375 1.533-.375.96 0 1.7.302 2.222.907.532.605.798 1.491.798 2.66v4.38h-1.987V17.14c0-.668-.135-1.179-.407-1.533-.26-.355-.678-.532-1.252-.532-.563 0-1.033.198-1.408.595-.365.396-.548.949-.548 1.658v4.005h-2.002zm12.975.188c-.782 0-1.476-.167-2.081-.501s-1.079-.803-1.424-1.408-.516-1.304-.516-2.096c0-.803.167-1.518.501-2.143a3.707 3.707 0 0 1 1.408-1.455c.605-.355 1.314-.532 2.128-.532.762 0 1.434.167 2.018.501s1.038.793 1.361 1.377c.334.574.501 1.215.501 1.924 0 .115-.005.235-.016.36 0 .125-.005.256-.016.391h-5.898c.042.605.25 1.079.626 1.424.386.344.85.516 1.392.516.407 0 .746-.089 1.017-.266.282-.188.491-.428.626-.72h2.034c-.146.49-.391.939-.735 1.345a3.547 3.547 0 0 1-1.252.939c-.49.229-1.048.344-1.674.344zm.016-6.508c-.49 0-.923.141-1.299.422-.375.271-.615.688-.72 1.252h3.864c-.031-.511-.219-.918-.563-1.22s-.772-.454-1.283-.454zm5.252 6.32v-7.76h1.768l.156 1.314a2.74 2.74 0 0 1 1.033-1.095c.459-.271.996-.407 1.611-.407.959 0 1.705.302 2.237.907s.798 1.491.798 2.66v4.38h-2.002v-4.193c0-.668-.136-1.179-.407-1.533s-.694-.532-1.267-.532c-.563 0-1.028.198-1.392.595-.355.396-.532.949-.532 1.658v4.005H94.53zM109.363 14.044h9.54l-4.288 4.848c-.128.144-.302.226-.482.226s-.354-.081-.481-.226l-4.289-4.848z"/></symbol><symbol id="icon-button_sign_up" viewBox="0 0 123 32"><path d="M.5 12C.5 5.649 5.649.5 12 .5h98.667c6.351 0 11.5 5.149 11.5 11.5v8c0 6.351-5.149 11.5-11.5 11.5H12C5.649 31.5.5 26.351.5 20v-8z"/><path d="M12.152 19.445c-.479 0-.899-.084-1.26-.252s-.644-.408-.849-.719c-.199-.311-.302-.681-.308-1.111h1.045c.006.348.128.644.364.887s.569.364.999.364c.38 0 .675-.09.887-.271a.894.894 0 0 0 .327-.709c0-.23-.053-.417-.159-.56-.1-.143-.24-.261-.42-.355-.174-.093-.376-.177-.607-.252s-.473-.156-.728-.243c-.504-.168-.884-.386-1.139-.653-.249-.268-.373-.619-.373-1.055a1.697 1.697 0 0 1 .252-.961c.18-.274.429-.485.747-.635.324-.156.7-.233 1.129-.233.423 0 .793.078 1.111.233.324.156.576.373.756.653.18.274.274.594.28.961h-1.045a.93.93 0 0 0-.131-.476c-.087-.156-.215-.283-.383-.383s-.373-.149-.616-.149c-.311-.006-.569.072-.775.233-.199.162-.299.386-.299.672 0 .255.075.451.224.588s.355.252.616.345c.261.087.56.19.896.308.324.106.613.233.868.383s.457.345.607.588c.156.243.233.551.233.924 0 .33-.084.638-.252.924-.168.28-.42.51-.756.691-.336.174-.75.261-1.241.261zm3.48-5.618a.673.673 0 0 1-.467-.168c-.118-.118-.177-.264-.177-.439s.059-.317.177-.429c.124-.118.28-.177.467-.177s.339.059.457.177c.124.112.187.255.187.429s-.062.32-.187.439a.638.638 0 0 1-.457.168zm-.494 5.506v-4.629h.989v4.629h-.989zm3.816-1.418c-.243 0-.467-.028-.672-.084l-.401.392c.068.044.152.081.252.112s.24.059.42.084c.18.025.426.05.737.075.616.056 1.061.205 1.335.448.274.236.411.554.411.952 0 .274-.075.532-.224.775-.143.249-.37.448-.681.597-.305.156-.697.233-1.176.233-.647 0-1.173-.124-1.577-.373-.398-.243-.597-.613-.597-1.111 0-.193.05-.386.149-.579.106-.187.271-.364.495-.532a2.51 2.51 0 0 1-.345-.177 3.096 3.096 0 0 1-.252-.205v-.224l.803-.821c-.361-.311-.541-.719-.541-1.223 0-.305.072-.582.215-.831.149-.255.364-.457.644-.607s.616-.224 1.008-.224c.261 0 .504.037.728.112h1.727v.653l-.821.047c.149.255.224.538.224.849s-.075.591-.224.84a1.55 1.55 0 0 1-.635.597c-.274.149-.607.224-.999.224zm0-.775c.286 0 .516-.075.691-.224.18-.156.271-.373.271-.653 0-.286-.09-.504-.271-.653-.174-.149-.404-.224-.691-.224-.292 0-.529.075-.709.224-.174.149-.261.367-.261.653 0 .28.087.498.261.653.18.149.417.224.709.224zm-1.241 2.781c0 .268.118.467.355.597.236.137.532.205.887.205.342 0 .619-.075.831-.224a.664.664 0 0 0 .317-.579.614.614 0 0 0-.215-.467c-.143-.124-.414-.202-.812-.233a8.394 8.394 0 0 1-.793-.084c-.218.118-.367.246-.448.383s-.121.271-.121.401zm4.205-.588v-4.629h.877l.075.812c.143-.286.352-.51.625-.672.28-.168.6-.252.961-.252.56 0 .999.174 1.316.523.324.348.485.868.485 1.559v2.66h-.98v-2.557c0-.896-.367-1.344-1.101-1.344-.367 0-.672.131-.915.392-.236.261-.355.635-.355 1.12v2.389h-.989zm8.818.112c-.56 0-1.002-.174-1.325-.523-.317-.348-.476-.868-.476-1.559v-2.66h.989v2.557c0 .896.367 1.344 1.101 1.344.367 0 .669-.131.905-.392s.355-.635.355-1.12v-2.389h.989v4.629h-.877l-.075-.812a1.633 1.633 0 0 1-.635.681 1.834 1.834 0 0 1-.952.243zm3.424 1.942v-6.683h.887l.103.719c.149-.218.355-.411.616-.579s.597-.252 1.008-.252c.448 0 .843.106 1.185.317s.61.501.803.868c.199.367.299.784.299 1.251s-.1.884-.299 1.251a2.22 2.22 0 0 1-.803.859c-.342.205-.74.308-1.195.308-.361 0-.681-.072-.961-.215a1.645 1.645 0 0 1-.653-.607v2.763h-.989zm2.436-2.8c.423 0 .772-.143 1.045-.429.274-.292.411-.672.411-1.139 0-.305-.062-.576-.187-.812s-.296-.42-.513-.551a1.39 1.39 0 0 0-.756-.205c-.423 0-.772.146-1.045.439-.268.292-.401.669-.401 1.129 0 .467.134.846.401 1.139.274.286.622.429 1.045.429z"/><path stroke-linecap="round" stroke-linejoin="round" stroke-width="1.333" d="M102.222 16h8.889m0 0-3.333-3.333M111.111 16l-3.333 3.333"/></symbol><symbol id="icon-button_scroll_up" viewBox="0 0 32 32"><path d="M32 16c0 8.837-7.163 16-16 16S0 24.837 0 16 7.163 0 16 0s16 7.163 16 16z"/><path d="M29.5 16c0 7.456-6.044 13.5-13.5 13.5S2.5 23.456 2.5 16 8.544 2.5 16 2.5 29.5 8.544 29.5 16z"/><path d="m11.687 17.35 4.2-4.213c.05-.05.104-.085.162-.106s.121-.031.188-.031.129.011.188.031.113.056.163.106L20.8 17.35c.117.117.175.262.175.438s-.063.325-.188.45a.6.6 0 0 1-.876 0l-3.675-3.675-3.675 3.675c-.117.117-.26.175-.431.175s-.319-.063-.444-.188a.6.6 0 0 1 0-.876z"/></symbol><symbol id="icon-button_log_out_mobile" viewBox="0 0 79 32"><path d="M.5 12C.5 5.649 5.649.5 12 .5h54.667c6.351 0 11.5 5.149 11.5 11.5v8c0 6.351-5.149 11.5-11.5 11.5H12C5.649 31.5.5 26.351.5 20v-8z"/><path d="M16.663 19.333V12.8h.989v5.749h2.968v.784h-3.957zm6.576.112a2.4 2.4 0 0 1-1.195-.299 2.273 2.273 0 0 1-.831-.849c-.205-.367-.308-.793-.308-1.279s.103-.908.308-1.269c.212-.367.495-.65.849-.849.355-.205.75-.308 1.185-.308.442 0 .837.103 1.185.308.355.199.635.482.84.849.212.361.317.784.317 1.269s-.106.912-.317 1.279a2.238 2.238 0 0 1-.84.849 2.4 2.4 0 0 1-1.195.299zm0-.849a1.298 1.298 0 0 0 1.148-.7c.124-.236.187-.529.187-.877s-.062-.638-.187-.868a1.227 1.227 0 0 0-.485-.532 1.312 1.312 0 0 0-1.316 0 1.304 1.304 0 0 0-.485.532c-.124.23-.187.52-.187.868s.062.641.187.877c.124.23.286.404.485.523s.417.177.653.177zm4.697-.681c-.243 0-.467-.028-.672-.084l-.401.392c.068.044.152.081.252.112s.24.059.42.084c.18.025.426.05.737.075.616.056 1.061.205 1.335.448.274.236.411.554.411.952 0 .274-.075.532-.224.775-.143.249-.37.448-.681.597-.305.156-.697.233-1.176.233-.647 0-1.173-.124-1.577-.373-.398-.243-.597-.613-.597-1.111 0-.193.05-.386.149-.579.106-.187.271-.364.495-.532a2.51 2.51 0 0 1-.345-.177 3.096 3.096 0 0 1-.252-.205v-.224l.803-.821c-.361-.311-.541-.719-.541-1.223 0-.305.072-.582.215-.831.149-.255.364-.457.644-.607s.616-.224 1.008-.224c.261 0 .504.037.728.112h1.727v.653l-.821.047c.149.255.224.538.224.849s-.075.591-.224.84a1.55 1.55 0 0 1-.635.597c-.274.149-.607.224-.999.224zm0-.775c.286 0 .516-.075.691-.224.18-.156.271-.373.271-.653 0-.286-.09-.504-.271-.653-.174-.149-.404-.224-.691-.224-.292 0-.529.075-.709.224-.174.149-.261.367-.261.653 0 .28.087.498.261.653.18.149.417.224.709.224zm-1.241 2.781c0 .268.118.467.355.597.236.137.532.205.887.205.342 0 .619-.075.831-.224a.664.664 0 0 0 .317-.579.614.614 0 0 0-.215-.467c-.143-.124-.414-.202-.812-.233a8.394 8.394 0 0 1-.793-.084c-.218.118-.367.246-.448.383s-.121.271-.121.401zm8.348-.476a2.4 2.4 0 0 1-1.195-.299 2.273 2.273 0 0 1-.831-.849c-.205-.367-.308-.793-.308-1.279s.103-.908.308-1.269c.212-.367.495-.65.849-.849.355-.205.75-.308 1.185-.308.442 0 .837.103 1.185.308.355.199.635.482.84.849.212.361.317.784.317 1.269s-.106.912-.317 1.279a2.238 2.238 0 0 1-.84.849 2.4 2.4 0 0 1-1.195.299zm0-.849a1.298 1.298 0 0 0 1.148-.7c.124-.236.187-.529.187-.877s-.062-.638-.187-.868a1.227 1.227 0 0 0-.485-.532 1.312 1.312 0 0 0-1.316 0 1.304 1.304 0 0 0-.485.532c-.124.23-.187.52-.187.868s.062.641.187.877c.124.23.286.404.485.523s.417.177.653.177zm4.757.849c-.56 0-1.002-.174-1.325-.523-.317-.348-.476-.868-.476-1.559v-2.66h.989v2.557c0 .896.367 1.344 1.101 1.344.367 0 .669-.131.905-.392s.355-.635.355-1.12v-2.389h.989v4.629h-.877l-.075-.812a1.633 1.633 0 0 1-.635.681 1.834 1.834 0 0 1-.952.243zm5.365-.112c-.454 0-.815-.109-1.083-.327-.268-.224-.401-.619-.401-1.185v-2.287h-.793v-.831h.793l.121-1.176h.868v1.176h1.307v.831H44.67v2.287c0 .255.053.432.159.532.112.093.302.14.569.14h.532v.84h-.765z"/><path stroke-linecap="round" stroke-linejoin="round" stroke-width="1.333" d="M51.556 16h8.889m-.001 0-3.333-3.333M60.444 16l-3.333 3.333"/></symbol><symbol id="icon-button_log_out_desktop" viewBox="0 0 123 32"><path d="M0 0h122.667v32H0V0z"/><path d="M.5 12C.5 5.649 5.649.5 12 .5h98.667c6.351 0 11.5 5.149 11.5 11.5v8c0 6.351-5.149 11.5-11.5 11.5H12C5.649 31.5.5 26.351.5 20v-8z"/><path d="M9.996 19.333V12.8h.989v5.749h2.968v.784H9.996zm6.576.112a2.4 2.4 0 0 1-1.195-.299 2.273 2.273 0 0 1-.831-.849c-.205-.367-.308-.793-.308-1.279s.103-.908.308-1.269c.212-.367.495-.65.849-.849.355-.205.75-.308 1.185-.308.442 0 .837.103 1.185.308.355.199.635.482.84.849.212.361.317.784.317 1.269s-.106.912-.317 1.279a2.238 2.238 0 0 1-.84.849 2.4 2.4 0 0 1-1.195.299zm0-.849a1.298 1.298 0 0 0 1.148-.7c.124-.236.187-.529.187-.877s-.062-.638-.187-.868a1.227 1.227 0 0 0-.485-.532 1.312 1.312 0 0 0-1.316 0 1.304 1.304 0 0 0-.485.532c-.124.23-.187.52-.187.868s.062.641.187.877c.124.23.286.404.485.523s.417.177.653.177zm4.697-.681c-.243 0-.467-.028-.672-.084l-.401.392c.068.044.152.081.252.112s.24.059.42.084c.18.025.426.05.737.075.616.056 1.061.205 1.335.448.274.236.411.554.411.952 0 .274-.075.532-.224.775-.143.249-.37.448-.681.597-.305.156-.697.233-1.176.233-.647 0-1.173-.124-1.577-.373-.398-.243-.597-.613-.597-1.111 0-.193.05-.386.149-.579.106-.187.271-.364.495-.532a2.51 2.51 0 0 1-.345-.177 3.096 3.096 0 0 1-.252-.205v-.224l.803-.821c-.361-.311-.541-.719-.541-1.223 0-.305.072-.582.215-.831.149-.255.364-.457.644-.607s.616-.224 1.008-.224c.261 0 .504.037.728.112h1.727v.653l-.821.047c.149.255.224.538.224.849s-.075.591-.224.84a1.55 1.55 0 0 1-.635.597c-.274.149-.607.224-.999.224zm0-.775c.286 0 .516-.075.691-.224.18-.156.271-.373.271-.653 0-.286-.09-.504-.271-.653-.174-.149-.404-.224-.691-.224-.292 0-.529.075-.709.224-.174.149-.261.367-.261.653 0 .28.087.498.261.653.18.149.417.224.709.224zm-1.241 2.781c0 .268.118.467.355.597.236.137.532.205.887.205.342 0 .619-.075.831-.224a.664.664 0 0 0 .317-.579.614.614 0 0 0-.215-.467c-.143-.124-.414-.202-.812-.233a8.394 8.394 0 0 1-.793-.084c-.218.118-.367.246-.448.383s-.121.271-.121.401zm8.349-.476a2.4 2.4 0 0 1-1.195-.299 2.273 2.273 0 0 1-.831-.849c-.205-.367-.308-.793-.308-1.279s.103-.908.308-1.269c.212-.367.495-.65.849-.849.355-.205.75-.308 1.185-.308.442 0 .837.103 1.185.308.355.199.635.482.84.849.212.361.317.784.317 1.269s-.106.912-.317 1.279a2.238 2.238 0 0 1-.84.849 2.4 2.4 0 0 1-1.195.299zm0-.849a1.298 1.298 0 0 0 1.148-.7c.124-.236.187-.529.187-.877s-.062-.638-.187-.868a1.227 1.227 0 0 0-.485-.532 1.312 1.312 0 0 0-1.316 0 1.304 1.304 0 0 0-.485.532c-.124.23-.187.52-.187.868s.062.641.187.877c.124.23.286.404.485.523s.417.177.653.177zm4.756.849c-.56 0-1.002-.174-1.325-.523-.317-.348-.476-.868-.476-1.559v-2.66h.989v2.557c0 .896.367 1.344 1.101 1.344.367 0 .669-.131.905-.392s.355-.635.355-1.12v-2.389h.989v4.629h-.877l-.075-.812a1.633 1.633 0 0 1-.635.681 1.834 1.834 0 0 1-.952.243zm5.366-.112c-.454 0-.815-.109-1.083-.327-.268-.224-.401-.619-.401-1.185v-2.287h-.793v-.831h.793l.121-1.176h.868v1.176h1.307v.831h-1.307v2.287c0 .255.053.432.159.532.112.093.302.14.569.14h.532v.84h-.765z"/><path stroke-linecap="round" stroke-linejoin="round" stroke-width="1.333" d="M102.222 16h8.889m0 0-3.333-3.333M111.111 16l-3.333 3.333"/></symbol><symbol id="icon-button_add_to_shopping_list_hover" viewBox="0 0 250 32"><path d="M16 0h217.5c8.837 0 16 7.163 16 16s-7.163 16-16 16H16C7.163 32 0 24.837 0 16S7.163 0 16 0z"/><path d="m74.957 19 2.304-6.3h1.296l2.304 6.3h-1.224l-.504-1.458h-2.457L76.163 19h-1.206zm2.034-2.358h1.827l-.918-2.619-.909 2.619zM81.582 19v-6.3h2.151c.738 0 1.344.132 1.818.396.48.258.834.624 1.062 1.098.234.468.351 1.02.351 1.656s-.117 1.191-.351 1.665a2.468 2.468 0 0 1-1.062 1.098c-.474.258-1.08.387-1.818.387h-2.151zm1.152-.99h.945c.528 0 .945-.084 1.251-.252.306-.174.525-.42.657-.738.132-.324.198-.714.198-1.17 0-.45-.066-.837-.198-1.161s-.351-.573-.657-.747c-.306-.174-.723-.261-1.251-.261h-.945v4.329zm5.157.99v-6.3h2.151c.738 0 1.344.132 1.818.396.48.258.834.624 1.062 1.098.234.468.351 1.02.351 1.656s-.117 1.191-.351 1.665a2.468 2.468 0 0 1-1.062 1.098c-.474.258-1.08.387-1.818.387h-2.151zm1.152-.99h.945c.528 0 .945-.084 1.251-.252.306-.174.525-.42.657-.738.132-.324.198-.714.198-1.17 0-.45-.066-.837-.198-1.161s-.351-.573-.657-.747c-.306-.174-.723-.261-1.251-.261h-.945v4.329zm8.678.99v-5.373h-1.836V12.7h4.833v.927h-1.845V19h-1.152zm6.484.108c-.63 0-1.182-.138-1.656-.414a2.981 2.981 0 0 1-1.107-1.143c-.264-.492-.396-1.059-.396-1.701s.132-1.206.396-1.692c.27-.492.639-.876 1.107-1.152.474-.276 1.026-.414 1.656-.414.624 0 1.173.138 1.647.414s.843.66 1.107 1.152c.264.486.396 1.05.396 1.692s-.132 1.209-.396 1.701c-.264.486-.633.867-1.107 1.143s-1.023.414-1.647.414zm0-1.035c.6 0 1.077-.198 1.431-.594.36-.396.54-.939.54-1.629s-.18-1.233-.54-1.629c-.354-.396-.831-.594-1.431-.594s-1.08.198-1.44.594c-.36.396-.54.939-.54 1.629s.18 1.233.54 1.629c.36.396.84.594 1.44.594zm8.282 1.035a3.01 3.01 0 0 1-1.224-.234 2.012 2.012 0 0 1-.837-.684c-.204-.3-.309-.663-.315-1.089h1.215a1.1 1.1 0 0 0 .315.747c.204.198.483.297.837.297.306 0 .549-.072.729-.216.18-.15.27-.348.27-.594 0-.258-.081-.459-.243-.603-.156-.144-.366-.261-.63-.351l-.846-.288c-.486-.168-.858-.384-1.116-.648-.252-.264-.378-.615-.378-1.053-.006-.372.081-.69.261-.954.186-.27.438-.477.756-.621.318-.15.684-.225 1.098-.225.42 0 .789.075 1.107.225.324.15.576.36.756.63.186.27.285.591.297.963h-1.233a.836.836 0 0 0-.261-.585c-.162-.174-.39-.261-.684-.261a.986.986 0 0 0-.639.189c-.168.126-.252.312-.252.558 0 .21.066.378.198.504.132.12.312.222.54.306s.489.174.783.27c.312.108.597.234.855.378s.465.336.621.576c.156.234.234.537.234.909 0 .33-.084.636-.252.918s-.417.51-.747.684c-.33.168-.735.252-1.215.252zm3.13-.108v-6.3h1.152v2.619h2.826V12.7h1.152V19h-1.152v-2.745h-2.826V19h-1.152zm9.216.108c-.63 0-1.182-.138-1.656-.414a2.981 2.981 0 0 1-1.107-1.143c-.264-.492-.396-1.059-.396-1.701s.132-1.206.396-1.692c.27-.492.639-.876 1.107-1.152.474-.276 1.026-.414 1.656-.414.624 0 1.173.138 1.647.414s.843.66 1.107 1.152c.264.486.396 1.05.396 1.692s-.132 1.209-.396 1.701c-.264.486-.633.867-1.107 1.143s-1.023.414-1.647.414zm0-1.035c.6 0 1.077-.198 1.431-.594.36-.396.54-.939.54-1.629s-.18-1.233-.54-1.629c-.354-.396-.831-.594-1.431-.594s-1.08.198-1.44.594c-.36.396-.54.939-.54 1.629s.18 1.233.54 1.629c.36.396.84.594 1.44.594zm4.077.927v-6.3h2.331c.504 0 .921.084 1.251.252s.576.399.738.693c.162.294.243.624.243.99 0 .348-.078.669-.234.963a1.755 1.755 0 0 1-.729.702c-.33.174-.753.261-1.269.261h-1.179V19h-1.152zm1.152-3.375h1.107c.402 0 .69-.087.864-.261.18-.18.27-.423.27-.729 0-.312-.09-.555-.27-.729-.174-.18-.462-.27-.864-.27h-1.107v1.989zM134.287 19v-6.3h2.331c.504 0 .921.084 1.251.252s.576.399.738.693c.162.294.243.624.243.99 0 .348-.078.669-.234.963a1.755 1.755 0 0 1-.729.702c-.33.174-.753.261-1.269.261h-1.179V19h-1.152zm1.152-3.375h1.107c.402 0 .69-.087.864-.261.18-.18.27-.423.27-.729 0-.312-.09-.555-.27-.729-.174-.18-.462-.27-.864-.27h-1.107v1.989zM139.664 19v-6.3h1.152V19h-1.152zm2.283 0v-6.3h1.152l2.961 4.437V12.7h1.152V19h-1.152l-2.961-4.428V19h-1.152zm9.15.108c-.594 0-1.113-.135-1.557-.405s-.789-.645-1.035-1.125c-.246-.486-.369-1.05-.369-1.692 0-.648.126-1.218.378-1.71a2.826 2.826 0 0 1 1.089-1.161c.474-.282 1.035-.423 1.683-.423.738 0 1.35.177 1.836.531s.801.843.945 1.467h-1.287a1.247 1.247 0 0 0-.522-.684c-.252-.168-.576-.252-.972-.252-.63 0-1.116.201-1.458.603-.342.396-.513.942-.513 1.638s.168 1.236.504 1.62c.342.378.804.567 1.386.567.57 0 .999-.153 1.287-.459.294-.312.471-.72.531-1.224h-1.593v-.864h2.754V19h-1.062l-.09-.828c-.204.3-.459.531-.765.693s-.696.243-1.17.243zm6.171-.108v-6.3h1.152v5.4h2.79v.9h-3.942zm4.868 0v-6.3h1.152V19h-1.152zm4.434.108a3.01 3.01 0 0 1-1.224-.234 2.012 2.012 0 0 1-.837-.684c-.204-.3-.309-.663-.315-1.089h1.215a1.1 1.1 0 0 0 .315.747c.204.198.483.297.837.297.306 0 .549-.072.729-.216.18-.15.27-.348.27-.594 0-.258-.081-.459-.243-.603-.156-.144-.366-.261-.63-.351l-.846-.288c-.486-.168-.858-.384-1.116-.648-.252-.264-.378-.615-.378-1.053-.006-.372.081-.69.261-.954.186-.27.438-.477.756-.621.318-.15.684-.225 1.098-.225.42 0 .789.075 1.107.225.324.15.576.36.756.63.186.27.285.591.297.963h-1.233a.836.836 0 0 0-.261-.585c-.162-.174-.39-.261-.684-.261a.986.986 0 0 0-.639.189c-.168.126-.252.312-.252.558 0 .21.066.378.198.504.132.12.312.222.54.306s.489.174.783.27c.312.108.597.234.855.378s.465.336.621.576c.156.234.234.537.234.909 0 .33-.084.636-.252.918s-.417.51-.747.684c-.33.168-.735.252-1.215.252zm4.517-.108v-5.373h-1.836V12.7h4.833v.927h-1.845V19h-1.152z"/></symbol><symbol id="icon-button_add_to_shopping_list_focus" viewBox="0 0 171 32"><path d="M16 4.48h139.2c5.655 0 10.24 4.585 10.24 10.24s-4.585 10.24-10.24 10.24H16c-5.655 0-10.24-4.585-10.24-10.24S10.345 4.48 16 4.48z"/><path d="m53.732 16.64 1.475-4.032h.829l1.475 4.032h-.783l-.323-.933h-1.572l-.328.933h-.772zm1.302-1.509h1.169l-.588-1.676-.582 1.676zm2.939 1.509v-4.032h1.377c.472 0 .86.084 1.164.253.307.165.534.399.68.703.15.3.225.653.225 1.06s-.075.762-.225 1.066c-.146.3-.372.534-.68.703-.303.165-.691.248-1.164.248h-1.377zm.737-.634h.605c.338 0 .605-.054.801-.161a.946.946 0 0 0 .42-.472c.084-.207.127-.457.127-.749 0-.288-.042-.536-.127-.743s-.225-.367-.42-.478c-.196-.111-.463-.167-.801-.167h-.605v2.771zm3.3.634v-4.032h1.377c.472 0 .86.084 1.164.253.307.165.534.399.68.703.15.3.225.653.225 1.06s-.075.762-.225 1.066c-.146.3-.372.534-.68.703-.303.165-.691.248-1.164.248H62.01zm.738-.634h.605c.338 0 .605-.054.801-.161a.946.946 0 0 0 .42-.472c.084-.207.127-.457.127-.749 0-.288-.042-.536-.127-.743s-.225-.367-.42-.478c-.196-.111-.463-.167-.801-.167h-.605v2.771zm5.553.634v-3.439h-1.175v-.593h3.093v.593h-1.181v3.439h-.737zm4.15.069c-.403 0-.756-.088-1.06-.265-.3-.177-.536-.42-.708-.732-.169-.315-.253-.678-.253-1.089s.084-.772.253-1.083c.173-.315.409-.561.708-.737a2.065 2.065 0 0 1 1.06-.265c.399 0 .751.088 1.054.265s.54.422.708.737c.169.311.253.672.253 1.083s-.084.774-.253 1.089c-.169.311-.405.555-.708.732s-.655.265-1.054.265zm0-.662c.384 0 .689-.127.916-.38.23-.253.346-.601.346-1.043s-.115-.789-.346-1.043c-.227-.253-.532-.38-.916-.38s-.691.127-.922.38c-.23.253-.346.601-.346 1.043s.115.789.346 1.043c.23.253.538.38.922.38zm5.301.662c-.296 0-.557-.05-.783-.15a1.293 1.293 0 0 1-.536-.438 1.24 1.24 0 0 1-.202-.697h.778a.704.704 0 0 0 .202.478c.131.127.309.19.536.19.196 0 .351-.046.467-.138a.471.471 0 0 0 .173-.38.489.489 0 0 0-.156-.386c-.1-.092-.234-.167-.403-.225l-.541-.184c-.311-.108-.549-.246-.714-.415-.161-.169-.242-.394-.242-.674a1.029 1.029 0 0 1 .167-.611c.119-.173.28-.305.484-.397.204-.096.438-.144.703-.144.269 0 .505.048.708.144.207.096.369.23.484.403.119.173.182.378.19.616h-.789a.536.536 0 0 0-.167-.374c-.104-.111-.25-.167-.438-.167a.627.627 0 0 0-.409.121c-.108.081-.161.2-.161.357 0 .134.042.242.127.323.084.077.2.142.346.196s.313.111.501.173c.2.069.382.15.547.242s.298.215.397.369c.1.15.15.344.15.582 0 .211-.054.407-.161.588s-.267.326-.478.438c-.211.108-.47.161-.778.161zm2.003-.069v-4.032h.737v1.676h1.809v-1.676h.737v4.032h-.737v-1.757h-1.809v1.757h-.737zm5.898.069c-.403 0-.756-.088-1.06-.265-.3-.177-.536-.42-.708-.732-.169-.315-.253-.678-.253-1.089s.084-.772.253-1.083c.173-.315.409-.561.708-.737a2.065 2.065 0 0 1 1.06-.265c.399 0 .751.088 1.054.265s.54.422.708.737c.169.311.253.672.253 1.083s-.084.774-.253 1.089c-.169.311-.405.555-.708.732s-.655.265-1.054.265zm0-.662c.384 0 .689-.127.916-.38.23-.253.346-.601.346-1.043s-.115-.789-.346-1.043c-.227-.253-.532-.38-.916-.38s-.691.127-.922.38c-.23.253-.346.601-.346 1.043s.115.789.346 1.043c.23.253.538.38.922.38zm2.609.593v-4.032h1.492c.323 0 .589.054.801.161s.369.255.472.444c.104.188.156.399.156.634 0 .223-.05.428-.15.616a1.12 1.12 0 0 1-.467.449c-.211.111-.482.167-.812.167h-.755v1.561h-.737zM89 14.48h.708c.257 0 .442-.056.553-.167a.632.632 0 0 0 .173-.467c0-.2-.058-.355-.173-.467-.111-.115-.296-.173-.553-.173H89v1.273zm2.704 2.16v-4.032h1.492c.323 0 .589.054.801.161s.369.255.472.444c.104.188.156.399.156.634 0 .223-.05.428-.15.616a1.12 1.12 0 0 1-.467.449c-.211.111-.482.167-.812.167h-.755v1.561h-.737zm.737-2.16h.708c.257 0 .442-.056.553-.167a.632.632 0 0 0 .173-.467c0-.2-.058-.355-.173-.467-.111-.115-.296-.173-.553-.173h-.708v1.273zm2.704 2.16v-4.032h.737v4.032h-.737zm1.461 0v-4.032h.737l1.895 2.84v-2.84h.737v4.032h-.737l-1.895-2.834v2.834h-.737zm5.856.069c-.38 0-.712-.086-.996-.259s-.505-.413-.662-.72a2.373 2.373 0 0 1-.236-1.083c0-.415.081-.78.242-1.094.165-.319.397-.566.697-.743.303-.18.662-.271 1.077-.271.472 0 .864.113 1.175.34s.513.54.605.939h-.824a.8.8 0 0 0-.334-.438c-.161-.108-.369-.161-.622-.161-.403 0-.714.129-.933.386-.219.253-.328.603-.328 1.048s.108.791.323 1.037c.219.242.515.363.887.363.365 0 .639-.098.824-.294.188-.2.301-.461.34-.783h-1.02v-.553h1.763v2.218h-.68l-.058-.53c-.131.192-.294.34-.49.444s-.445.156-.749.156zm3.95-.069v-4.032h.737v3.456h1.786v.576h-2.523zm3.115 0v-4.032h.737v4.032h-.737zm2.838.069c-.296 0-.557-.05-.783-.15a1.293 1.293 0 0 1-.536-.438 1.24 1.24 0 0 1-.202-.697h.778a.704.704 0 0 0 .202.478c.131.127.309.19.536.19.196 0 .351-.046.467-.138a.471.471 0 0 0 .173-.38.489.489 0 0 0-.156-.386c-.1-.092-.234-.167-.403-.225l-.541-.184c-.311-.108-.549-.246-.714-.415-.161-.169-.242-.394-.242-.674a1.029 1.029 0 0 1 .167-.611c.119-.173.28-.305.484-.397.204-.096.438-.144.703-.144.269 0 .505.048.708.144.207.096.369.23.484.403.119.173.182.378.19.616h-.789a.536.536 0 0 0-.167-.374c-.104-.111-.25-.167-.438-.167a.627.627 0 0 0-.409.121c-.108.081-.161.2-.161.357 0 .134.042.242.127.323.084.077.2.142.346.196s.313.111.501.173c.2.069.382.15.547.242s.298.215.397.369c.1.15.15.344.15.582 0 .211-.054.407-.161.588s-.267.326-.478.438c-.211.108-.47.161-.778.161zm2.891-.069v-3.439h-1.175v-.593h3.093v.593h-1.181v3.439h-.737z"/></symbol><symbol id="icon-button_add_to_shopping_list_default" viewBox="0 0 250 32"><path d="m74.957 19 2.304-6.3h1.296l2.304 6.3h-1.224l-.504-1.458h-2.457L76.163 19h-1.206zm2.034-2.358h1.827l-.918-2.619-.909 2.619zM81.582 19v-6.3h2.151c.738 0 1.344.132 1.818.396.48.258.834.624 1.062 1.098.234.468.351 1.02.351 1.656s-.117 1.191-.351 1.665a2.468 2.468 0 0 1-1.062 1.098c-.474.258-1.08.387-1.818.387h-2.151zm1.152-.99h.945c.528 0 .945-.084 1.251-.252.306-.174.525-.42.657-.738.132-.324.198-.714.198-1.17 0-.45-.066-.837-.198-1.161s-.351-.573-.657-.747c-.306-.174-.723-.261-1.251-.261h-.945v4.329zm5.157.99v-6.3h2.151c.738 0 1.344.132 1.818.396.48.258.834.624 1.062 1.098.234.468.351 1.02.351 1.656s-.117 1.191-.351 1.665a2.468 2.468 0 0 1-1.062 1.098c-.474.258-1.08.387-1.818.387h-2.151zm1.152-.99h.945c.528 0 .945-.084 1.251-.252.306-.174.525-.42.657-.738.132-.324.198-.714.198-1.17 0-.45-.066-.837-.198-1.161s-.351-.573-.657-.747c-.306-.174-.723-.261-1.251-.261h-.945v4.329zm8.678.99v-5.373h-1.836V12.7h4.833v.927h-1.845V19h-1.152zm6.484.108c-.63 0-1.182-.138-1.656-.414a2.981 2.981 0 0 1-1.107-1.143c-.264-.492-.396-1.059-.396-1.701s.132-1.206.396-1.692c.27-.492.639-.876 1.107-1.152.474-.276 1.026-.414 1.656-.414.624 0 1.173.138 1.647.414s.843.66 1.107 1.152c.264.486.396 1.05.396 1.692s-.132 1.209-.396 1.701c-.264.486-.633.867-1.107 1.143s-1.023.414-1.647.414zm0-1.035c.6 0 1.077-.198 1.431-.594.36-.396.54-.939.54-1.629s-.18-1.233-.54-1.629c-.354-.396-.831-.594-1.431-.594s-1.08.198-1.44.594c-.36.396-.54.939-.54 1.629s.18 1.233.54 1.629c.36.396.84.594 1.44.594zm8.282 1.035a3.01 3.01 0 0 1-1.224-.234 2.012 2.012 0 0 1-.837-.684c-.204-.3-.309-.663-.315-1.089h1.215a1.1 1.1 0 0 0 .315.747c.204.198.483.297.837.297.306 0 .549-.072.729-.216.18-.15.27-.348.27-.594 0-.258-.081-.459-.243-.603-.156-.144-.366-.261-.63-.351l-.846-.288c-.486-.168-.858-.384-1.116-.648-.252-.264-.378-.615-.378-1.053-.006-.372.081-.69.261-.954.186-.27.438-.477.756-.621.318-.15.684-.225 1.098-.225.42 0 .789.075 1.107.225.324.15.576.36.756.63.186.27.285.591.297.963h-1.233a.836.836 0 0 0-.261-.585c-.162-.174-.39-.261-.684-.261a.986.986 0 0 0-.639.189c-.168.126-.252.312-.252.558 0 .21.066.378.198.504.132.12.312.222.54.306s.489.174.783.27c.312.108.597.234.855.378s.465.336.621.576c.156.234.234.537.234.909 0 .33-.084.636-.252.918s-.417.51-.747.684c-.33.168-.735.252-1.215.252zm3.13-.108v-6.3h1.152v2.619h2.826V12.7h1.152V19h-1.152v-2.745h-2.826V19h-1.152zm9.216.108c-.63 0-1.182-.138-1.656-.414a2.981 2.981 0 0 1-1.107-1.143c-.264-.492-.396-1.059-.396-1.701s.132-1.206.396-1.692c.27-.492.639-.876 1.107-1.152.474-.276 1.026-.414 1.656-.414.624 0 1.173.138 1.647.414s.843.66 1.107 1.152c.264.486.396 1.05.396 1.692s-.132 1.209-.396 1.701c-.264.486-.633.867-1.107 1.143s-1.023.414-1.647.414zm0-1.035c.6 0 1.077-.198 1.431-.594.36-.396.54-.939.54-1.629s-.18-1.233-.54-1.629c-.354-.396-.831-.594-1.431-.594s-1.08.198-1.44.594c-.36.396-.54.939-.54 1.629s.18 1.233.54 1.629c.36.396.84.594 1.44.594zm4.077.927v-6.3h2.331c.504 0 .921.084 1.251.252s.576.399.738.693c.162.294.243.624.243.99 0 .348-.078.669-.234.963a1.755 1.755 0 0 1-.729.702c-.33.174-.753.261-1.269.261h-1.179V19h-1.152zm1.152-3.375h1.107c.402 0 .69-.087.864-.261.18-.18.27-.423.27-.729 0-.312-.09-.555-.27-.729-.174-.18-.462-.27-.864-.27h-1.107v1.989zM134.287 19v-6.3h2.331c.504 0 .921.084 1.251.252s.576.399.738.693c.162.294.243.624.243.99 0 .348-.078.669-.234.963a1.755 1.755 0 0 1-.729.702c-.33.174-.753.261-1.269.261h-1.179V19h-1.152zm1.152-3.375h1.107c.402 0 .69-.087.864-.261.18-.18.27-.423.27-.729 0-.312-.09-.555-.27-.729-.174-.18-.462-.27-.864-.27h-1.107v1.989zM139.664 19v-6.3h1.152V19h-1.152zm2.283 0v-6.3h1.152l2.961 4.437V12.7h1.152V19h-1.152l-2.961-4.428V19h-1.152zm9.15.108c-.594 0-1.113-.135-1.557-.405s-.789-.645-1.035-1.125c-.246-.486-.369-1.05-.369-1.692 0-.648.126-1.218.378-1.71a2.826 2.826 0 0 1 1.089-1.161c.474-.282 1.035-.423 1.683-.423.738 0 1.35.177 1.836.531s.801.843.945 1.467h-1.287a1.247 1.247 0 0 0-.522-.684c-.252-.168-.576-.252-.972-.252-.63 0-1.116.201-1.458.603-.342.396-.513.942-.513 1.638s.168 1.236.504 1.62c.342.378.804.567 1.386.567.57 0 .999-.153 1.287-.459.294-.312.471-.72.531-1.224h-1.593v-.864h2.754V19h-1.062l-.09-.828c-.204.3-.459.531-.765.693s-.696.243-1.17.243zm6.171-.108v-6.3h1.152v5.4h2.79v.9h-3.942zm4.868 0v-6.3h1.152V19h-1.152zm4.434.108a3.01 3.01 0 0 1-1.224-.234 2.012 2.012 0 0 1-.837-.684c-.204-.3-.309-.663-.315-1.089h1.215a1.1 1.1 0 0 0 .315.747c.204.198.483.297.837.297.306 0 .549-.072.729-.216.18-.15.27-.348.27-.594 0-.258-.081-.459-.243-.603-.156-.144-.366-.261-.63-.351l-.846-.288c-.486-.168-.858-.384-1.116-.648-.252-.264-.378-.615-.378-1.053-.006-.372.081-.69.261-.954.186-.27.438-.477.756-.621.318-.15.684-.225 1.098-.225.42 0 .789.075 1.107.225.324.15.576.36.756.63.186.27.285.591.297.963h-1.233a.836.836 0 0 0-.261-.585c-.162-.174-.39-.261-.684-.261a.986.986 0 0 0-.639.189c-.168.126-.252.312-.252.558 0 .21.066.378.198.504.132.12.312.222.54.306s.489.174.783.27c.312.108.597.234.855.378s.465.336.621.576c.156.234.234.537.234.909 0 .33-.084.636-.252.918s-.417.51-.747.684c-.33.168-.735.252-1.215.252zm4.517-.108v-5.373h-1.836V12.7h4.833v.927h-1.845V19h-1.152z"/><path d="M16 .5h217.5C242.06.5 249 7.44 249 16s-6.94 15.5-15.5 15.5H16C7.44 31.5.5 24.56.5 16S7.44.5 16 .5z"/></symbol><symbol id="icon-supportUkraine1" viewBox="0 0 87 32"><path d="M9.309 4.655h68.073v22.691H9.309V4.655z"/></symbol><symbol id="icon-supportUkraine2" viewBox="0 0 87 32"><path d="M19.2 4.655h47.127v22.691H19.2V4.655z"/></symbol><symbol id="icon-supportUkraine4" viewBox="0 0 87 32"><path d="M22.109 1.745h45.382v28.509H22.109V1.745z"/></symbol><symbol id="icon-supportUkraine3" viewBox="0 0 87 32"><path d="M12.8 5.818h61.091v20.364H12.8V5.818z"/></symbol><symbol id="icon-supportUkraine5" viewBox="0 0 87 32"><path d="M4.655 2.327h77.382v27.345H4.655V2.327z"/></symbol><symbol id="icon-supportUkraine6" viewBox="0 0 87 32"><path d="M5.818 5.818h75.055v20.364H5.818V5.818z"/></symbol><symbol id="icon-supportUkraine7" viewBox="0 0 87 32"><path d="M0 11.636h86.691v8.727H0v-8.727z"/></symbol><symbol id="icon-supportUkraine8" viewBox="0 0 87 32"><path d="M16.873 2.909h52.364v26.182H16.873V2.909z"/></symbol><symbol id="icon-supportUkraine" viewBox="0 0 87 32"><path d="M0 6.4h86.691v19.2H0V6.4z"/></symbol><symbol id="icon-checkmark" viewBox="0 0 32 32"><path d="M27 4 12 19l-7-7-5 5 12 12L32 9z"/></symbol></defs></svg>