<?xml version="1.0" encoding="utf-8"?>
<!-- Generator: Adobe Illustrator 19.2.1, SVG Export Plug-In . SVG Version: 6.00 Build 0)  -->
<svg version="1.1" id="layer" xmlns="http://www.w3.org/2000/svg" xmlns:xlink="http://www.w3.org/1999/xlink" x="0px" y="0px"
	 viewBox="0 0 652 652" style="enable-background:new 0 0 652 652;" xml:space="preserve">
<style type="text/css">
	.st0{fill:#991B1E;}
</style>
<g>
	<path class="st0" d="M472.5,369.7c1.2,4-4.7,4.3-1.8,8.6c3.9-0.5,2-5.4,5.1-6.4c-0.6-2.5,1.3-3.2,1.1-5.4
		C475.1,367.3,473.9,368.6,472.5,369.7"/>
	<path class="st0" d="M489.5,348.1c-2.1-0.2-2.4,2.2-1.4,3.2C489.6,351,490,349.9,489.5,348.1"/>
	<path class="st0" d="M468.5,389.2c0.1,0.5-0.1,0.8-0.2,1.2c0.8,0.7,1.6-0.2,1.7-1C469.5,389.3,469.2,388.9,468.5,389.2"/>
	<path class="st0" d="M476.7,362.3c-0.7,1.1-0.5,2.5,0.5,3.3c2.4-0.2,3.3-1.5,3.3-3.5C479.6,361.2,478.7,362.3,476.7,362.3"/>
	<path class="st0" d="M509.2,249.7C513.9,249.5,508.6,245.5,509.2,249.7"/>
	<path class="st0" d="M481,360.2c1.9,0,2.8-0.8,2.3-2.6C481.7,357.1,480.2,358.1,481,360.2"/>
	<path class="st0" d="M542.5,306.5c-3.2,4.5-4.4,10.6-7.7,15.1c-3.1,13.2-10.7,23-15,35.4c-0.6,0.4-1.3,0.8-2.1,1.1
		c-2.7,6.8-7.5,12-9.8,19.1c-8.3,11.3-13.4,24.4-20.9,36.2c-1.7,2.7-3.8,4.8-5.4,7.6c-4.9,8.6-10.3,18.1-16.3,26.5
		c-7.2,10.1-11.1,16.4-19.3,24.8c-2.2,2.3-4.5,4.9-7.3,7.1c-0.1-2.5,2.4-3,3.1-5c-0.4-4.7,5-6.5,3.3-11.1c3.1-3.6,0.1-4.5,3.1-8.1
		c0.8-0.9,1.6-4.2,2.2-4.8c3.7-2.2,5.8-3.2,4.3-8.2c3.3-0.6,2.5-5.3,3.2-6.9c2.3-2.4,3-5.9,6.5-7.4c0.2-1.7-0.9-1.8-1.2-2.9
		c3.3-4,6.6-8.1,7.9-13.6c5.9-3,5.2-10.9,10-14.6c0.3-7.4,7.3-9.7,7-17.6c1-0.6,2-1.1,3.2-1.6c0.4-0.5,0.1-1.7,0-2.6
		c2.8-1.6,2.5-5.4,5.5-6.8c3.9-11,12.1-18.7,15.4-30.1c1.1-0.5,1.6-1.5,2.8-1.9c0.2-1.1,0.1-2.3,0.3-3.4c3.3-3.8,6.2-7.9,7.2-13.5
		c6.2-5.5,7.9-14.3,14.2-19.8c0-1.2,0.9-1.8,0.7-3.1c4.6-4.2,6.8-10.1,9.5-15.7c0.9-1.1,2.3-1.8,3-3.1c0.4-0.1,0.7,0,0.8,0.3
		C549.3,288.5,543.3,295.5,542.5,306.5 M449.6,434.6c-0.4-5.2,3.8-9.7,4.3-15.3c0.7-1.5,2.1-2.4,2.4-4.1
		C458,421.9,451.3,428.1,449.6,434.6 M460.4,407c-0.4,2.8-1.5,5-3.2,6.9c-0.8-2.1,1.1-5.2,2-7.1C459.8,406.6,459.9,407,460.4,407
		 M461.5,401.5c0.8,0.6,0.5,3.2-1.1,3.2C459.2,403.2,460.4,402.2,461.5,401.5 M437.5,437c-2.6-1.5-0.3-5.5,1.7-6.7
		c0.7-4.8,4-7.8,4.6-12.7c4.1-2.4,3.1-8.7,7.1-11.2c0.7-4.3,4.2-6.6,4-11.5c3.4-2.3,2.5-7.9,6.2-9.9c-1.3-3.8,2.5-3.9,2.4-6.8
		c1.3,0.1,0,3,2,3.1c-3.1,1.6-3,5.5-5.8,7.2c0.3,5.2-1.5,8.8-5.3,10.9c0.1,2.4-0.9,4-2.3,5.2c0.1,1.5,1.1,1.7,1.2,3.2
		c-3.7,2.5-7.2,6.9-5.8,12.2c-3.1,2.1-5.8,4.5-5.1,9.4C439.2,430.8,438.6,434.2,437.5,437 M435.5,420.7c-1.4-2.8-0.3-4.9,1-6.6
		c0.2-1.5-1.3-1-1.1-2.5c2.6-3.5,6.6-6.1,7.9-10.6l2.2-0.3C441.6,407,439.8,414.7,435.5,420.7 M461,363.4c0.4-0.7,0.6-1.6,1.6-1.7
		C462.9,362.8,461.9,363.1,461,363.4 M432.2,378.8c2-12.8,10.6-20.7,13.1-33.2c4.5-4.5,5.2-11.7,9-16.8c0.1-1.5-0.1-1.3-0.4-3
		c7.9-10.9,12.1-24.7,20.7-35.1l1.1-0.2c0.7,3.4-2.7,3.7-1.2,7.7c-4.1,5.1-6.6,11.3-8.4,18.2c-6.8,8.6-8,21.6-14.6,30.4
		c-0.2,6.8-6.1,11-5.9,17.1c-3.1,3.5-5.8,7.3-9.5,10.4c-0.3,2.1,0,4.7-2.7,4.9C433.2,379,432.9,378.7,432.2,378.8 M427.7,351.9
		c-1.5-2.8,3.6-4.8,0.4-8c3-6.6,5.9-13.2,7.2-21c4.5-7.4,9-14.9,14.3-21.7c1.6,1.6-2.1,4.5-2.9,6.4c0.7,2.6-0.6,3.7-0.7,5.8
		c-3.2,1.1-2.2,5.4-5.1,6.8c-0.2,7-5.5,10.2-5.5,17.4C432.2,341.8,431.8,348.2,427.7,351.9 M428.3,436.4c-1.6-1.5-2.2-4.3-2-6.1
		l1.5-0.2C428.5,431.6,428.4,434.6,428.3,436.4 M423.4,471.5c-1-1.9-2.2-3.6-2.4-6.5c1.5-1.4,4.3-4,6.5-2.1
		C425.7,465.5,425.6,469.3,423.4,471.5 M419.2,347.4c0.7-2.1,2.7-4.4,2.1-6.3c2.6-2.4,1.1-5.7,2.4-9.4c0.5-1.3,2.5-2.7,3.2-4.2
		c1.2-2.8,2-5.1,1.4-8.3c4.5-8.1,1.6-8.6,6.7-16.3l0.3,1.9c0.5-1.6,2.7-2,2-4.4c-0.5-1-1.2,0.4-1.8,0.3c0.1-1.6,0.5-2.9,1.3-4
		c0.8-0.2,0.4,1.3,0.6,1.8c1.6,0.1,1.1-1.4,2.9-1.2c0.2,2.3-1.8,3.1-1.1,5.8c3.8-0.5,2.8-4.5,5.2-6c0.2-1.4-1.1-0.9-1.1-2.1
		c1.8,0,2.2-3.7,0.5-4.2c1.2-1.2,2.7-2.7,1.2-5.1c0.4,0.2,0.9,0.3,1.5,0.2c-1.3-2.4-0.2-2.1-0.3-4.9c-3.4,1.7-4,5.4-5.6,8.4
		c0.2,1.2,1.4,1.1,2.7,0.7c-0.1,1.6-1.4,2.2-1.7,3.6c-2-1.8-3,1-4.7,1.4c-1.7-2.5,2.1-2.8,0.4-5.3c1.2,0,1.7-0.5,2.5-0.7
		c0.8-5.1,3.4-8.9,5.7-12.9c1.1-0.4,0.9,0.9,2,0.5c1.2-0.5,1.6-3,0.5-4.2c-1.4,0.3-1.2,1.8-1.9,2.5c-1.3,0-1-2.2-2.2-2.3
		c-4,2.8-5.7,7.4-6.5,12.6c-1.5,0.3-1.7,1.6-2.7,2.3c-5.2,16.6-7.6,22.7-12.7,39.4c-1,0.2-0.8,1.4-1.6,1.7
		c-0.2,4.4-4.7,11.4-5.4,15.4c-3.7-1,0.5-13.2-3.3-14.9c-3.1-10,3.7-11.4,4.3-20.7c3.6-5.4,4.8-5.8,6.3-12.7
		c6.2-10,9.8-21.9,16.3-31.8c-0.2-1.7,0.6-2.6,0.1-4.5c1.4-1.2,2.4-2.6,3.6-3.9c-0.6-2,1.1-2.3,1-3.9c4.7-5.3,8.1-11.5,9.8-19.1
		c3-3,5.2-8.9,7.9-13.6c1.4-2.4,3.8-3.1,3.2-6.9c1.1-0.1,1.3-1,2.1-1.4c2.8-7.3,6.5-13.9,11.2-19.7c0-4.2,4.8-4.8,3.9-9.6
		c3.2-4.6,6.3-9.4,9.3-14.2c-0.3-1.3,0.1-2.1,0.3-3.1c3.8-2.1,5.2-6,6.5-10c12.6-2,8.2,10.2,8.2,18.1c-1.1-0.2-0.9,0.7-1.8,0.6
		c0.9,5.5-4.5,8-2.7,13.2c-1.9,1.7-4.6,4.1-2.7,7.6c-1.5,1-2.3,2.5-3.7,3.5l0.4,2.6c-4.2,5.8-6.4,13-9.7,19.5c0.1,0.6,0,1.4,0.6,1.4
		c-1.1,1.9-2.8,3.4-4.2,5.1c-0.3,6.2-5,9.1-6.3,14.5c0.1,2.8-0.2,5.1-0.9,7.3c-2.3,0.3-5-1.7-6.7,0.6c0.5,1.2,1.9,1.1,2.9,1.5
		c-1.8,10.6-7.2,18.4-11.3,27.3c-2.6-2.3,0.3-7.3-3.3-9.7c-2.9,1-4.8,2.8-5.7,5.3c0.3,1.4,1.9,0.7,1.1,2.5c1.1-0.2,2.2,0.4,3.5,1
		c1.3,3.9-2,5.6,0.2,9.1c-2.4,4.1-3.2,9.5-7.7,12.1c-2.2,4.7-5.7,8.5-8,13.2c-1.1,0.4-1.4-0.2-2.3-0.1c0.4,5-8,5.9-4.5,11.2
		c-6.5,12.6-7.5,14.8-11.2,29.5C420.4,350.6,420.2,348.5,419.2,347.4 M410.7,377.2c-4.1,4.1-9.2,6.2-15.1,6.2
		c-5.8,0-10.8-2.1-15-6.3c-4.2-4.2-6.3-9.2-6.3-15c0-5.9,2.1-11,6.2-15.1c4.1-4.1,9.2-6.2,15.1-6.2c5.9,0,11,2.1,15.1,6.2
		c4.1,4.1,6.2,9.2,6.2,15.1C416.9,368.1,414.9,373.1,410.7,377.2 M383.4,309c1,1.9-0.6,4-1.1,5.8c-0.6-1-1.5-1.6-2.2-2.3
		C380.2,310.7,380.9,307.9,383.4,309 M395.1,316.5l-0.2-1.5C396.2,314.5,396.5,316.5,395.1,316.5 M438.3,248.4
		c-0.1,0.7-2.5,1.9-2.3-0.1C436.9,248.1,437.8,248,438.3,248.4 M397.2,302.5c0.4-7.6,7.5-11.4,5.9-19.4c5.8-5.9,6.1-16,12-21.7
		c2.9-6.3,6.8-11.9,8.6-19c5-4,5.4-11.4,10.3-15.4c7.3-14.5,17.7-26.6,26.5-40c1.3-0.1,1.2-1.3,2.4-1.5c4.8-8.4,12.2-14.9,18.8-21.9
		c1.3,0.2,0.3,0.7,0.6,1.8c-6.2,3-5.9,10.8-10.8,14.8l0.4,2.6c-3.2,2.6-6.5,6.8-6,11.1c-1.9,0-2.4,1-3.5,1.6
		c-0.7,6.9-7.6,9.1-7.5,16.6c-3.4,1.7-5.7,4.1-4.8,9c-2.7,1.7-2.3,5.8-5.8,6.9c-0.3,1.2,0.1,1.3,0.4,2.6
		c-5.4,6.3-9.1,13.9-13.3,21.1c0.9,3.7,2.2,8.1,0.5,11.3c-1.4,0.1-1.2-1.9-3.2-1.1c-0.5,0.2-0.5,0.7-1,0.9c5.2,7.5-7.6,8.7-6.8,16.1
		c-0.4,0.8-1.7,0.9-2.4,1.5c0.1,0.9,0.8,1,0.7,2.2c-3.9,1.6-3.9,5.8-3.1,10.3c-2.7,1.8-5.7,3.2-5,7.5c-1.1,0.4-0.9-0.9-2-0.5
		c-1,2.3,1,3.8,1.8,5c-1.5,0.4-1.8,2-3.6,1.3c-0.2,1.6,0.3,2.9,0.4,5.2c-1.3,1.4-4,1.6-4.4,3.6c0.2,1.1,1.1,1.1,1.4,2.1
		c-1.5,1.5-1.4,4.3-4.7,4.4c0.8-5.5-2.5-9.6-4.6-13.7C396.1,305.9,395.5,303.3,397.2,302.5 M459.6,297.5c0.1,1.6-1.2,3.3-2.2,3
		C457.3,298.9,458.6,297.1,459.6,297.5 M459.5,296.4c0.1-3.6,0.7-6.8,3.8-8.1c1.7-6.1,5.9-10.4,9.6-15c0.6-0.2,0.7,0.2,0.9,0.6
		c-1.9,5.7-7.2,8.7-8.1,15.1C463,291.1,462.3,294.5,459.5,296.4 M510.4,135.8l-0.3-2.2c1.9-0.2,1.8-1.8,2.6-2.6
		c-0.1-1.2-1.2-1.1-1.1-2.5c1.4-0.3,2.3,1.2,3.4-0.1c1.3-0.9,0.6-1.5,0.3-3.1c4-1.2,3.5-5.8,7.3-7.1c-0.4-1.1,0.5-1.4,0-2.6
		c2.6-1.8,4.8-3.9,5-7.5c2.5-0.9,3.9-2.6,5-4.5c-0.2-1.6-1.3-2.3-0.9-3.7c0.6-1,1.9,0.4,2.5-0.7c0.7-0.6,0.6-1.8,0.7-2.8
		c2.1-1,3.6-2.4,3.9-4.7c3.8-1.7,6-4.5,8-7.6c3.7-0.1,4.2-3.4,7.7-1.8c-0.9,2.7-2.6,6.3-1.3,9.6c-3.2,2.3-5.2,7-4,11.5
		c-4.5,5.4-5.7,13.4-9.3,19.5c-0.1,1.2,0.8,1,0.7,2.2c-3.1,2.2-2.6,7.1-3.4,11.1c-4,2.4-4.7,7.3-5.5,12.1c-1.7,0.7-0.9,2.2-1.7,3.6
		c-0.4,0.6-1.7,0.9-2,1.8c-0.8,2.1-0.5,5-1.3,7c-0.5,1.3-2.1,2.1-2.5,3.4c-0.8,2.3-0.7,3.9-1.8,6.3c-2.2,5-4.6,10.7-5.2,17
		c-1.4,0.5-2.1,1.5-2.6,2.6c-0.7,11.9-9.7,17.6-9.7,30.1c-5.6,5.6-4.9,16-11.8,20.6c-0.2,1.8,1.2,1.3,1.2,2.9c-1,0.5-1-0.4-1.9-0.1
		c-3.5,5.7-9.1,9.7-11.7,16c-1.5,0.6-2.5,1.7-4.2,2.1c-0.3,4.5-3.2,7.1-6.6,9.3c-0.1-1.9,1.4-2.7,2.5-3.8c-0.8-5.2,4-6.2,2.9-11.7
		c1.8-0.9,2.3-2.7,4.4-3.3c0.1-4.5,2.7-7.3,1.3-11.9l1.9-0.3c2.1-3.6,5.2-6.5,5.6-11.4c0.9-0.1,1.1-0.7,1.8-1
		c-1.4-6.2,6.1-10.1,4.9-16.2c6.4-2.9,1.4-13,8.8-15.6c-1.4-7.2,3.7-9.6,3.4-16c1.1-1.9,3.4-4.6,3.8-8.1c0.3-3-0.8-6.5-0.6-9.4
		c0.1-1.5,1.7-3.7,1.5-5.1c-0.3-3.9-4.7-3.6-4.8-7.3c-1-1.3-2.5-2-4.4-2C505.1,143.7,506.3,138.6,510.4,135.8 M493.4,290.4
		c1.4-0.4,2.2,0,3.1,0.3c-0.8,3.1-3.9,4.6-5.4,7.2c0.3,0.5,0.7,0.9,1,1.4c-2.4,4.7-5.6,8.8-7.9,13.6c-1,0.4-0.9-0.6-1.6-0.5
		c1.4-2.3,1.6-6.5,0.4-8c1.2,0.4,1.9-0.2,2.9-0.8C487.5,298.6,491.7,295.5,493.4,290.4 M471.3,342.3c0.1-1.1,0.1-2.1,1.6-2.1
		l0.2,1.5C472.7,342.1,472.1,342.3,471.3,342.3 M503.3,301.5c6.4-3.8,10.6-9.2,14.9-14.6c8.1-5.3,13.6-12.5,25-15.3
		c0,0.5,0.1,1.1,0.5,1.1c-1.8,4.9-6.6,7.6-7.2,13.5c-4.8,6.9-10.4,13.1-13.6,21.2c-0.7,0.4-1.6,0.8-2.1,1.4c-0.1,1.6,0.3,1.5,0.1,3
		c-6.6,4.6-7.5,13.6-12.4,19.5c-1.3,0.3-1.5-0.9-2.7-0.7c-1.6,0.6-1,2.8-3.5,2c-3,4.6-7.8,7.8-11.6,11.8c0.1,1.1,0.6,1.8,1.4,2.1
		c3-1.4,4.5-3.9,8-4.9c-5.9,15.2-15.3,27.8-21.9,42.4c-1.3,1.2-2.1,2.8-2.8,4.5c-0.9,0.5-1.2,1.5-2.4,1.8c-0.2,3.5-1.5,6.2-4.2,7.8
		c-0.1-0.7-1.1-0.3-1-1.4c0.4-1.7,3.3-1.5,3.3-3.5c-0.3-1.1-0.9-1.7-1.8-2c-3.1,2.9-4,7.3-7.3,10.1c-0.2-2.3,2.5-3.6,0.6-6.1
		c3.2-2,4-5.8,5.5-9.1c1.6-0.5,1,1.9,2.5,1.5c0.7-1.5,2.4-2.2,3.3-3.5c0-1.2-0.7-1.5-1.4-1.7c-2-0.1-1.3,1.9-2.7,2.3
		c-1.7-1.9,1.3-2.6,0.4-5c-1.2-1-1.8,1.3-3.7,0.9c0.3-2.7,1.7-4.5,1.6-7.4c0-1.4-1.8-0.5-2.4-1.2c-0.2-2,1.2-0.7,2.2-0.7
		c1.5-1.8,2.5-4.1,2-7.5c2.8-2.7,2.9-7.3,3.7-11.5c4.8-6.5,6.4-15.5,10-23c1.7-1.4,2.5-3.4,2.5-6
		C490.1,314.8,499.5,310.2,503.3,301.5 M366.8,378.8c-2.5-3.7-5.7-6.5-7.6-11c-4.4-3.1-2.5-5.8-7.2-8.5
		c-4.8-11.8-14.5-17.1-18.6-29.9c-0.4-0.8-1.3-1-2.1-1.2c-0.8-9.5-4-16.1-9.4-21.3c3.5-5.6-5.4-7.7-3.3-12.8
		c-1.9-1.6-3.2-3.4-2.4-6.4c-0.5-1.5-1.6-2.2-3-2.6c0.1-4.7-3.2-7.8-3.8-11.2c5.7,2.9,9.2,8.6,14.5,11.9l0.3,1.9
		c12,9.8,19.5,25.7,28.9,39c0.9,4.3,3,6.8,5.4,9.1l0.4,2.6c4,3.5,1.7,6.6,4.9,11.1c0.2,7.2,6.7,17.7,3.1,24.5
		C367.8,375.6,367.4,377.3,366.8,378.8 M349.8,370.8c-3-3.9-6.2-8.2-9.5-13.4c-1-1.5-0.9-3-0.7-5.2c6.6,6,10.4,15.8,16.7,22.2
		c0.1,1.2,0.9,1.5,0.8,2.9c1.9,2.1,4,4,4.5,8C356.8,382.1,353.9,376.2,349.8,370.8 M360,453.3c-2.3-0.3-3.6-1.9-4.4-4.3
		C358.3,448.8,359.5,450.6,360,453.3 M364,466.2c0.5,2.6,1,2.6,0.7,5.1c-4.9-1.1-7.6-5.1-10.9-8.2C357.7,461,359.8,466.7,364,466.2
		 M332.8,366.3c9.9,6.8,14.7,20.3,19.5,33.9C345,390,338.5,378.6,332.8,366.3 M328.4,406c3.6-0.4,4.5-2.8,5.7-5
		c-1.3-1.8-2.4,1.2-3.8,0.2c-0.3-1.3,1.6-1,1.2-2.4c-2-2.2-4-5.7-7.5-4.6c1-4.2-2.9-10-6.3-12.3c-0.4-1.4,0.8-1.6,0.3-3.1
		c-0.6-1.2-3-0.1-4.2-0.5c-1-1.3,0.6-4-2-3.5c0.3-2.7-1.1-5.8-3.5-6.3c-5.6-13.2-12.6-24.6-17.9-38.3c4.5,1.8,6.1,7.4,10.1,9.9
		c3.6,9.9,10.3,15.7,15.7,23.1c1.4,5.6,4.4,9.2,7.8,12.1c3.4,9.3,10.3,14,12.6,24.7c1.4,1.9,3,4.9,1.4,7.4c3.1,2.3,6.1,7,6.9,11.1
		c-0.9,1-1.6-0.9-2.7-0.7c-0.7,0.9-1,2.3-0.3,3.4c1.6,0.7,2.2-0.6,3.2-1.2c1.3,3.8,4.2,7.4,5.5,12.4
		C341.6,425.7,333.4,418,328.4,406 M327.2,402.8c-1.8-0.1-2.7-1.4-2.8-3.8c1.6-0.4,2.1,0.8,3.5,0.6
		C328.2,401.1,327.4,401.7,327.2,402.8 M307.5,399.9c1.2-0.2,2.5-0.4,2.4,1.2C308.7,401.2,307.5,401.4,307.5,399.9 M299.2,389
		c-2.1,0,0.3-3.3-1.3-4C298.8,383.8,300.7,388,299.2,389 M294.1,382.9c0.1-0.6,0.4-1,0.5-1.6C295.9,381.3,295.7,383.1,294.1,382.9
		 M311.7,346.8c-1.2-0.1-2-0.6-2.2-2C310.7,344.9,311.5,345.4,311.7,346.8 M320.7,359.9c-2.3-3.7-5.4-6.3-7.2-10.7
		C317.3,350.6,320,355.8,320.7,359.9 M284.3,310.6c-0.5-4.1-3.4-4.9-5.2-7.2c0.6-1.7-1.2-3.5,0.1-4.9c-2.1-1.7-4-5.6-1.9-8
		c-2.3-4.6-4.4-11.3-3.5-16.5c-2-5.7-3.7-10.9-4.6-16.7c-0.6-3.5-4.2-6.9-1.9-10.7c0-2.2-1.1-3-1.4-4.7c1.4-2.5-0.6-5.6-0.7-7.8
		c1.9-6.7,10-4.5,15.4-3.3c0.4,1.2,1.4,1.6,2.2,2.3c-0.7,4.8,2.6,8.1,1.4,12.6c-2.2,1.2-4.4,3.5-6.4,5.8
		c4.4,15.9,10.9,29.1,16.6,42.2c1.2,1.7,3.5,1.8,5.3,2.7c-0.3,1.2-0.5,2.5-1.4,3.2c4.6,7.2,8,15.4,10.3,22.3
		c-1.1,3.9,1.1,8.8,3.4,10.9c0.4,5.3,3.6,6.7,3.9,11.2c-1.9-1-3.9-2.1-3.4-5.2c-0.9-2.5-4.4-1.5-6.1-2.9c-0.9-1.8-0.5-5.2-3-4.9
		c0.2-0.8,1-1.3,0.8-2.4c-0.8-1.1-2.7-0.8-3.6-1.8c1-3.8-3.1-3.1-4.8-4.6c-0.5-1.2,0.3-1.5,0-2.6c-0.8-1.2-2.3-1.4-4-1.3
		C290.4,314.1,286.7,313.3,284.3,310.6 M283,344.4c-0.2-0.3-0.5-0.5-0.5-1.1c0.3-0.3,0.8-0.5,1.4-0.6
		C284.2,343.7,284,344.4,283,344.4 M279.2,333.6c-0.8-0.2-1.7-0.9-1-1.7C279,332.1,279.7,333,279.2,333.6 M275.6,326.6
		c-0.8-1.1-1.5-2.2-3-2.2c-1.1-5.6-5.7-6.5-6.3-12.7c-4.7-1.8-4.6-10.1-8.6-12.8l-2.6,0.4c0.2-3-0.8-7.2-3.4-7.8
		c0.6-3.2-1.9-5.5-4.6-5.8c-0.7-1.2,1.4-2,0-2.6c0.8-1.3,2,0.6,3.1,0.3c1.1,3.8,3.5,5.9,7,6.6c4.1,6.8,9.6,11.9,14.9,17.2
		c-0.2,8,6,16.6,6.1,24.4c-0.6-0.5-1.1-1.2-2.1-1.2L275.6,326.6z M295,263.4c2.8,1.2,3,6,4.3,9.2C298,269.6,294.2,266.3,295,263.4
		 M299.5,273.7c0.6,0.5,1,1.3,1.1,2.5C299.7,276,298.8,274.6,299.5,273.7 M305.9,258c-1.4-1.5-3.8-1.7-5-3.4
		c0.9-3.2-1.2-4.8-3.4-5.2c0.1-1.4,1.8-3.3,0.5-4.6c1.3-0.8,3.5,0.9,5.1,1.2c0.8,3.7,4.6,4.9,6.7,7.4c2.7,3.1,3.8,8.1,8.5,9
		c3.5,4.7,6.9,9.6,11,13.6c0.4,0.5,1,0.7,2,0.5c0.3,1.3,0.3,2.4,0.1,3.4c-5.3-0.6-5.9-7.3-11-8.3c-1.5-4.5-5.2-6-8.7-7.8
		c-1.2-2.5-3.3-3.8-6.2-4C305.9,259.3,305.3,258.2,305.9,258 M263.9,228.1c-0.6-3.5,0.8-9.4-1.6-11.1c1.5-1.8,0.2-3.6,0.2-6.4
		c-0.1-1.6-2.2-0.6-2.2-2.3c1.8-0.2,2.4-4.6-0.2-4.1c1.6-1.9,2.3-5.8,0.3-8.4c-0.4-1.4,1-1.5,1.2-2.4c-3-5.8,2-9.7-0.8-16.1
		c1.3-1.1,1.8-2.9,2.4-4.5c-0.1-1.1-0.2-2-1.4-1.7c2.8-6.6,9.1-0.7,14.3-0.5c1.4,3.9,4.8,5,6.2,8.9c6.9,4.4,9.2,15,16.3,19.2
		c0.1,1,0,1.8-0.4,2.3c2.2,1.8,5.8,4.9,4.6,8.4c7.2,5.3,7.8,16.2,14.7,21.3c-0.2,0.9-0.9,1.6-1.2,2.4c0.4,1.3,1.5,1.8,2.3,2.7
		c4,10.6,11.1,20.7,15.2,32.6c-4.2,0-2.9-7.3-8.4-5.6c0.1-4.4-2.4-7.6-6.7-7.4c-1.2-1.5,0.3-1.9-0.2-3.8c-1.9-3.1-4.5-5.2-8-6
		c-1-3-2.8-4.8-6.3-4.4c-1.1-0.8,0.3-1.2,0.1-2.3c-1.7-1.5-3.1-3.5-5.8-3.7c-0.8-3.2-3.6-3.7-6.3-4.4c-1.7-3.6-5.1-4.9-8.8-5.9
		c-1.4,0-1.6,1-2,1.8C276.6,224.1,269.1,225,263.9,228.1 M336.8,286.9c-1.2-0.5-3-0.2-3-2.2C335.5,284.6,336.8,284.9,336.8,286.9
		 M338.7,289.7c0.5,1.6-1.8,1.6-1.5-0.2C337.9,289.4,338.1,289.9,338.7,289.7 M244.7,375.2c-0.3-1.1,0.1-1.7,1.3-1.7l0.2,1.5
		L244.7,375.2z M265.2,367.7c-0.4-0.6-1.2-0.8-1.1-2.1l3-0.4C267.6,366.9,266.6,367.5,265.2,367.7 M558.1,83.3
		c-1.7-0.1-2.8-0.9-3.1-3C556.5,80.6,558.3,82.2,558.1,83.3 M555,234.9c-1.3-0.4-2.9-0.5-4-1.3c0.8-0.6,1.8-1.1,1.1-2.8
		c-3.7-1.4-8.9-0.7-12.1-2.8c-3.6,2.4-9.2,1.6-13.7,2.3c-0.2,4.4-5.4,5-6.7,8.5c-0.3-0.5-0.9-0.6-1.6-0.5c-0.5,0.5,0.1,1.8-0.9,2
		c-1.4,0.2-1.3-1.4-3.1-0.7c-0.8,2.5-3.5,3.5-3.6,6.6c3.6,1.2,5.4-4.2,9.9-4.4c0.5-0.7,0.6-1.8,1.2-2.4c5.2-2.1,8.8-5.3,14.6-6.2
		c18-3,19.4,17.1,16.2,31.7c-1.6-5.1-7.7-4.9-9.9-0.5c-1.3-0.4-2.7-0.6-4.2-0.5c-2.2,2.4-6.5,3.3-7.4,6.7c-4.9,1.6-6.6,5.7-10.2,8.2
		c-1.2,0.3-2.1,0.2-3,0.1c-2.4,4.8-7.1,7.9-10,12.4c-0.5-0.4-1.4-0.2-2.3-0.1c-0.4,3.2-3.5,4.4-5.1,6.8c-1-0.4-2.3-0.4-2.9-1.5
		c1.9-2.1,1.2-6.2,3-8.4c0.1-1.4-1-1.3-1.1-2.5c1.5-2.6,3.4-5.7,1.1-8.5c-5,0.1-4.1,4.6-7,6.3c0,2.2,2.3,1.3,2.4,3.4
		c-1.6-0.1-1.4-1.3-3.1-0.3c-0.3,2.2-0.3,4.6-3.1,5c-0.8,0-0.9-0.9-1.3-1.3c0.3-3.5,3.5-4.9,2-9.7c4.8-7,6.6-16.2,11.5-23.2
		c3.6-1,3.6-4.8,6.7-6.2c-0.1-1.8-1.5-1.8-1.6-3.5c2-6.2,6.5-10.5,7.3-17.7c1.1-0.3,2-0.7,2.9-1.2c-0.3-1.3-0.7-1.3-0.4-2.6
		c4.4-3.5,7.6-9.5,6.4-16c-4.3-0.2-5.2,2.7-9.1,2.4c0.1-1.3,0.8-2.1,0.2-3.8c1.9-2.1,3.1-4.7,3.4-8c4.7-10,7.6-21.5,13-30.9
		c0.3-6.4,2.8-11.1,5.7-15.5c0-4.4,2.9-6.7,4.2-10c-0.9-3.6,0.5-5.3,2.4-6.8c0.1-0.9,0.3-1.8-0.1-3c4.2-3.9,3.2-11.7,6.8-16.1
		c-0.2-5.2,2.7-8.1,4.8-11.6c-0.3-1.5,0.2-2.5,0.2-3.8c1.3-0.7,2.1-1.8,3-2.7c0.4-8.3,5.4-13.1,4.8-22.2c-0.3,0-0.5-0.3-0.5-0.7
		c-6.4-2.2-11.7-1.8-15.9,2.2c-1.3,1.3-1.7,3.3-3.1,4.6c-2.4,2.2-5.4,3.2-7.6,5.2c-0.1,0.7,0,1.6-0.5,2c-1.2,0.6-2.3,1.3-3.5,2
		c-1,4.2-3.9,7-6.5,10c0.2,6.2-5.8,7.8-9,11.5l0.3,1.9c-5.6,5.7-11.3,13-15.8,19.2c-1.7,2.4-2.5,4.4-3.1,7.2c-3,1-3.1,5.1-4.3,6.7
		c-2,2.6-7.6,4.1-9.2,7c-3.3,0.5-5,2.2-7.5,3.3c-0.2,1.1-0.6,2-0.7,3.1c-1.4,0.9-2.6,2-3.3,3.5c-5.2,1.9-4.6,8-10.4,9.4
		c-3.8,5.6-7.3,11.5-13.7,15.2c0.1,1.2-0.6,1.8-0.3,3.1c-6.8,5.6-8.8,14.8-15.2,20.7c-2,7.4-7.8,12-11.8,17.9
		c-2,8.6-8.8,13.7-12.1,21.4l0.4,2.6c-1.5,2.6-4.7,3.9-4.6,7.8c-2.3,1.6-3.2,4.2-3.5,7.3c-4.1,4.1-6.3,9.6-7.2,16.1
		c-2.9,1.6-2.8,5.4-5,7.5c-0.1,1.4,1.4,2.1,0,2.6c-3.8-1.1-4.1-6.9-9.2-6.2c-1.2,0.3-1.1,1.6-2.4,1.8c-1.1-0.1-1.2-1.6-2.8-1.1
		c-3.8,3.7-1.5,9.1-1,14.1c0.4,4.5-0.4,9.9-0.2,14.8c0.2,3.4,2,6.6,0.2,9.4c-7.3-11.9-14.3-25.5-21.4-36.3c-0.4-7.6-7.1-14.2-8-21.9
		c-0.7-0.9-3.2,0.6-3.4,0.1c0.3-1.2,2.1-1.3,1.9-2.9c-1.8-0.9-0.9-2.6-1.5-5.1c-2-1.5-3.2-4-4.6-6.1c0.1-0.9,1.3-1,0.8-2.4
		c-2.7-2.4-2.5-6.9-6.4-8.2c0.3-4.2-1.1-9.5-4.9-10.6c0.2-1.1,0.8-2.1,0.2-3.8c-0.5-0.7-1.5-0.7-2.1-1.2c-0.5-1.2,0.3-1.5,0-2.6
		c-5.5-6.7-7.9-17.3-14.2-22.9c-0.1-0.9,0.5-1.2,0.1-2.3c-3.5-3.4-4.4-7.6-6.7-12.3c-1.6-0.6-3-1.3-4.4-2
		c-3.1-9.8-9.6-15.1-13.9-23.3c-2.2,0.1-2.9-2-4.5-2.8c-0.8-0.9-1.6,1-2.9,0.8c-0.5-1,0.4-1,0.1-1.9c-1.8-0.8-4-1.1-6.2-1.4
		c-1.9,2-5,3.4-8.6,3.1c-1.3,3-5.2,4-5.3,7.9c0.8,1.2,1.8-0.4,2.7,0.4c-0.7,1.2-0.4,3.3-1.3,4.3c-0.3-1.2-0.8-2.2-2.2-2
		c-1.6,1.3-0.3,2.8,0.9,3.7c-0.9,2.1,0.5,5.9-2.5,6.4c0.8,3.1-2.4,4-1.1,8.5c0.5,1.1,2,0.8,2.5,1.9c-1.1,0.9-2.8,1.5-2.5,3.4
		c1,0.5,1.5,1.5,1.9,2.8c-0.1,1-1.6,1-2,1.8c-0.6,4,1.4,9.4-0.5,12.5c3.3,2.5,5,10.5,2.7,14c2.7,3-1.2,7.2,2.4,9.1
		c-2.4,1.9-1.8,5.9-2.9,8.7c5.2,5.3,2.9,20.5,7.1,28.8c-0.9,2.9,1.5,7.3,1.5,10.4c-2.6-1.3-4.3-3.7-6.1-5.9
		c-1.4-0.1-2.4,1.9-3.7,0.9c0.2-1.4,1.5-1.9,1.4-3.6c-4.9-9-13.7-12.8-18.3-22.3c-3.1-0.8-4.4-3.8-5.5-7.2c-1.9-0.4-3.1-1.8-4.2-3.2
		c-2.4,0.9-3,0.4-4.9-0.1c-5.4,7.6,6.6,12.9,6.6,20.2c0.8,0.5,1.9,0.8,2.2,2c3.5,8,8.3,14.3,11.8,22.1c0.7,0.7,1.5,1.2,2.2,2
		c0.6,5.1,4.6,5.7,5,11c4,2.9,4.9,9.9,9,12.7c1.5,6.2,5.7,8.9,7.1,15.2c3.2,1.8,4.4,6.1,6.6,9.3c0.4,6.6,6.4,8.2,6.5,13.8
		c-2.1-1.5-4.5-2.5-5.7-5.2c-5.1,1-6.3-3-9.7-4.3c0-7.3-9.2-4.5-14-2.6c0.6,2.3,2.2,3.2,4,4c1.3,0-0.1-2,0.8-2.4
		c2.4,1.3,4.9,2.1,7.6,3.1c5.9,2.1,11.7,8.5,16.7,10.9c0.7,0.4,1.7,0,2.3,0.4c0.3,0.2,0.4,1.5,1.1,2.1c2.3,2.1,5.3,1.6,4.1,5.1
		c2.6,3.8,6.6,8,7.5,12.6c-6.2-0.5-7.2-6.2-11.1-9c-1.7,0.5,0.9,2.3-0.7,2.7c-0.4-2.5-2.9-2.3-2.7-5.7c-0.6-0.4-1.7-0.1-2.7,0
		c-0.1-0.7,0.9-0.6,0.5-1.6c-3.7-1-4.5-5.8-9.1-5.5c-0.1-1.9-1.5-2.1-2-3.5c-2.1,1-4.2-0.1-4.6,2.2c-1.4-0.2-1.6-2-2.3-3.1
		c0.6-0.5,1.7-0.7,1.2-2.1c-2.6-0.5-4.1-3.9-4.3-6.2c-2.6,1.1-3.6,1.7-7,1.4c-0.7,0.9,0.9,1.9-0.4,2.7c-1.4-1.3-2-3.6-2.3-5.3
		c-0.4,0-1,0.2-1.2-0.2c-2.1,0.9-1.7,2.9-2.9,3.8c1.8,3,6.1,2.7,7,6.9c3.4,1.3,6.2,3.4,8.8,5.9c-0.6,2.4,1.5,3.9,3,4.9
		c-0.1,0.8-0.8,1.2-0.4,2.3c1.4,1.1,2,3.2,2.3,5.7c0.9,1,1.9,1.9,2.7,3l0.3,2.2c3.3,1.9,5.1,9.7,9.4,7.4c-2-2.9-5.8-4.3-5.1-9.5
		c-1.1-0.6-2.7-0.5-3.3-1.8c0.1-2.3,3.3-0.1,3.4-2.4c-2.7-0.4-4.6-1.8-5.9-4.1c6.7-2,10.9,3.1,14.5,6.6c1.2,0,3.1-0.9,3.4,0.3
		c0.3,1.5-0.4,2.2,0.5,3.3c1.4,0.1,2.7,0.5,4.2,0.5c1.3,2,1.5,3.1,2,5.8c0.4,1,2,0.6,2.5,1.5c1.3,4,4.7,5.2,7.5,7.3
		c-0.6,0.8,0.1,0.9,0.3,1.8c2.7,1.3,4.2,4.1,6.5,5.9c2.7,7.6,11.4,10.9,14.8,19.1c6.1,5.3,10,13.4,15.6,19.3
		c0.2,1.5,2.1,3.1,1.4,4.3c-6.7-3-13.8-5.4-18.6-11c-1.3-4.8-5.5-5.9-8.7-8.2c-2.2-4.2-5.3-7-8.6-9.7c-2.7-9.7-10.7-12.5-14.6-20.6
		c-1.7-0.6-3.3-1.2-4.2-2.8c0.3-0.7,1.9-0.5,1.2-2.1c0-1.1-2,0.6-2-0.5c0.7-2.4-1-5-4-4c0.3,2-2.3,3-2.3,4.9c0,4.3,3.5,3.7,5.4,6
		c0.7,0.9,0.6,2.2,1.2,3.2c2.9,4.5,8.3,7.4,8.8,11.2c1.4,0.4,3.4,2.2,2.5,4.2c-8.6-4.6-14.1-13.3-22.6-18
		c-5.7-6.5-11.2-13.3-18.4-17.8c-2.8-7.5-10.2-8.8-13.2-15.9c-0.7-0.5-1.8-0.6-2.4-1.2c-3.4-4.8-7.2-9.2-11.9-12.3
		c-0.5-2.9-1.8-4.7-4.1-5.1c-1.2,0.8,0,3.3-1.3,4c-2-1.8-0.4-4-0.1-6c2.5-0.4,4.3,0.1,6.9,0.5c3.6,4.1,9.6,4,14.1,5.9
		c1.9-2.8-0.5-5.9-1.6-8.5c-3.3,0.5-4-2.3-5.8-3.7c-4,0.3-8.4-3.7-13.2-2.3c-1.7-1.5-4.1-2.1-6.1-3.3c-3.1,1.4-6.6,1.7-10,4.1
		c-0.6,0.9,0.1,2.7,0.2,4.1c2.7,1.1,3.9,4.1,7.4,4.2c1.9,1-0.9,2.2,0.5,3.7c0.3,1.1,2,0.2,2.4,1.2c-0.7,2.8,2.5,3.5,4.4,4.3
		c0.5,1.5-0.3,2,0.1,3.4c2.6,0.7,3.6,3.5,5.6,4.9c1.2,0.2,0.6-1.1,1.3-1.3c0.3-1.4-2.2-1.4-1.1-2.5c2.8,2,5.2,4.6,5.9,9.4
		c1.6,0.9,3.9,1,5.5,1.9c-0.3,1.2-1.5,1.8-1,3.5c2.8,1,3.9,5.4,8,3.4c0.5,2,1.4,3.4,2.5,4.6c-0.5,3.5,1.3,5.3,5.1,4.2
		c3.1,1.3,4.3,5.1,7.3,6.5l0.3,2.2c1,0.5,2.6,0.3,2.9,1.9c-0.1,1.5-1.7,2.4-0.6,3.9c1.6,0.5,2.7-0.8,4.2,0.2
		c-1.2,3.8,3.6,5.7,5.8,3.7c2.4,0.5,3.2,3.2,2.3,5.7c1,2.5,4.4,1.7,4.9,5c3.4,1.3,7.5,1.8,8.5,6.4l3-0.4c1,2,2.4,3.5,3.8,5.1
		c2.1,0.1,2-1.6,3.6-0.9c1.3,1.5-1,3.2,0.7,4.8c1.8,0.2,1.4-1.4,3.2-1.2c-1.8,4.3,3.1,6.8,6.4,5.5c6,7.9,14.3,12.7,21.6,18.9
		c0.5,0.4,0.6,1.2,0.7,2.2c9,8.4,20.1,14.1,29.9,21.5l0.4,2.6c1.7,1.2,2.8,3.3,3.9,5.2h9.5c3.4,0,6.2-2.8,6.2-6.2v-49.7
		c0-3.4-2.8-6.2-6.2-6.2h-12c-3.4,0-6.2-2.8-6.2-6.2v-17.5c0-3.4,2.8-6.2,6.2-6.2h47c3.4,0,6.2,2.8,6.2,6.2v79.6
		c0,3.4,2.8,6.2,6.2,6.2h10.3c3.4,0,6.2,2.8,6.2,6.2v2.1c1.8-1.4,2.4-3.7,4.2-5.4c0.9-0.1,1-0.8,2.2-0.7c7.6-8.4,13.7-18,21.2-26.4
		c1.7,0,2.1-1.1,3.2-1.6c1.1-3.6,3-6.6,4.2-10c7.1-1.3,5.3-9.3,10.4-12c1.2-5.8,5-9.7,8.2-14c-0.1-3.6,2.7-7.3,6.3-9.2
		c-0.6-4.4,5.3-6,4-11.9c2.2-1,2.8-3.2,5.1-4.1c-0.1-3.6,1.7-5.8,3.8-7.7c-1.5-3.2,1.1-4.2,3-5.7c0.5-4.2,3.6-6.3,3.4-11.1
		c8.3-2.8,6-12.3,12.8-16.2c0.8-5.7,3.4-10.1,5.9-14.4c-0.2-0.9-0.8-1.3-0.7-2.5c2.3-3.6,4.4-7.3,6.4-11.1c-0.2-1.2-1.3-1.3-1.2-2.9
		c1.3-0.5,1.7,0.4,3,0c0.8-3,1.3-6.1,3.4-8c-0.1-1.8-2.6-0.3-2.3-2.7c1.2-0.3,1.7,0.4,3-0.1c0.8-3.1,1.7-6,2.9-8.7
		c-0.2-1.3-1.3-1.5-1.5-2.8c0.5-1.3,1.4-2.3,3-2.7l-0.4-3c3.7-6.1,5.2-13.7,6.8-21.4c-1.5-2.2,1-3.9-0.5-6c2.3-2.3,4.6-5.6,2-9.7
		c2.1-0.9,0.5-4.5,1.4-6.2C559.6,246.9,556.4,241.8,555,234.9"/>
	<path class="st0" d="M448.6,267.7c3.2-0.7,4.8-7.2,1.1-8.1C447.9,261.9,448.8,264.4,448.6,267.7"/>
	<path class="st0" d="M337.3,410.4C338.2,406.4,332.7,410.1,337.3,410.4"/>
	<path class="st0" d="M448.3,268.1c-0.9,0.4-0.5,1.8-0.3,3.1C450,271.4,450.1,268,448.3,268.1"/>
	<path class="st0" d="M462.7,252.5c-0.5-0.2-1.1-0.3-1.9-0.1l0.3,1.9C462.5,254.3,462.4,253.2,462.7,252.5"/>
	<path class="st0" d="M449.2,277.4l-1.1,0.2c-0.3,0.5-0.3,1.1-0.1,1.9C449.4,279.6,449.6,278.7,449.2,277.4"/>
	<path class="st0" d="M337.5,411.9c-0.6,1.7,0.2,4.9,2.2,4.6c1-1,1.3-2.6,1.3-4.3C340.3,411.5,339,411.6,337.5,411.9"/>
	<path class="st0" d="M439.2,307.9c1.3-0.5,0.3-2.6-0.7-2.5C437.8,305.9,437.4,308.4,439.2,307.9"/>
</g>
<rect x="86.5" y="430.1" width="10.9" height="68.4"/>
<polygon points="147,498.5 127.4,465.8 120.4,453.3 120.4,498.5 110.1,498.5 110.1,430.1 118.5,430.1 137.6,463.3 144.3,475.9 
	144.3,430.1 154.6,430.1 154.6,498.5 "/>
<g>
	<path d="M200,451.3c0-7.2-3.5-11.5-11.2-11.5h-10.6v48.9h10.6c7.7,0,11.2-4.3,11.2-11.4V451.3z M189.7,498.5h-22.4v-68.4h22.4
		c14.6,0,21.2,9,21.2,20.1v28.1C210.8,489.4,204.3,498.5,189.7,498.5"/>
</g>
<rect x="222.5" y="430.1" width="10.9" height="68.4"/>
<polygon points="246.2,498.5 246.2,430.1 283.1,430.1 283.1,439.8 257.1,439.8 257.1,457.8 275.8,457.8 275.8,467 257.1,467 
	257.1,488.7 283.1,488.7 283.1,498.5 "/>
<g>
	<path d="M253.5,545.1c0-5.9-2.9-8.8-8.5-8.8h-11.5v21.2h12.7c5.5,0,7.3-3.3,7.3-7.5V545.1z M252.9,514.9c0-4.3-1.6-7.6-7.3-7.6
		h-12.1v20.5h10.9c5.6,0,8.5-3,8.5-8.7V514.9z M246.1,566.6h-23.6v-68.4h23c13.5,0,18.1,6.7,18.1,16.8v2.6c0,8.1-3.5,12.4-10.2,13.7
		c7.7,1.3,11.1,6.4,11.1,13.9v4.6C264.5,559.9,259.6,566.6,246.1,566.6"/>
	<path d="M307.5,517.9c0-7-3.5-11.9-11.2-11.9c-7.6,0-11.1,4.9-11.1,11.9v29c0,7,3.5,11.9,11.1,11.9c7.7,0,11.2-4.9,11.2-11.9V517.9
		z M296.4,568.3c-15.3,0-22.1-9.5-22.1-22.2v-27.5c0-12.5,6.8-22.1,22.1-22.1c15.4,0,22.1,9.5,22.1,22.1v27.5
		C318.4,558.8,311.8,568.3,296.4,568.3"/>
	<path d="M352.1,568.3c-12.9,0-22.1-7.2-22.1-19.8v-50.3h11v50.1c0,7,3.5,10.8,11.1,10.8c7.7,0,11.2-3.8,11.2-10.8v-50.1h10.9v50.3
		C374.2,561.1,365.2,568.3,352.1,568.3"/>
</g>
<polygon points="423.7,566.6 404.1,533.9 397.1,521.4 397.1,566.6 386.8,566.6 386.8,498.2 395.3,498.2 414.4,531.5 421,544 
	421,498.2 431.3,498.2 431.3,566.6 "/>
<g>
	<path d="M476.7,519.5c0-7.2-3.5-11.5-11.2-11.5h-10.6v48.9h10.6c7.7,0,11.2-4.3,11.2-11.4V519.5z M466.4,566.6H444v-68.4h22.4
		c14.6,0,21.2,9,21.2,20.1v28.1C487.6,557.6,481,566.6,466.4,566.6"/>
</g>
<path d="M494.4,509.9v-9.1h-3.3v-1.6h8.5v1.6h-3.3v9.1H494.4z M503.4,501.2L503.4,501.2L503.4,501.2z M511.5,509.9v-8.7h-0.1
	l-3.4,8.7l-6.6-10.7h2.9l3.1,7.9l3-7.9h2.9v10.7H511.5z"/>
<g>
	<path d="M497.9,559.8H492v7.3h5.9V559.8z M522.9,558.4V550c0-5.7-3.7-9.2-9.1-9.2c-5.5,0-9.2,3.5-9.2,9.2v8.3
		c0,5.7,3.7,9.1,9.2,9.1C519.2,567.5,522.9,564.1,522.9,558.4 M516.7,559.6c0,1.8-1.1,3.1-2.8,3.1c-1.8,0-2.9-1.2-2.9-3.1v-10.7
		c0-1.8,1.1-3.1,2.9-3.1c1.7,0,2.8,1.2,2.8,3.1V559.6z M540.9,547.5v-6.4c-3.7-0.9-6.4,0.7-7.6,5.3l-0.4-5.1h-5.4v25.7h6.5v-16.1
		C534,548.5,535.8,546.7,540.9,547.5 M564.3,540.7c0-0.5,0-1.1-0.2-2.3h-4.6c0,1.8-0.5,3-3.1,3c-0.5,0-1.7-0.5-3.7-0.5
		c-5.1,0-9,3.6-9,8.1v0.2c0,3,1.4,5.8,3.9,6.8c-2.5,0.3-4.3,2.4-4.3,4.3c0,1.7,1.1,3.3,3.5,4.1c-2.6,0.8-3.9,2.6-3.9,4.5v0.5
		c0,3.8,4.4,6.4,10.3,6.4c6.5,0,10.2-3.5,10.2-8v-0.4c0-4.1-2.8-6.8-9.5-6.8c-4.2,0-5.4-0.6-5.4-1.7c0-0.9,0.8-1.8,2.2-1.8
		c0.5,0.1,1.6,0.2,2.2,0.2c5.6,0,9.1-3.2,9.1-7.8v-0.5c0-2-0.9-3.8-2.5-5.1c0.8,0.4,1.4,0.5,2,0.5
		C562.9,544.1,564.3,542.9,564.3,540.7 M555.7,549.9c0,1.7-1.1,3.1-3,3.1c-1.9,0-3-1.4-3-3.1v-1.4c0-1.8,1.1-3.1,3-3.1
		c1.9,0,3,1.3,3,3.1V549.9z M557.5,568.1c0,1.7-1.3,2.9-4.4,2.9c-3,0-4.5-1.2-4.5-2.8v-0.5c0-1.7,1.4-2.7,4.5-2.7
		c3.3,0,4.4,1,4.4,2.6V568.1z"/>
</g>
</svg>
